<?xml version="1.0" encoding="UTF-8"?>
<svg width="282px" height="53px" viewBox="0 0 282 53" version="1.1" xmlns="http://www.w3.org/2000/svg" xmlns:xlink="http://www.w3.org/1999/xlink">
    <!-- Generator: Sketch 49.3 (51167) - http://www.bohemiancoding.com/sketch -->
    <title>Add Song</title>
    <desc>Created with Sketch.</desc>
    <defs>
        <linearGradient x1="100%" y1="50%" x2="0%" y2="50%" id="linearGradient-1">
            <stop stop-color="#1DB954" offset="0%"></stop>
            <stop stop-color="#1DB954" stop-opacity="0.5" offset="100%"></stop>
        </linearGradient>
    </defs>
    <g id="Add-Song" stroke="none" stroke-width="1" fill="none" fill-rule="evenodd">
        <polygon fill="url(#linearGradient-1)" points="243.161677 53 0 53 39.4023234 26.4990063 0 0 243.161677 0 282 26.4990063"></polygon>
        <path d="M95.82,30.42 L90.56,30.42 L89.3,34 L87.1,34 L92.1,20 L94.28,20 L99.3,34 L97.08,34 L95.82,30.42 Z M95.14,28.48 L93.2,22.98 L91.26,28.48 L95.14,28.48 Z M112.24,19 L112.24,34 L110.32,34 L110.2,33.06 C109.466663,33.8200038 108.506673,34.2 107.32,34.2 C106.439996,34.2 105.653337,33.9733356 104.96,33.52 C104.266663,33.0666644 103.730002,32.4466706 103.35,31.66 C102.969998,30.8733294 102.78,30.013338 102.78,29.08 C102.78,28.1599954 102.963331,27.3066706 103.33,26.52 C103.696669,25.7333294 104.22333,25.106669 104.91,24.64 C105.59667,24.173331 106.399995,23.94 107.32,23.94 C108.493339,23.94 109.439996,24.2933298 110.16,25 L110.16,19 L112.24,19 Z M107.66,32.42 C108.433337,32.42 109.069997,32.1300029 109.57,31.55 C110.070003,30.9699971 110.32,30.146672 110.32,29.08 C110.32,28.0533282 110.066669,27.2366697 109.56,26.63 C109.053331,26.0233303 108.420004,25.72 107.66,25.72 C106.819996,25.72 106.153336,26.0299969 105.66,26.65 C105.166664,27.2700031 104.92,28.079995 104.92,29.08 C104.92,30.0400048 105.166664,30.8366635 105.66,31.47 C106.153336,32.1033365 106.819996,32.42 107.66,32.42 Z M126.48,19 L126.48,34 L124.56,34 L124.44,33.06 C123.706663,33.8200038 122.746673,34.2 121.56,34.2 C120.679996,34.2 119.893337,33.9733356 119.2,33.52 C118.506663,33.0666644 117.970002,32.4466706 117.59,31.66 C117.209998,30.8733294 117.02,30.013338 117.02,29.08 C117.02,28.1599954 117.203332,27.3066706 117.57,26.52 C117.936668,25.7333294 118.46333,25.106669 119.15,24.64 C119.83667,24.173331 120.639995,23.94 121.56,23.94 C122.733339,23.94 123.679996,24.2933298 124.4,25 L124.4,19 L126.48,19 Z M121.9,32.42 C122.673337,32.42 123.309998,32.1300029 123.81,31.55 C124.310002,30.9699971 124.56,30.146672 124.56,29.08 C124.56,28.0533282 124.306669,27.2366697 123.8,26.63 C123.293331,26.0233303 122.660004,25.72 121.9,25.72 C121.059996,25.72 120.393336,26.0299969 119.9,26.65 C119.406664,27.2700031 119.16,28.079995 119.16,29.08 C119.16,30.0400048 119.406664,30.8366635 119.9,31.47 C120.393336,32.1033365 121.059996,32.42 121.9,32.42 Z M143.76,34.28 C142.946663,34.28 142.103338,34.1833343 141.23,33.99 C140.356662,33.7966657 139.666669,33.5733346 139.16,33.32 L139.44,31.02 C140.160004,31.3666684 140.926663,31.6566655 141.74,31.89 C142.553337,32.1233345 143.353329,32.24 144.14,32.24 C144.980004,32.24 145.633331,32.0866682 146.1,31.78 C146.566669,31.4733318 146.8,31.0066698 146.8,30.38 C146.8,29.913331 146.676668,29.5300015 146.43,29.23 C146.183332,28.9299985 145.826669,28.6733344 145.36,28.46 C144.893331,28.2466656 144.213338,27.9933348 143.32,27.7 C142.439996,27.4199986 141.710003,27.1233349 141.13,26.81 C140.549997,26.4966651 140.083335,26.0800026 139.73,25.56 C139.376665,25.0399974 139.2,24.3866706 139.2,23.6 C139.2,22.4399942 139.636662,21.5033369 140.51,20.79 C141.383338,20.0766631 142.626659,19.72 144.24,19.72 C145.053337,19.72 145.846663,19.8099991 146.62,19.99 C147.393337,20.1700009 148.079997,20.393332 148.68,20.66 L148.44,22.92 C147.653329,22.519998 146.91667,22.2233343 146.23,22.03 C145.54333,21.8366657 144.840004,21.74 144.12,21.74 C143.306663,21.74 142.666669,21.8866652 142.2,22.18 C141.733331,22.4733348 141.5,22.9133304 141.5,23.5 C141.5,23.9133354 141.613332,24.2566653 141.84,24.53 C142.066668,24.8033347 142.383331,25.0333324 142.79,25.22 C143.196669,25.4066676 143.779996,25.6199988 144.54,25.86 C146.126675,26.3400024 147.299996,26.91333 148.06,27.58 C148.820004,28.24667 149.2,29.1533276 149.2,30.3 C149.2,31.4600058 148.770004,32.4133296 147.91,33.16 C147.049996,33.9066704 145.666676,34.28 143.76,34.28 Z M158.38,34.2 C157.353328,34.2 156.463337,33.9700023 155.71,33.51 C154.956663,33.0499977 154.383335,32.4300039 153.99,31.65 C153.596665,30.8699961 153.4,30.0066714 153.4,29.06 C153.4,28.1133286 153.596665,27.2500039 153.99,26.47 C154.383335,25.6899961 154.956663,25.0700023 155.71,24.61 C156.463337,24.1499977 157.353328,23.92 158.38,23.92 C159.393338,23.92 160.276663,24.1499977 161.03,24.61 C161.783337,25.0700023 162.359998,25.6899961 162.76,26.47 C163.160002,27.2500039 163.36,28.1133286 163.36,29.06 C163.36,30.0066714 163.160002,30.8699961 162.76,31.65 C162.359998,32.4300039 161.783337,33.0499977 161.03,33.51 C160.276663,33.9700023 159.393338,34.2 158.38,34.2 Z M158.38,32.42 C159.286671,32.42 159.986664,32.120003 160.48,31.52 C160.973336,30.919997 161.22,30.1000052 161.22,29.06 C161.22,28.0199948 160.973336,27.200003 160.48,26.6 C159.986664,25.999997 159.286671,25.7 158.38,25.7 C157.473329,25.7 156.773336,25.999997 156.28,26.6 C155.786664,27.200003 155.54,28.0199948 155.54,29.06 C155.54,30.1000052 155.786664,30.919997 156.28,31.52 C156.773336,32.120003 157.473329,32.42 158.38,32.42 Z M173.08,23.94 C174.400007,23.94 175.379997,24.3433293 176.02,25.15 C176.660003,25.9566707 176.98,27.0799928 176.98,28.52 L176.98,34 L174.9,34 L174.9,28.6 C174.9,27.599995 174.720002,26.8700023 174.36,26.41 C173.999998,25.9499977 173.406671,25.72 172.58,25.72 C172.073331,25.72 171.620002,25.8133324 171.22,26 C170.819998,26.1866676 170.493335,26.4599982 170.24,26.82 L170.24,34 L168.16,34 L168.16,24.12 L169.94,24.12 L170.06,25.02 C170.953338,24.2999964 171.959994,23.94 173.08,23.94 Z M186.24,39.02 C184.839993,39.02 183.713338,38.7633359 182.86,38.25 C182.006662,37.7366641 181.58,37.0266712 181.58,36.12 C181.58,35.1333284 182.133328,34.3600028 183.24,33.8 C182.626664,33.466665 182.32,33.0266694 182.32,32.48 C182.32,31.8533302 182.686663,31.3800016 183.42,31.06 C182.886664,30.726665 182.480001,30.2766695 182.2,29.71 C181.919999,29.1433305 181.78,28.5066702 181.78,27.8 C181.78,27.0799964 181.939998,26.4266696 182.26,25.84 C182.580002,25.2533304 183.046664,24.7866684 183.66,24.44 C184.273336,24.0933316 184.999996,23.92 185.84,23.92 C186.720004,23.92 187.499997,24.153331 188.18,24.62 C188.820003,24.2733316 189.593329,24.1 190.5,24.1 L190.86,24.1 L190.66,25.44 L190.02,25.44 C189.699998,25.44 189.406668,25.473333 189.14,25.54 C189.633336,26.1800032 189.88,26.933329 189.88,27.8 C189.88,28.533337 189.720002,29.199997 189.4,29.8 C189.079998,30.400003 188.613336,30.8733316 188,31.22 C187.386664,31.5666684 186.666671,31.74 185.84,31.74 C185.426665,31.74 185.020002,31.6866672 184.62,31.58 C184.379999,31.6600004 184.26,31.8066656 184.26,32.02 C184.26,32.1800008 184.356666,32.3133328 184.55,32.42 C184.743334,32.5266672 185.053331,32.6066664 185.48,32.66 L187.72,33 C188.813339,33.1600008 189.646664,33.473331 190.22,33.94 C190.793336,34.406669 191.08,35.0466626 191.08,35.86 C191.08,36.860005 190.650004,37.6366639 189.79,38.19 C188.929996,38.7433361 187.746674,39.02 186.24,39.02 Z M185.84,30.14 C186.50667,30.14 187.023332,29.9300021 187.39,29.51 C187.756669,29.0899979 187.94,28.5266702 187.94,27.82 C187.94,27.1266632 187.756669,26.5700021 187.39,26.15 C187.023332,25.7299979 186.50667,25.52 185.84,25.52 C185.159997,25.52 184.636668,25.7299979 184.27,26.15 C183.903332,26.5700021 183.72,27.1266632 183.72,27.82 C183.72,28.5266702 183.903332,29.0899979 184.27,29.51 C184.636668,29.9300021 185.159997,30.14 185.84,30.14 Z M186.36,37.3 C188.186676,37.3 189.1,36.8533378 189.1,35.96 C189.1,35.5999982 188.953335,35.3233343 188.66,35.13 C188.366665,34.9366657 187.900003,34.7800006 187.26,34.66 L184.72,34.26 C183.866662,34.6200018 183.44,35.1199968 183.44,35.76 C183.44,36.2800026 183.696664,36.6666654 184.21,36.92 C184.723336,37.1733346 185.439995,37.3 186.36,37.3 Z" fill="#FFFFFF"></path>
    </g>
</svg>