<?xml version="1.0" encoding="UTF-8"?>
<svg width="282px" height="53px" viewBox="0 0 282 53" version="1.1" xmlns="http://www.w3.org/2000/svg" xmlns:xlink="http://www.w3.org/1999/xlink">
    <!-- Generator: Sketch 49.3 (51167) - http://www.bohemiancoding.com/sketch -->
    <title>Create Playlist</title>
    <desc>Created with Sketch.</desc>
    <defs>
        <linearGradient x1="100%" y1="50%" x2="0%" y2="50%" id="linearGradient-1">
            <stop stop-color="#1DB954" offset="0%"></stop>
            <stop stop-color="#1DB954" stop-opacity="0.5" offset="100%"></stop>
        </linearGradient>
    </defs>
    <g id="Create-Playlist" stroke="none" stroke-width="1" fill="none" fill-rule="evenodd">
        <polygon fill="url(#linearGradient-1)" points="243.161677 53 0 53 0 0 243.161677 0 282 26.4990063"></polygon>
        <path d="M51.86,34.28 C50.4866598,34.28 49.2600054,33.980003 48.18,33.38 C47.0999946,32.779997 46.2566697,31.9300055 45.65,30.83 C45.0433303,29.7299945 44.74,28.4533406 44.74,27 C44.74,25.5466594 45.0499969,24.2700055 45.67,23.17 C46.2900031,22.0699945 47.1433279,21.220003 48.23,20.62 C49.3166721,20.019997 50.5533264,19.72 51.94,19.72 C52.6333368,19.72 53.2966635,19.7933326 53.93,19.94 C54.5633365,20.0866674 55.1266642,20.2866654 55.62,20.54 L55.4,22.58 C54.1866606,22.0333306 53.0266722,21.76 51.92,21.76 C50.8933282,21.76 50.0233369,21.9866644 49.31,22.44 C48.5966631,22.8933356 48.0566685,23.5133294 47.69,24.3 C47.3233315,25.0866706 47.14,25.9866616 47.14,27 C47.14,28.0133384 47.3199982,28.9133294 47.68,29.7 C48.0400018,30.4866706 48.5733298,31.1066644 49.28,31.56 C49.9866702,32.0133356 50.8466616,32.24 51.86,32.24 C52.5133366,32.24 53.1199972,32.1700007 53.68,32.03 C54.2400028,31.8899993 54.8133304,31.686668 55.4,31.42 L55.62,33.48 C54.4333274,34.013336 53.1800066,34.28 51.86,34.28 Z M60.38,24.12 L62.22,24.12 L62.36,25.5 C63.2400044,24.4466614 64.1599952,23.92 65.12,23.92 C65.2666674,23.92 65.4199992,23.9333332 65.58,23.96 L65.4,26.14 C65.1866656,26.0866664 64.946668,26.06 64.68,26.06 C64.2266644,26.06 63.800002,26.1666656 63.4,26.38 C62.999998,26.5933344 62.7133342,26.8399986 62.54,27.12 L62.54,34 L60.38,34 L60.38,24.12 Z M74.34,34.2 C73.206661,34.2 72.2366707,33.966669 71.43,33.5 C70.6233293,33.033331 70.0166687,32.4066706 69.61,31.62 C69.2033313,30.8333294 69,29.9533382 69,28.98 C69,28.0599954 69.1899981,27.2166705 69.57,26.45 C69.9500019,25.6833295 70.5033297,25.0733356 71.23,24.62 C71.9566703,24.1666644 72.819995,23.94 73.82,23.94 C75.1266732,23.94 76.1666628,24.3233295 76.94,25.09 C77.7133372,25.8566705 78.1,26.8799936 78.1,28.16 C78.1,28.5066684 78.0600004,28.879998 77.98,29.28 L71.14,29.28 C71.273334,30.3866722 71.6433303,31.1866642 72.25,31.68 C72.8566697,32.1733358 73.626662,32.42 74.56,32.42 C75.6133386,32.42 76.5799956,32.1933356 77.46,31.74 L77.66,33.44 C76.593328,33.9466692 75.4866724,34.2 74.34,34.2 Z M75.96,27.86 C75.96,27.2333302 75.7800018,26.720002 75.42,26.32 C75.0599982,25.919998 74.5200036,25.72 73.8,25.72 C72.4533266,25.72 71.6066684,26.4333262 71.26,27.86 L75.96,27.86 Z M85.08,34.2 C84.213329,34.2 83.5033361,33.933336 82.95,33.4 C82.3966639,32.866664 82.12,32.166671 82.12,31.3 C82.12,30.433329 82.4233303,29.7400026 83.03,29.22 C83.6366697,28.6999974 84.373329,28.3300011 85.24,28.11 C86.106671,27.8899989 86.9866622,27.7733334 87.88,27.76 C87.8666666,26.9999962 87.7033349,26.4766681 87.39,26.19 C87.0766651,25.9033319 86.5733368,25.76 85.88,25.76 C85.4533312,25.76 85.0300021,25.8233327 84.61,25.95 C84.1899979,26.0766673 83.7266692,26.2933318 83.22,26.6 L82.98,24.9 C83.4733358,24.5933318 84.0166637,24.3566675 84.61,24.19 C85.2033363,24.0233325 85.8133302,23.94 86.44,23.94 C87.6666728,23.94 88.5599972,24.27333 89.12,24.94 C89.6800028,25.60667 89.96,26.739992 89.96,28.34 L89.96,30.64 C89.96,31.1600026 89.9833331,31.5466654 90.03,31.8 C90.0766669,32.0533346 90.1699993,32.2333328 90.31,32.34 C90.4500007,32.4466672 90.6733318,32.5 90.98,32.5 L91.22,32.5 L90.98,34.2 L90.52,34.2 C89.8266632,34.2 89.3033351,34.0933344 88.95,33.88 C88.5966649,33.6666656 88.3133344,33.3333356 88.1,32.88 C87.7399982,33.2933354 87.3000026,33.6166655 86.78,33.85 C86.2599974,34.0833345 85.6933364,34.2 85.08,34.2 Z M85.72,32.56 C86.1066686,32.56 86.4966647,32.4666676 86.89,32.28 C87.2833353,32.0933324 87.613332,31.833335 87.88,31.5 L87.88,29.18 C85.479988,29.2600004 84.28,29.933327 84.28,31.2 C84.28,32.1066712 84.7599952,32.56 85.72,32.56 Z M98.76,34.2 C97.893329,34.2 97.2433355,33.9633357 96.81,33.49 C96.3766645,33.0166643 96.16,32.4333368 96.16,31.74 L96.16,25.78 L94.58,25.78 L94.76,24.12 L96.16,24.12 L96.16,21.78 L98.24,21.58 L98.24,24.12 L100.66,24.12 L100.66,25.78 L98.24,25.78 L98.24,30.68 C98.24,31.2933364 98.2766663,31.7166655 98.35,31.95 C98.4233337,32.1833345 98.5733322,32.333333 98.8,32.4 C99.0266678,32.466667 99.4533302,32.5 100.08,32.5 L100.62,32.5 L100.46,34.2 L98.76,34.2 Z M109.94,34.2 C108.806661,34.2 107.836671,33.966669 107.03,33.5 C106.223329,33.033331 105.616669,32.4066706 105.21,31.62 C104.803331,30.8333294 104.6,29.9533382 104.6,28.98 C104.6,28.0599954 104.789998,27.2166705 105.17,26.45 C105.550002,25.6833295 106.10333,25.0733356 106.83,24.62 C107.55667,24.1666644 108.419995,23.94 109.42,23.94 C110.726673,23.94 111.766663,24.3233295 112.54,25.09 C113.313337,25.8566705 113.7,26.8799936 113.7,28.16 C113.7,28.5066684 113.66,28.879998 113.58,29.28 L106.74,29.28 C106.873334,30.3866722 107.24333,31.1866642 107.85,31.68 C108.45667,32.1733358 109.226662,32.42 110.16,32.42 C111.213339,32.42 112.179996,32.1933356 113.06,31.74 L113.26,33.44 C112.193328,33.9466692 111.086672,34.2 109.94,34.2 Z M111.56,27.86 C111.56,27.2333302 111.380002,26.720002 111.02,26.32 C110.659998,25.919998 110.120004,25.72 109.4,25.72 C108.053327,25.72 107.206668,26.4333262 106.86,27.86 L111.56,27.86 Z M126.34,20 L131.1,20 C134.326683,20 135.94,21.5133182 135.94,24.54 C135.94,26.0866744 135.523337,27.2366629 134.69,27.99 C133.856662,28.7433371 132.673341,29.12 131.14,29.12 L128.58,29.12 L128.58,34 L126.34,34 L126.34,20 Z M130.84,27.24 C131.800005,27.24 132.519998,27.0200022 133,26.58 C133.480002,26.1399978 133.72,25.4666712 133.72,24.56 C133.72,23.6399954 133.486669,22.9633355 133.02,22.53 C132.553331,22.0966645 131.820005,21.88 130.82,21.88 L128.58,21.88 L128.58,27.24 L130.84,27.24 Z M143.04,34.2 C142.173329,34.2 141.530002,33.966669 141.11,33.5 C140.689998,33.033331 140.48,32.4400036 140.48,31.72 L140.48,19 L142.58,19 L142.58,30.7 C142.58,31.2600028 142.613333,31.6633321 142.68,31.91 C142.746667,32.1566679 142.873332,32.3166663 143.06,32.39 C143.246668,32.4633337 143.559998,32.5 144,32.5 L143.74,34.2 L143.04,34.2 Z M150.66,34.2 C149.793329,34.2 149.083336,33.933336 148.53,33.4 C147.976664,32.866664 147.7,32.166671 147.7,31.3 C147.7,30.433329 148.00333,29.7400026 148.61,29.22 C149.21667,28.6999974 149.953329,28.3300011 150.82,28.11 C151.686671,27.8899989 152.566662,27.7733334 153.46,27.76 C153.446667,26.9999962 153.283335,26.4766681 152.97,26.19 C152.656665,25.9033319 152.153337,25.76 151.46,25.76 C151.033331,25.76 150.610002,25.8233327 150.19,25.95 C149.769998,26.0766673 149.306669,26.2933318 148.8,26.6 L148.56,24.9 C149.053336,24.5933318 149.596664,24.3566675 150.19,24.19 C150.783336,24.0233325 151.39333,23.94 152.02,23.94 C153.246673,23.94 154.139997,24.27333 154.7,24.94 C155.260003,25.60667 155.54,26.739992 155.54,28.34 L155.54,30.64 C155.54,31.1600026 155.563333,31.5466654 155.61,31.8 C155.656667,32.0533346 155.749999,32.2333328 155.89,32.34 C156.030001,32.4466672 156.253332,32.5 156.56,32.5 L156.8,32.5 L156.56,34.2 L156.1,34.2 C155.406663,34.2 154.883335,34.0933344 154.53,33.88 C154.176665,33.6666656 153.893334,33.3333356 153.68,32.88 C153.319998,33.2933354 152.880003,33.6166655 152.36,33.85 C151.839997,34.0833345 151.273336,34.2 150.66,34.2 Z M151.3,32.56 C151.686669,32.56 152.076665,32.4666676 152.47,32.28 C152.863335,32.0933324 153.193332,31.833335 153.46,31.5 L153.46,29.18 C151.059988,29.2600004 149.86,29.933327 149.86,31.2 C149.86,32.1066712 150.339995,32.56 151.3,32.56 Z M163.8,33.46 L159.68,24.12 L162.02,24.12 L164.86,31.04 L167.56,24.12 L169.88,24.12 L163.76,38.84 L161.56,38.84 L163.8,33.46 Z M176.72,34.2 C175.853329,34.2 175.210002,33.966669 174.79,33.5 C174.369998,33.033331 174.16,32.4400036 174.16,31.72 L174.16,19 L176.26,19 L176.26,30.7 C176.26,31.2600028 176.293333,31.6633321 176.36,31.91 C176.426667,32.1566679 176.553332,32.3166663 176.74,32.39 C176.926668,32.4633337 177.239998,32.5 177.68,32.5 L177.42,34.2 L176.72,34.2 Z M182.12,20 L184.2,20 L184.2,22.2 L182.12,22.2 L182.12,20 Z M182.12,24.12 L184.2,24.12 L184.2,34 L182.12,34 L182.12,24.12 Z M192.4,34.2 C191.14666,34.2 190.026672,33.933336 189.04,33.4 L189.26,31.48 C189.646669,31.7600014 190.099997,31.9966657 190.62,32.19 C191.140003,32.3833343 191.706664,32.48 192.32,32.48 C192.893336,32.48 193.333332,32.3866676 193.64,32.2 C193.946668,32.0133324 194.1,31.7333352 194.1,31.36 C194.1,30.9466646 193.936668,30.6300011 193.61,30.41 C193.283332,30.1899989 192.80667,29.980001 192.18,29.78 C191.539997,29.5666656 191.013335,29.3566677 190.6,29.15 C190.186665,28.9433323 189.846668,28.6533352 189.58,28.28 C189.313332,27.9066648 189.18,27.4266696 189.18,26.84 C189.18,25.9999958 189.496663,25.3033361 190.13,24.75 C190.763336,24.1966639 191.679994,23.92 192.88,23.92 C193.920005,23.92 194.866662,24.153331 195.72,24.62 L195.5,26.46 C195.086665,26.1533318 194.676669,25.9166675 194.27,25.75 C193.863331,25.5833325 193.413336,25.5 192.92,25.5 C192.399997,25.5 191.993335,25.599999 191.7,25.8 C191.406665,26.000001 191.26,26.2933314 191.26,26.68 C191.26,26.9600014 191.333333,27.1866658 191.48,27.36 C191.626667,27.5333342 191.839999,27.6799994 192.12,27.8 C192.400001,27.9200006 192.839997,28.0866656 193.44,28.3 C194.293338,28.5933348 194.969997,28.9533312 195.47,29.38 C195.970002,29.8066688 196.22,30.4333292 196.22,31.26 C196.22,32.1133376 195.910003,32.8166639 195.29,33.37 C194.669997,33.9233361 193.706673,34.2 192.4,34.2 Z M204.28,34.2 C203.413329,34.2 202.763335,33.9633357 202.33,33.49 C201.896664,33.0166643 201.68,32.4333368 201.68,31.74 L201.68,25.78 L200.1,25.78 L200.28,24.12 L201.68,24.12 L201.68,21.78 L203.76,21.58 L203.76,24.12 L206.18,24.12 L206.18,25.78 L203.76,25.78 L203.76,30.68 C203.76,31.2933364 203.796666,31.7166655 203.87,31.95 C203.943334,32.1833345 204.093332,32.333333 204.32,32.4 C204.546668,32.466667 204.97333,32.5 205.6,32.5 L206.14,32.5 L205.98,34.2 L204.28,34.2 Z" fill="#FFFFFF"></path>
    </g>
</svg>