<?xml version="1.0" encoding="UTF-8"?>
<svg width="282px" height="53px" viewBox="0 0 282 53" version="1.1" xmlns="http://www.w3.org/2000/svg" xmlns:xlink="http://www.w3.org/1999/xlink">
    <!-- Generator: Sketch 49.3 (51167) - http://www.bohemiancoding.com/sketch -->
    <title>Delete Song</title>
    <desc>Created with Sketch.</desc>
    <defs>
        <linearGradient x1="100%" y1="50%" x2="0%" y2="50%" id="linearGradient-1">
            <stop stop-color="#1DB954" offset="0%"></stop>
            <stop stop-color="#1DB954" stop-opacity="0.5" offset="100%"></stop>
        </linearGradient>
    </defs>
    <g id="Delete-Song" stroke="none" stroke-width="1" fill="none" fill-rule="evenodd">
        <polygon fill="url(#linearGradient-1)" points="243.161677 53 0 53 38.8383234 26.4990063 0 0 243.161677 0 282 26.4990063"></polygon>
        <path d="M73.58,20 L78.78,20 C80.1266734,20 81.3266614,20.2799972 82.38,20.84 C83.4333386,21.4000028 84.2533304,22.2066614 84.84,23.26 C85.4266696,24.3133386 85.72,25.5599928 85.72,27 C85.72,28.4400072 85.4266696,29.6866614 84.84,30.74 C84.2533304,31.7933386 83.4333386,32.5999972 82.38,33.16 C81.3266614,33.7200028 80.1266734,34 78.78,34 L73.58,34 L73.58,20 Z M78.78,32.04 C80.246674,32.04 81.3699961,31.5900045 82.15,30.69 C82.9300039,29.7899955 83.32,28.5600078 83.32,27 C83.32,25.4399922 82.9300039,24.2100045 82.15,23.31 C81.3699961,22.4099955 80.246674,21.96 78.78,21.96 L75.76,21.96 L75.76,32.04 L78.78,32.04 Z M95.3,34.2 C94.166661,34.2 93.1966707,33.966669 92.39,33.5 C91.5833293,33.033331 90.9766687,32.4066706 90.57,31.62 C90.1633313,30.8333294 89.96,29.9533382 89.96,28.98 C89.96,28.0599954 90.1499981,27.2166705 90.53,26.45 C90.9100019,25.6833295 91.4633297,25.0733356 92.19,24.62 C92.9166703,24.1666644 93.779995,23.94 94.78,23.94 C96.0866732,23.94 97.1266628,24.3233295 97.9,25.09 C98.6733372,25.8566705 99.06,26.8799936 99.06,28.16 C99.06,28.5066684 99.0200004,28.879998 98.94,29.28 L92.1,29.28 C92.233334,30.3866722 92.6033303,31.1866642 93.21,31.68 C93.8166697,32.1733358 94.586662,32.42 95.52,32.42 C96.5733386,32.42 97.5399956,32.1933356 98.42,31.74 L98.62,33.44 C97.553328,33.9466692 96.4466724,34.2 95.3,34.2 Z M96.92,27.86 C96.92,27.2333302 96.7400018,26.720002 96.38,26.32 C96.0199982,25.919998 95.4800036,25.72 94.76,25.72 C93.4133266,25.72 92.5666684,26.4333262 92.22,27.86 L96.92,27.86 Z M106.36,34.2 C105.493329,34.2 104.850002,33.966669 104.43,33.5 C104.009998,33.033331 103.8,32.4400036 103.8,31.72 L103.8,19 L105.9,19 L105.9,30.7 C105.9,31.2600028 105.933333,31.6633321 106,31.91 C106.066667,32.1566679 106.193332,32.3166663 106.38,32.39 C106.566668,32.4633337 106.879998,32.5 107.32,32.5 L107.06,34.2 L106.36,34.2 Z M116.4,34.2 C115.266661,34.2 114.296671,33.966669 113.49,33.5 C112.683329,33.033331 112.076669,32.4066706 111.67,31.62 C111.263331,30.8333294 111.06,29.9533382 111.06,28.98 C111.06,28.0599954 111.249998,27.2166705 111.63,26.45 C112.010002,25.6833295 112.56333,25.0733356 113.29,24.62 C114.01667,24.1666644 114.879995,23.94 115.88,23.94 C117.186673,23.94 118.226663,24.3233295 119,25.09 C119.773337,25.8566705 120.16,26.8799936 120.16,28.16 C120.16,28.5066684 120.12,28.879998 120.04,29.28 L113.2,29.28 C113.333334,30.3866722 113.70333,31.1866642 114.31,31.68 C114.91667,32.1733358 115.686662,32.42 116.62,32.42 C117.673339,32.42 118.639996,32.1933356 119.52,31.74 L119.72,33.44 C118.653328,33.9466692 117.546672,34.2 116.4,34.2 Z M118.02,27.86 C118.02,27.2333302 117.840002,26.720002 117.48,26.32 C117.119998,25.919998 116.580004,25.72 115.86,25.72 C114.513327,25.72 113.666668,26.4333262 113.32,27.86 L118.02,27.86 Z M128.24,34.2 C127.373329,34.2 126.723335,33.9633357 126.29,33.49 C125.856664,33.0166643 125.64,32.4333368 125.64,31.74 L125.64,25.78 L124.06,25.78 L124.24,24.12 L125.64,24.12 L125.64,21.78 L127.72,21.58 L127.72,24.12 L130.14,24.12 L130.14,25.78 L127.72,25.78 L127.72,30.68 C127.72,31.2933364 127.756666,31.7166655 127.83,31.95 C127.903334,32.1833345 128.053332,32.333333 128.28,32.4 C128.506668,32.466667 128.93333,32.5 129.56,32.5 L130.1,32.5 L129.94,34.2 L128.24,34.2 Z M139.42,34.2 C138.286661,34.2 137.316671,33.966669 136.51,33.5 C135.703329,33.033331 135.096669,32.4066706 134.69,31.62 C134.283331,30.8333294 134.08,29.9533382 134.08,28.98 C134.08,28.0599954 134.269998,27.2166705 134.65,26.45 C135.030002,25.6833295 135.58333,25.0733356 136.31,24.62 C137.03667,24.1666644 137.899995,23.94 138.9,23.94 C140.206673,23.94 141.246663,24.3233295 142.02,25.09 C142.793337,25.8566705 143.18,26.8799936 143.18,28.16 C143.18,28.5066684 143.14,28.879998 143.06,29.28 L136.22,29.28 C136.353334,30.3866722 136.72333,31.1866642 137.33,31.68 C137.93667,32.1733358 138.706662,32.42 139.64,32.42 C140.693339,32.42 141.659996,32.1933356 142.54,31.74 L142.74,33.44 C141.673328,33.9466692 140.566672,34.2 139.42,34.2 Z M141.04,27.86 C141.04,27.2333302 140.860002,26.720002 140.5,26.32 C140.139998,25.919998 139.600004,25.72 138.88,25.72 C137.533327,25.72 136.686668,26.4333262 136.34,27.86 L141.04,27.86 Z M159.84,34.28 C159.026663,34.28 158.183338,34.1833343 157.31,33.99 C156.436662,33.7966657 155.746669,33.5733346 155.24,33.32 L155.52,31.02 C156.240004,31.3666684 157.006663,31.6566655 157.82,31.89 C158.633337,32.1233345 159.433329,32.24 160.22,32.24 C161.060004,32.24 161.713331,32.0866682 162.18,31.78 C162.646669,31.4733318 162.88,31.0066698 162.88,30.38 C162.88,29.913331 162.756668,29.5300015 162.51,29.23 C162.263332,28.9299985 161.906669,28.6733344 161.44,28.46 C160.973331,28.2466656 160.293338,27.9933348 159.4,27.7 C158.519996,27.4199986 157.790003,27.1233349 157.21,26.81 C156.629997,26.4966651 156.163335,26.0800026 155.81,25.56 C155.456665,25.0399974 155.28,24.3866706 155.28,23.6 C155.28,22.4399942 155.716662,21.5033369 156.59,20.79 C157.463338,20.0766631 158.706659,19.72 160.32,19.72 C161.133337,19.72 161.926663,19.8099991 162.7,19.99 C163.473337,20.1700009 164.159997,20.393332 164.76,20.66 L164.52,22.92 C163.733329,22.519998 162.99667,22.2233343 162.31,22.03 C161.62333,21.8366657 160.920004,21.74 160.2,21.74 C159.386663,21.74 158.746669,21.8866652 158.28,22.18 C157.813331,22.4733348 157.58,22.9133304 157.58,23.5 C157.58,23.9133354 157.693332,24.2566653 157.92,24.53 C158.146668,24.8033347 158.463331,25.0333324 158.87,25.22 C159.276669,25.4066676 159.859996,25.6199988 160.62,25.86 C162.206675,26.3400024 163.379996,26.91333 164.14,27.58 C164.900004,28.24667 165.28,29.1533276 165.28,30.3 C165.28,31.4600058 164.850004,32.4133296 163.99,33.16 C163.129996,33.9066704 161.746676,34.28 159.84,34.28 Z M174.46,34.2 C173.433328,34.2 172.543337,33.9700023 171.79,33.51 C171.036663,33.0499977 170.463335,32.4300039 170.07,31.65 C169.676665,30.8699961 169.48,30.0066714 169.48,29.06 C169.48,28.1133286 169.676665,27.2500039 170.07,26.47 C170.463335,25.6899961 171.036663,25.0700023 171.79,24.61 C172.543337,24.1499977 173.433328,23.92 174.46,23.92 C175.473338,23.92 176.356663,24.1499977 177.11,24.61 C177.863337,25.0700023 178.439998,25.6899961 178.84,26.47 C179.240002,27.2500039 179.44,28.1133286 179.44,29.06 C179.44,30.0066714 179.240002,30.8699961 178.84,31.65 C178.439998,32.4300039 177.863337,33.0499977 177.11,33.51 C176.356663,33.9700023 175.473338,34.2 174.46,34.2 Z M174.46,32.42 C175.366671,32.42 176.066664,32.120003 176.56,31.52 C177.053336,30.919997 177.3,30.1000052 177.3,29.06 C177.3,28.0199948 177.053336,27.200003 176.56,26.6 C176.066664,25.999997 175.366671,25.7 174.46,25.7 C173.553329,25.7 172.853336,25.999997 172.36,26.6 C171.866664,27.200003 171.62,28.0199948 171.62,29.06 C171.62,30.1000052 171.866664,30.919997 172.36,31.52 C172.853336,32.120003 173.553329,32.42 174.46,32.42 Z M189.16,23.94 C190.480007,23.94 191.459997,24.3433293 192.1,25.15 C192.740003,25.9566707 193.06,27.0799928 193.06,28.52 L193.06,34 L190.98,34 L190.98,28.6 C190.98,27.599995 190.800002,26.8700023 190.44,26.41 C190.079998,25.9499977 189.486671,25.72 188.66,25.72 C188.153331,25.72 187.700002,25.8133324 187.3,26 C186.899998,26.1866676 186.573335,26.4599982 186.32,26.82 L186.32,34 L184.24,34 L184.24,24.12 L186.02,24.12 L186.14,25.02 C187.033338,24.2999964 188.039994,23.94 189.16,23.94 Z M202.32,39.02 C200.919993,39.02 199.793338,38.7633359 198.94,38.25 C198.086662,37.7366641 197.66,37.0266712 197.66,36.12 C197.66,35.1333284 198.213328,34.3600028 199.32,33.8 C198.706664,33.466665 198.4,33.0266694 198.4,32.48 C198.4,31.8533302 198.766663,31.3800016 199.5,31.06 C198.966664,30.726665 198.560001,30.2766695 198.28,29.71 C197.999999,29.1433305 197.86,28.5066702 197.86,27.8 C197.86,27.0799964 198.019998,26.4266696 198.34,25.84 C198.660002,25.2533304 199.126664,24.7866684 199.74,24.44 C200.353336,24.0933316 201.079996,23.92 201.92,23.92 C202.800004,23.92 203.579997,24.153331 204.26,24.62 C204.900003,24.2733316 205.673329,24.1 206.58,24.1 L206.94,24.1 L206.74,25.44 L206.1,25.44 C205.779998,25.44 205.486668,25.473333 205.22,25.54 C205.713336,26.1800032 205.96,26.933329 205.96,27.8 C205.96,28.533337 205.800002,29.199997 205.48,29.8 C205.159998,30.400003 204.693336,30.8733316 204.08,31.22 C203.466664,31.5666684 202.746671,31.74 201.92,31.74 C201.506665,31.74 201.100002,31.6866672 200.7,31.58 C200.459999,31.6600004 200.34,31.8066656 200.34,32.02 C200.34,32.1800008 200.436666,32.3133328 200.63,32.42 C200.823334,32.5266672 201.133331,32.6066664 201.56,32.66 L203.8,33 C204.893339,33.1600008 205.726664,33.473331 206.3,33.94 C206.873336,34.406669 207.16,35.0466626 207.16,35.86 C207.16,36.860005 206.730004,37.6366639 205.87,38.19 C205.009996,38.7433361 203.826674,39.02 202.32,39.02 Z M201.92,30.14 C202.58667,30.14 203.103331,29.9300021 203.47,29.51 C203.836668,29.0899979 204.02,28.5266702 204.02,27.82 C204.02,27.1266632 203.836668,26.5700021 203.47,26.15 C203.103331,25.7299979 202.58667,25.52 201.92,25.52 C201.239997,25.52 200.716669,25.7299979 200.35,26.15 C199.983332,26.5700021 199.8,27.1266632 199.8,27.82 C199.8,28.5266702 199.983332,29.0899979 200.35,29.51 C200.716669,29.9300021 201.239997,30.14 201.92,30.14 Z M202.44,37.3 C204.266676,37.3 205.18,36.8533378 205.18,35.96 C205.18,35.5999982 205.033335,35.3233343 204.74,35.13 C204.446665,34.9366657 203.980003,34.7800006 203.34,34.66 L200.8,34.26 C199.946662,34.6200018 199.52,35.1199968 199.52,35.76 C199.52,36.2800026 199.776664,36.6666654 200.29,36.92 C200.803336,37.1733346 201.519995,37.3 202.44,37.3 Z" fill="#FFFFFF"></path>
    </g>
</svg>