<?xml version="1.0" encoding="UTF-8"?>
<svg width="1496px" height="54px" viewBox="0 0 1496 54" version="1.1" xmlns="http://www.w3.org/2000/svg" xmlns:xlink="http://www.w3.org/1999/xlink">
    <!-- Generator: Sketch 49.3 (51167) - http://www.bohemiancoding.com/sketch -->
    <title>Events</title>
    <desc>Created with Sketch.</desc>
    <defs></defs>
    <g id="Symbols" stroke="none" stroke-width="1" fill="none" fill-rule="evenodd">
        <g id="Events" transform="translate(1.000000, -10.000000)">
            <g>
                <path d="M2.926,10.4 L19.95,10.4 L19.95,15.112 L7.904,15.112 L7.904,20.774 L17.252,20.774 L17.252,25.486 L7.904,25.486 L7.904,32.288 L20.33,32.288 L20.33,37 L2.926,37 L2.926,10.4 Z M22.698,18 L27.334,18 L32.008,31.148 L36.682,18 L41.318,18 L34.022,37 L29.994,37 L22.698,18 Z M53.452,37.38 C51.247989,37.38 49.3670078,36.9303378 47.809,36.031 C46.2509922,35.1316622 45.0856705,33.9283409 44.313,32.421 C43.5403295,30.9136591 43.154,29.2353426 43.154,27.386 C43.154,25.6126578 43.5213297,23.9913407 44.256,22.522 C44.9906703,21.0526593 46.0546597,19.8810044 47.448,19.007 C48.8413403,18.1329956 50.500657,17.696 52.426,17.696 C54.1993422,17.696 55.7003272,18.0633297 56.929,18.798 C58.1576728,19.5326703 59.0823302,20.5206605 59.703,21.762 C60.3236698,23.0033395 60.634,24.3966589 60.634,25.942 C60.634,26.7020038 60.5326677,27.5633285 60.33,28.526 L48.056,28.526 C48.3093346,30.1980084 48.9679947,31.4456626 50.032,32.269 C51.0960053,33.0923375 52.3753259,33.504 53.87,33.504 C55.9220103,33.504 57.8219913,32.9846719 59.57,31.946 L59.798,35.936 C58.9873293,36.3666688 58.0436721,36.7149987 56.967,36.981 C55.890328,37.2470013 54.718673,37.38 53.452,37.38 Z M55.846,25.334 C55.846,24.3459951 55.5673361,23.4720038 55.01,22.712 C54.4526639,21.9519962 53.5913392,21.572 52.426,21.572 C51.2606608,21.572 50.3233369,21.9139966 49.614,22.598 C48.9046631,23.2820034 48.4233346,24.1939943 48.17,25.334 L55.846,25.334 Z M74.44,17.696 C76.7960118,17.696 78.5819939,18.4813255 79.798,20.052 C81.0140061,21.6226745 81.622,23.7379867 81.622,26.398 L81.622,37 L76.91,37 L76.91,26.778 C76.91,25.0046578 76.6123363,23.6936709 76.017,22.845 C75.4216637,21.9963291 74.4653399,21.572 73.148,21.572 C71.7039928,21.572 70.513338,22.1166612 69.576,23.206 L69.576,37 L64.864,37 L64.864,18 L69.272,18 L69.348,19.33 C70.944008,18.2406612 72.6413243,17.696 74.44,17.696 Z M92.806,37.38 C91.1339916,37.38 89.8673376,36.8923382 89.006,35.917 C88.1446624,34.9416618 87.714,33.7700068 87.714,32.402 L87.714,21.876 L85.016,21.876 L85.434,18 L87.714,18 L87.714,13.82 L92.426,13.326 L92.426,18 L96.606,18 L96.606,21.876 L92.426,21.876 L92.426,30.464 C92.426,31.4773384 92.4829994,32.1803314 92.597,32.573 C92.7110006,32.9656686 92.9516648,33.2189994 93.319,33.333 C93.6863352,33.4470006 94.3513285,33.504 95.314,33.504 L96.606,33.504 L96.188,37.38 L92.806,37.38 Z M106.08,37.38 C104.863994,37.38 103.755672,37.2660011 102.755,37.038 C101.754328,36.8099989 100.722005,36.4553357 99.658,35.974 L100.076,31.946 C101.140005,32.5793365 102.134329,33.0543318 103.059,33.371 C103.983671,33.6876683 104.939995,33.846 105.928,33.846 C107.853343,33.846 108.816,33.212673 108.816,31.946 C108.816,31.2619966 108.562669,30.7363352 108.056,30.369 C107.549331,30.0016648 106.63734,29.5646692 105.32,29.058 C103.445324,28.3739966 102.064671,27.5950044 101.178,26.721 C100.291329,25.8469956 99.848,24.6626741 99.848,23.168 C99.848,21.5213251 100.481327,20.1850051 101.748,19.159 C103.014673,18.1329949 104.724656,17.62 106.878,17.62 C109.031344,17.62 110.994658,18.1139951 112.768,19.102 L112.35,23.13 C111.387329,22.47133 110.481671,21.9646684 109.633,21.61 C108.784329,21.2553316 107.891338,21.078 106.954,21.078 C106.143329,21.078 105.516336,21.242665 105.073,21.572 C104.629664,21.901335 104.408,22.369997 104.408,22.978 C104.408,23.4593357 104.540999,23.8519985 104.807,24.156 C105.073001,24.4600015 105.446664,24.7323321 105.928,24.973 C106.409336,25.2136679 107.207328,25.5493312 108.322,25.98 C110.171343,26.6893369 111.501329,27.4683291 112.312,28.317 C113.122671,29.1656709 113.528,30.2993262 113.528,31.718 C113.528,33.5166757 112.882006,34.9099951 111.59,35.898 C110.297994,36.8860049 108.461345,37.38 106.08,37.38 Z" fill="#FFFFFF"></path>
                <path d="M0,63 L1494,63" id="Thought-Line-Copy" stroke="#282828" stroke-width="2" stroke-linecap="square"></path>
            </g>
        </g>
    </g>
</svg>