<?xml version="1.0" encoding="UTF-8"?>
<svg width="1496px" height="55px" viewBox="0 0 1496 55" version="1.1" xmlns="http://www.w3.org/2000/svg" xmlns:xlink="http://www.w3.org/1999/xlink">
    <!-- Generator: Sketch 49.3 (51167) - http://www.bohemiancoding.com/sketch -->
    <title>Gestures</title>
    <desc>Created with Sketch.</desc>
    <defs></defs>
    <g id="Symbols" stroke="none" stroke-width="1" fill="none" fill-rule="evenodd">
        <g id="Gestures" transform="translate(1.000000, -9.000000)">
            <g>
                <path d="M14.744,37.532 C11.9573194,37.532 9.55701007,36.9620057 7.543,35.822 C5.52898993,34.6819943 3.99000532,33.0670104 2.926,30.977 C1.86199468,28.8869895 1.33,26.4486806 1.33,23.662 C1.33,20.9259863 1.91899411,18.5130105 3.097,16.423 C4.27500589,14.3329896 5.91532282,12.7180057 8.018,11.578 C10.1206772,10.4379943 12.5273198,9.868 15.238,9.868 C16.6060068,9.868 17.9359935,10.0073319 19.228,10.286 C20.5200065,10.5646681 21.634662,10.9446643 22.572,11.426 L22.04,16.062 C19.835989,15.0486616 17.5686783,14.542 15.238,14.542 C12.4006525,14.542 10.2600072,15.3716584 8.816,17.031 C7.37199278,18.6903416 6.65,20.8753198 6.65,23.586 C6.65,26.3980141 7.35932624,28.6463249 8.778,30.331 C10.1966738,32.0156751 12.2486532,32.858 14.934,32.858 C16.0233388,32.858 17.2393266,32.7186681 18.582,32.44 L18.582,27.69 L14.934,27.69 L14.934,23.662 L23.446,23.662 L23.446,35.518 C22.4579951,36.1006696 21.1976743,36.5819981 19.665,36.962 C18.1323257,37.3420019 16.4920087,37.532 14.744,37.532 Z M37.404,37.38 C35.199989,37.38 33.3190078,36.9303378 31.761,36.031 C30.2029922,35.1316622 29.0376705,33.9283409 28.265,32.421 C27.4923295,30.9136591 27.106,29.2353426 27.106,27.386 C27.106,25.6126578 27.4733297,23.9913407 28.208,22.522 C28.9426703,21.0526593 30.0066597,19.8810044 31.4,19.007 C32.7933403,18.1329956 34.452657,17.696 36.378,17.696 C38.1513422,17.696 39.6523272,18.0633297 40.881,18.798 C42.1096728,19.5326703 43.0343302,20.5206605 43.655,21.762 C44.2756698,23.0033395 44.586,24.3966589 44.586,25.942 C44.586,26.7020038 44.4846677,27.5633285 44.282,28.526 L32.008,28.526 C32.2613346,30.1980084 32.9199947,31.4456626 33.984,32.269 C35.0480053,33.0923375 36.3273259,33.504 37.822,33.504 C39.8740103,33.504 41.7739913,32.9846719 43.522,31.946 L43.75,35.936 C42.9393293,36.3666688 41.995672,36.7149987 40.919,36.981 C39.8423279,37.2470013 38.670673,37.38 37.404,37.38 Z M39.798,25.334 C39.798,24.3459951 39.5193361,23.4720038 38.962,22.712 C38.4046639,21.9519962 37.5433392,21.572 36.378,21.572 C35.2126608,21.572 34.2753369,21.9139966 33.566,22.598 C32.8566631,23.2820034 32.3753346,24.1939943 32.122,25.334 L39.798,25.334 Z M54.212,37.38 C52.9959939,37.38 51.8876717,37.2660011 50.887,37.038 C49.8863283,36.8099989 48.8540053,36.4553357 47.79,35.974 L48.208,31.946 C49.2720053,32.5793365 50.2663287,33.0543318 51.191,33.371 C52.1156713,33.6876683 53.0719951,33.846 54.06,33.846 C55.985343,33.846 56.948,33.212673 56.948,31.946 C56.948,31.2619966 56.6946692,30.7363352 56.188,30.369 C55.6813308,30.0016648 54.7693399,29.5646692 53.452,29.058 C51.577324,28.3739966 50.1966711,27.5950044 49.31,26.721 C48.4233289,25.8469956 47.98,24.6626741 47.98,23.168 C47.98,21.5213251 48.613327,20.1850051 49.88,19.159 C51.146673,18.1329949 52.8566559,17.62 55.01,17.62 C57.1633441,17.62 59.1266578,18.1139951 60.9,19.102 L60.482,23.13 C59.5193285,22.47133 58.6136709,21.9646684 57.765,21.61 C56.9163291,21.2553316 56.023338,21.078 55.086,21.078 C54.2753293,21.078 53.6483355,21.242665 53.205,21.572 C52.7616644,21.901335 52.54,22.369997 52.54,22.978 C52.54,23.4593357 52.6729987,23.8519985 52.939,24.156 C53.2050013,24.4600015 53.5786643,24.7323321 54.06,24.973 C54.5413357,25.2136679 55.3393278,25.5493312 56.454,25.98 C58.3033426,26.6893369 59.6333293,27.4683291 60.444,28.317 C61.2546707,29.1656709 61.66,30.2993262 61.66,31.718 C61.66,33.5166757 61.0140065,34.9099951 59.722,35.898 C58.4299935,36.8860049 56.5933452,37.38 54.212,37.38 Z M72.084,37.38 C70.4119916,37.38 69.1453376,36.8923382 68.284,35.917 C67.4226624,34.9416618 66.992,33.7700068 66.992,32.402 L66.992,21.876 L64.294,21.876 L64.712,18 L66.992,18 L66.992,13.82 L71.704,13.326 L71.704,18 L75.884,18 L75.884,21.876 L71.704,21.876 L71.704,30.464 C71.704,31.4773384 71.7609994,32.1803314 71.875,32.573 C71.9890006,32.9656686 72.2296648,33.2189994 72.597,33.333 C72.9643352,33.4470006 73.6293285,33.504 74.592,33.504 L75.884,33.504 L75.466,37.38 L72.084,37.38 Z M96.53,18 L96.53,37 L92.122,37 L92.046,35.86 C91.4633304,36.2906688 90.7920038,36.6516652 90.032,36.943 C89.2719962,37.2343348 88.5373369,37.38 87.828,37.38 C85.0159859,37.38 82.9703397,36.5693414 81.691,34.948 C80.4116603,33.3266586 79.772,31.084681 79.772,28.222 L79.772,18 L84.484,18 L84.484,28.222 C84.484,29.9953422 84.7816637,31.3063291 85.377,32.155 C85.9723363,33.0036709 86.9286601,33.428 88.246,33.428 C89.7153407,33.428 90.9059954,32.8960053 91.818,31.832 L91.818,18 L96.53,18 Z M101.938,18 L106.346,18 L106.46,20.014 C107.017336,19.3806635 107.732996,18.8233357 108.607,18.342 C109.481004,17.8606643 110.399329,17.62 111.362,17.62 C111.666002,17.62 111.944665,17.6453331 112.198,17.696 L111.856,22.332 C111.374664,22.2053327 110.830003,22.142 110.222,22.142 C109.436663,22.142 108.71467,22.3256648 108.056,22.693 C107.39733,23.0603352 106.928668,23.5099973 106.65,24.042 L106.65,37 L101.938,37 L101.938,18 Z M124.294,37.38 C122.089989,37.38 120.209008,36.9303378 118.651,36.031 C117.092992,35.1316622 115.927671,33.9283409 115.155,32.421 C114.382329,30.9136591 113.996,29.2353426 113.996,27.386 C113.996,25.6126578 114.36333,23.9913407 115.098,22.522 C115.83267,21.0526593 116.89666,19.8810044 118.29,19.007 C119.68334,18.1329956 121.342657,17.696 123.268,17.696 C125.041342,17.696 126.542327,18.0633297 127.771,18.798 C128.999673,19.5326703 129.92433,20.5206605 130.545,21.762 C131.16567,23.0033395 131.476,24.3966589 131.476,25.942 C131.476,26.7020038 131.374668,27.5633285 131.172,28.526 L118.898,28.526 C119.151335,30.1980084 119.809995,31.4456626 120.874,32.269 C121.938005,33.0923375 123.217326,33.504 124.712,33.504 C126.76401,33.504 128.663991,32.9846719 130.412,31.946 L130.64,35.936 C129.829329,36.3666688 128.885672,36.7149987 127.809,36.981 C126.732328,37.2470013 125.560673,37.38 124.294,37.38 Z M126.688,25.334 C126.688,24.3459951 126.409336,23.4720038 125.852,22.712 C125.294664,21.9519962 124.433339,21.572 123.268,21.572 C122.102661,21.572 121.165337,21.9139966 120.456,22.598 C119.746663,23.2820034 119.265335,24.1939943 119.012,25.334 L126.688,25.334 Z M141.102,37.38 C139.885994,37.38 138.777672,37.2660011 137.777,37.038 C136.776328,36.8099989 135.744005,36.4553357 134.68,35.974 L135.098,31.946 C136.162005,32.5793365 137.156329,33.0543318 138.081,33.371 C139.005671,33.6876683 139.961995,33.846 140.95,33.846 C142.875343,33.846 143.838,33.212673 143.838,31.946 C143.838,31.2619966 143.584669,30.7363352 143.078,30.369 C142.571331,30.0016648 141.65934,29.5646692 140.342,29.058 C138.467324,28.3739966 137.086671,27.5950044 136.2,26.721 C135.313329,25.8469956 134.87,24.6626741 134.87,23.168 C134.87,21.5213251 135.503327,20.1850051 136.77,19.159 C138.036673,18.1329949 139.746656,17.62 141.9,17.62 C144.053344,17.62 146.016658,18.1139951 147.79,19.102 L147.372,23.13 C146.409329,22.47133 145.503671,21.9646684 144.655,21.61 C143.806329,21.2553316 142.913338,21.078 141.976,21.078 C141.165329,21.078 140.538336,21.242665 140.095,21.572 C139.651664,21.901335 139.43,22.369997 139.43,22.978 C139.43,23.4593357 139.562999,23.8519985 139.829,24.156 C140.095001,24.4600015 140.468664,24.7323321 140.95,24.973 C141.431336,25.2136679 142.229328,25.5493312 143.344,25.98 C145.193343,26.6893369 146.523329,27.4683291 147.334,28.317 C148.144671,29.1656709 148.55,30.2993262 148.55,31.718 C148.55,33.5166757 147.904006,34.9099951 146.612,35.898 C145.319994,36.8860049 143.483345,37.38 141.102,37.38 Z" fill="#FFFFFF"></path>
                <path d="M0,63 L1494,63" id="Thought-Line-Copy" stroke="#282828" stroke-width="2" stroke-linecap="square"></path>
            </g>
        </g>
    </g>
</svg>