<?xml version="1.0" encoding="UTF-8"?>
<svg width="141px" height="116px" viewBox="0 0 141 116" version="1.1" xmlns="http://www.w3.org/2000/svg" xmlns:xlink="http://www.w3.org/1999/xlink">
    <!-- Generator: Sketch 49.3 (51167) - http://www.bohemiancoding.com/sketch -->
    <title>Gesture (free) 2</title>
    <desc>Created with Sketch.</desc>
    <defs></defs>
    <g id="Spotify" stroke="none" stroke-width="1" fill="none" fill-rule="evenodd">
        <g id="Journey-Map-@2" transform="translate(-1207.000000, -1418.000000)">
            <g id="Gesture-(free)-2" transform="translate(1208.000000, 1414.000000)">
                <g id="Tap-(Free)-Copy">
                    <text id="X-5" font-family="Cabin-Regular, Cabin" font-size="14" font-weight="normal" fill="#838383">
                        <tspan x="24.487" y="14">X 5</tspan>
                    </text>
                    <g id="Group-4" transform="translate(0.000000, 18.000000)">
                        <text id="Tap" font-family="Cabin-Regular, Cabin" font-size="20" font-weight="normal" fill="#838383">
                            <tspan x="7.41" y="97">Tap</tspan>
                        </text>
                        <g id="Tap" stroke-linecap="round" stroke-linejoin="round" stroke-width="2">
                            <path d="M18.5408965,35.8018232 C18.5408965,27.8988043 18.3418685,19.9877138 18.6292455,12.0947842 C18.7632253,8.42325525 16.6525575,7.18629607 14.1729597,7.21252848 C11.7487014,7.23674302 9.52055855,8.12864507 9.67201401,12.0968021 C10.063274,22.3385416 9.81473166,32.6065135 9.79143082,42.864396 C9.78754735,44.5533599 10.0953126,46.2917617 9.31764706,47.9090909" id="Stroke-87" stroke="#FFFFFF"></path>
                            <path d="M37.31806,29.3636364 C42.2108585,29.420303 43.4801153,31.9445455 43.6315671,36.0575152 C43.8994334,43.3232121 44.7098137,50.5126667 42.5103714,57.7237576 C41.3281429,61.5987273 39.0563654,64.7566061 36.7529412,68" id="Stroke-161" stroke="#FFFFFF"></path>
                            <path d="M7.99291657,33.2379761 C3.5325551,32.4238394 1.83629161,33.3780317 1.07228028,37.2693632 C-1.84125515,52.1233272 0.884246401,58.9356763 12.9411765,68" id="Stroke-179" stroke="#FFFFFF"></path>
                            <path d="M20.1882353,22.6719504 C27.8610775,21.236234 29.4956455,22.5020126 29.5049622,29.8814297 C29.5070326,32.2842462 29.5049622,34.6880926 29.5049622,37.0909091" id="Stroke-551" stroke="#FFFFFF"></path>
                            <path d="M36.7253959,40.6969697 C36.7253959,37.8886273 36.7966284,35.0781789 36.7099942,32.2729955 C36.5367259,26.6299857 34.8290703,25.1673732 29.5058824,25.9550148" id="Stroke-579" stroke="#FFFFFF"></path>
                            <path d="M25.3647059,10.8181818 C23.7327294,3.48551515 20.1480471,0 14.2352941,0 C8.32254118,0 4.73785882,3.48551515 3.10588235,10.8181818" id="Stroke-663" stroke="#F0A977"></path>
                        </g>
                    </g>
                </g>
                <g id="Vertical-Scroll" transform="translate(74.000000, 27.000000)">
                    <text id="Scroll" font-family="Cabin-Regular, Cabin" font-size="20" font-weight="normal" fill="#838383">
                        <tspan x="9.37" y="88">Scroll</tspan>
                    </text>
                    <g id="Vertical-Swipe" stroke-linecap="round" stroke-linejoin="round" stroke-width="2">
                        <path d="M3.08256225,0.378433807 L3.08256225,31.0526316" id="Stroke-727" stroke="#F0A977"></path>
                        <path d="M5.70528282,30.715076 C3.88211151,33.1834637 2.0589402,33.1834637 0.23576889,30.715076" id="Stroke-835" stroke="#F0A977"></path>
                        <path d="M5.70528282,2.22972461 C3.88211151,-0.238663127 2.0589402,-0.238663127 0.23576889,2.22972461" id="Stroke-851" stroke="#F0A977"></path>
                        <path d="M28.6096577,29.3101608 C23.6914363,24.3589618 18.5442474,19.612654 13.9150338,14.4002185 C8.77191542,8.6110139 6.5789158,10.2101908 2.78924964,16.6345585 C11.8126035,25.7184157 20.9743555,34.9415991 30.1361075,44.1647825" id="Stroke-15" stroke="#FFFFFF"></path>
                        <path d="M17.5492688,36.7560983 C15.2001861,38.9083633 15.0144218,41.1671866 16.5103648,44.1729723 C21.864111,54.924802 33.5928154,60.982795 44.5774798,58.3821414 C45.2369922,58.2259967 45.8886414,58.0329259 46.5442223,57.8567356" id="Stroke-259" stroke="#FFFFFF"></path>
                        <path d="M64.773713,40.4604404 C64.8758702,32.6447861 60.4851743,26.847917 55.4433551,21.46282 C52.587081,18.4131018 49.3964742,15.6338908 46.1707831,12.9428451 C43.238149,10.4962578 40.1311254,9.59556904 37.428603,13.4097205" id="Stroke-301" stroke="#FFFFFF"></path>
                        <path d="M42.8979745,18.2343881 C40.8862517,16.390691 38.9992556,14.4114821 36.8356476,12.7327959 C32.7850436,9.58929225 30.2693842,10.32124 28.3129837,15.0079181" id="Stroke-587" stroke="#FFFFFF"></path>
                        <path d="M37.428603,23.7909012 C35.6639367,22.1663059 33.9691372,20.4725168 32.1208425,18.9327085 C27.8780216,15.3950476 25.6062917,15.5236898 21.0204882,19.4053712" id="Stroke-603" stroke="#FFFFFF"></path>
                    </g>
                </g>
            </g>
        </g>
    </g>
</svg>