<?xml version="1.0" encoding="UTF-8"?>
<svg width="1495px" height="509px" viewBox="0 0 1495 509" version="1.1" xmlns="http://www.w3.org/2000/svg" xmlns:xlink="http://www.w3.org/1999/xlink">
    <!-- Generator: Sketch 49.3 (51167) - http://www.bohemiancoding.com/sketch -->
    <title>Graphs</title>
    <desc>Created with Sketch.</desc>
    <defs></defs>
    <g id="Graphs" stroke="none" stroke-width="1" fill="none" fill-rule="evenodd">
        <g>
            <g id="Lines" opacity="0.75" transform="translate(140.000000, 0.000000)" stroke="#A6A8AB" stroke-dasharray="2.005,2.005">
                <path d="M0.9935,504.2673 L0.9935,0.0023" id="Create-Playlist-Line"></path>
                <path d="M243.141,504.2673 L243.141,0.0023" id="Add-Song-Line"></path>
                <path d="M485.2181,504.2673 L485.2181,0.0023" id="Rearrange-Song-Line"></path>
                <path d="M727.3392,504.2673 L727.3392,0.0023" id="Delete-Song-Line"></path>
                <path d="M970.0492,504.2673 L970.0492,0.0023" id="Rename-Playlist-Line"></path>
                <path d="M1212.5482,504.2673 L1212.5482,0.0023" id="Share-Playlist-Line"></path>
            </g>
            <g id="Discoverability-Baseline" transform="translate(0.000000, 506.721000)" stroke="#282828" stroke-width="5">
                <path d="M-0.0002,0.5004 L1493.5418,0.5004" id="Stroke-31"></path>
            </g>
            <g id="Discoverability-Premium" transform="translate(0.000000, 397.721000)">
                <path d="M1493.7904,29.1302 L1352.9574,29.1302 C1320.2984,29.1302 1159.7904,14.1792 1110.0224,14.1792 C1060.2564,14.1792 913.6594,44.5122 867.3314,44.5122 C821.0024,44.5122 663.2864,74.5702 625.1364,74.5702 C586.9844,74.5702 428.6804,15.6792 383.1664,15.6792 C337.6524,15.6792 172.0464,0.6792 141.6544,0.6792 L0.4584,0.6792 L0.4584,107.4362 L1494.0004,107.4362 L1493.7904,29.1302 Z" id="Fill-34" fill-opacity="0.25" fill="#6C96CE"></path>
                <path d="M0.3534,0.6791 L141.5684,0.6791 C171.9654,0.6791 337.5964,13.6791 383.1154,13.6791 C428.6354,13.6791 586.9624,72.5711 625.1184,72.5711 C663.2744,72.5711 821.0134,42.5121 867.3484,42.5121 C913.6834,42.5121 1060.3004,12.1791 1110.0744,12.1791 C1159.8494,12.1791 1320.3784,27.1301 1353.0424,27.1301 L1493.8954,27.1301" id="Stroke-43" stroke="#6C96CE" stroke-width="3"></path>
            </g>
            <g id="Discoverability-Free" transform="translate(0.000000, 366.721000)">
                <path d="M1493.7904,63.3744 L1352.9574,63.3744 C1320.2984,63.3744 1159.7904,48.1794 1110.0224,48.1794 C1060.2564,48.1794 913.6594,78.5124 867.3314,78.5124 C821.0024,78.5124 663.2864,109.4364 625.1364,109.4364 C586.9844,109.4364 428.6804,61.4294 383.1664,61.4294 C337.6524,61.4294 170.9764,1.6884 140.5844,1.6884 C110.1914,1.6884 25.3664,0.8464 0.4584,0.8464 L0.4584,138.4364 L1494.0004,138.4364 L1493.7904,63.3744 Z" id="Fill-39" fill-opacity="0.25" fill="#F0A977"></path>
                <path d="M0.4583,0.8461 L140.4983,0.8461 C170.8953,0.8461 337.5963,61.4291 383.1153,61.4291 C428.6353,61.4291 586.9623,108.4361 625.1183,108.4361 C663.2743,108.4361 821.0133,78.5121 867.3483,78.5121 C913.6833,78.5121 1060.3003,48.1791 1110.0743,48.1791 C1159.8493,48.1791 1320.3783,63.3741 1353.0423,63.3741 L1493.8953,63.3741" id="Stroke-37" stroke="#F0A977" stroke-width="3"></path>
            </g>
            <g id="Usability-Baseline" transform="translate(0.000000, 336.721000)" stroke="#282828" stroke-width="5">
                <path d="M-0.0002,0.8011 L1493.5418,0.8011" id="Stroke-45"></path>
            </g>
            <g id="Usability-Premium" transform="translate(0.000000, 208.721000)">
                <path d="M1493.4427,2.307 C1493.4427,2.307 1385.2437,2.929 1352.5847,2.929 C1319.9247,2.929 1159.8737,33.742 1110.1067,33.742 C1060.3387,33.742 913.6597,51.429 867.3317,51.429 C821.0027,51.429 663.3607,78.617 625.2107,78.617 C587.0597,78.617 428.6797,34.679 383.1667,34.679 C337.6527,34.679 171.7817,34.929 141.3897,34.929 L0.4587,34.929 L0.4587,127.737 L1494.0007,127.737 L1493.4427,2.307 Z" id="Fill-48" fill-opacity="0.25" fill="#6C96CE"></path>
                <path d="M0.3534,32.9291 L141.3054,32.9291 C171.7004,32.9291 337.5964,32.6791 383.1154,32.6791 C428.6354,32.6791 587.0374,76.6171 625.1934,76.6171 C663.3494,76.6171 821.0134,46.4291 867.3484,46.4291 C913.6834,46.4291 1060.3324,31.7421 1110.1064,31.7421 C1159.8814,31.7421 1320.0054,0.9291 1352.6694,0.9291 C1385.3334,0.9291 1493.5484,0.3071 1493.5484,0.3071" id="Stroke-57" stroke="#6C95CD" stroke-width="3"></path>
            </g>
            <g id="Usability-Free" transform="translate(0.000000, 212.000000)">
                <path d="M1493.4427,2.5511 C1493.4427,2.5511 1385.2437,2.0481 1352.5847,2.0481 C1319.9247,2.0481 1159.8737,33.1161 1110.1067,33.1161 C1060.3387,33.1161 913.6597,48.4291 867.3317,48.4291 C821.0027,48.4291 663.3937,78.7411 625.2427,78.7411 C587.0917,78.7411 430.8627,62.1441 385.3497,62.1441 C339.8367,62.1441 171.3747,1.0651 140.9817,1.0651 L0.4587,1.0651 L0.4587,123.7371 L1494.0007,123.7371 L1493.4427,2.5511 Z" id="Fill-53" fill-opacity="0.25" fill="#F0A977"></path>
                <path d="M0.4583,1.0648 C25.3693,1.0648 110.6083,0.7938 141.0053,0.7938 C171.4013,0.7938 337.6213,62.1158 383.1413,62.1158 C428.6603,62.1158 587.0873,78.7418 625.2423,78.7418 C663.3983,78.7418 821.0133,48.4288 867.3483,48.4288 C913.6833,48.4288 1060.2173,33.7418 1109.9913,33.7418 C1159.7663,33.7418 1320.0053,3.0478 1352.6693,3.0478 C1385.3333,3.0478 1493.5483,2.5508 1493.5483,2.5508" id="Stroke-51" stroke="#F0A977" stroke-width="3"></path>
            </g>
            <g id="Emotion-Baseline" transform="translate(0.000000, 167.721000)" stroke="#282828" stroke-width="5">
                <path d="M-0.0002,0.0287 L1493.5418,0.0287" id="Stroke-59"></path>
            </g>
            <g id="Emotion-Premium" transform="translate(0.000000, 23.721000)">
                <path d="M1493.7904,2.5668 C1493.7904,2.5668 1385.1644,2.8168 1352.5054,2.8168 C1319.8464,2.8168 1159.7904,48.4288 1110.0224,48.4288 C1060.2564,48.4288 913.7494,65.2928 867.4214,65.2928 C821.0924,65.2928 663.2114,79.3138 625.0594,79.3138 C586.9094,79.3138 428.6804,50.1788 383.1664,50.1788 C337.6524,50.1788 171.4284,32.6788 141.0364,32.6788 C110.6444,32.6788 25.3134,33.1788 0.4064,33.1788 L0.4584,141.9638 L1494.0004,141.9638 L1493.7904,2.5668 Z" id="Fill-62" fill-opacity="0.25" fill="#6C96CE"></path>
                <path d="M0.3011,31.1791 C25.2121,31.1791 110.5551,30.6791 140.9511,30.6791 C171.3471,30.6791 337.5961,48.1791 383.1151,48.1791 C428.6351,48.1791 586.8871,77.3141 625.0431,77.3141 C663.1991,77.3141 821.1031,63.2921 867.4381,63.2921 C913.7731,63.2921 1060.2751,45.9291 1110.0491,45.9291 C1159.8231,45.9291 1319.9271,0.8171 1352.5911,0.8171 C1385.2541,0.8171 1493.8951,0.5671 1493.8951,0.5671" id="Stroke-71" stroke="#6C95CD" stroke-width="3"></path>
            </g>
            <g id="Emotion-Free" transform="translate(0.000000, 29.000000)">
                <path d="M1493.7904,0.7914 L1352.9574,0.7914 C1320.2984,0.7914 1159.7904,45.9294 1110.0224,45.9294 C1060.2564,45.9294 913.7494,75.2924 867.4214,75.2924 C818.7884,75.2924 665.8974,105.6794 625.1364,105.6794 C584.2324,105.6794 430.8784,75.4294 383.1664,75.4294 C337.6524,75.4294 170.9764,30.8574 140.5844,30.8574 L0.4064,30.8574 L0.4584,136.9644 L625.1184,136.9644 L1494.0004,136.9644 L1493.7904,0.7914 Z" id="Fill-67" fill-opacity="0.25" fill="#F0A977"></path>
                <path d="M0.3011,30.8578 L140.4981,30.8578 C170.8951,30.8578 337.5961,75.4288 383.1151,75.4288 C430.8331,75.4288 584.2111,105.9638 625.1181,105.9638 C665.8851,105.9638 818.7991,75.2928 867.4381,75.2928 C913.7731,75.2928 1060.3001,45.9288 1110.0741,45.9288 C1159.8491,45.9288 1320.3781,0.7918 1353.0421,0.7918 L1493.8951,0.7918" id="Stroke-65" stroke="#EFA876" stroke-width="3"></path>
            </g>
        </g>
        <path d="M7.926,467.4 L17.882,467.4 C20.415346,467.4 22.6763234,467.931995 24.665,468.996 C26.6536766,470.060005 28.2053278,471.592657 29.32,473.594 C30.4346722,475.595343 30.992,477.963986 30.992,480.7 C30.992,483.436014 30.4346722,485.804657 29.32,487.806 C28.2053278,489.807343 26.6536766,491.339995 24.665,492.404 C22.6763234,493.468005 20.415346,494 17.882,494 L7.926,494 L7.926,467.4 Z M17.882,489.668 C20.415346,489.668 22.3469933,488.876341 23.677,487.293 C25.0070066,485.709659 25.672,483.512014 25.672,480.7 C25.672,477.887986 25.0070066,475.690341 23.677,474.107 C22.3469933,472.523659 20.415346,471.732 17.882,471.732 L12.79,471.732 L12.79,489.668 L17.882,489.668 Z M35.26,467.4 L39.972,467.4 L39.972,472.112 L35.26,472.112 L35.26,467.4 Z M35.26,475 L39.972,475 L39.972,494 L35.26,494 L35.26,475 Z M50.776,494.38 C49.5599939,494.38 48.4516717,494.266001 47.451,494.038 C46.4503283,493.809999 45.4180053,493.455336 44.354,492.974 L44.772,488.946 C45.8360053,489.579336 46.8303287,490.054332 47.755,490.371 C48.6796713,490.687668 49.6359951,490.846 50.624,490.846 C52.549343,490.846 53.512,490.212673 53.512,488.946 C53.512,488.261997 53.2586692,487.736335 52.752,487.369 C52.2453308,487.001665 51.3333399,486.564669 50.016,486.058 C48.141324,485.373997 46.7606711,484.595004 45.874,483.721 C44.9873289,482.846996 44.544,481.662674 44.544,480.168 C44.544,478.521325 45.177327,477.185005 46.444,476.159 C47.710673,475.132995 49.4206559,474.62 51.574,474.62 C53.7273441,474.62 55.6906578,475.113995 57.464,476.102 L57.046,480.13 C56.0833285,479.47133 55.1776709,478.964668 54.329,478.61 C53.4803291,478.255332 52.587338,478.078 51.65,478.078 C50.8393293,478.078 50.2123355,478.242665 49.769,478.572 C49.3256644,478.901335 49.104,479.369997 49.104,479.978 C49.104,480.459336 49.2369987,480.851998 49.503,481.156 C49.7690013,481.460002 50.1426643,481.732332 50.624,481.973 C51.1053357,482.213668 51.9033278,482.549331 53.018,482.98 C54.8673426,483.689337 56.1973293,484.468329 57.008,485.317 C57.8186707,486.165671 58.224,487.299326 58.224,488.718 C58.224,490.516676 57.5780065,491.909995 56.286,492.898 C54.9939935,493.886005 53.1573452,494.38 50.776,494.38 Z M71.27,494.38 C69.1673228,494.38 67.3623409,493.943004 65.855,493.069 C64.3476591,492.194996 63.2140038,491.010674 62.454,489.516 C61.6939962,488.021326 61.314,486.362009 61.314,484.538 C61.314,482.688657 61.6939962,481.010341 62.454,479.503 C63.2140038,477.995659 64.3539924,476.805004 65.874,475.931 C67.3940076,475.056996 69.2433224,474.62 71.422,474.62 C73.3726764,474.62 75.0699928,475.025329 76.514,475.836 L76.134,479.636 C74.7659932,478.926663 73.3473407,478.572 71.878,478.572 C70.0793243,478.572 68.6733384,479.116661 67.66,480.206 C66.6466616,481.295339 66.14,482.739324 66.14,484.538 C66.14,486.260675 66.6593281,487.685661 67.698,488.813 C68.7366719,489.940339 70.1173247,490.504 71.84,490.504 C73.2840072,490.504 74.7279928,490.086004 76.172,489.25 L76.59,493.24 C75.9059966,493.594668 75.1016713,493.873332 74.177,494.076 C73.2523287,494.278668 72.2833384,494.38 71.27,494.38 Z M89.218,494.38 C87.2166567,494.38 85.4813407,493.936671 84.012,493.05 C82.5426593,492.163329 81.4153373,490.972674 80.63,489.478 C79.8446627,487.983326 79.452,486.336676 79.452,484.538 C79.452,482.739324 79.8446627,481.080008 80.63,479.56 C81.4153373,478.039992 82.5426593,476.836671 84.012,475.95 C85.4813407,475.063329 87.2166567,474.62 89.218,474.62 C91.2193433,474.62 92.9546593,475.063329 94.424,475.95 C95.8933407,476.836671 97.0206627,478.039992 97.806,479.56 C98.5913373,481.080008 98.984,482.739324 98.984,484.538 C98.984,486.336676 98.5913373,487.983326 97.806,489.478 C97.0206627,490.972674 95.8933407,492.163329 94.424,493.05 C92.9546593,493.936671 91.2193433,494.38 89.218,494.38 Z M89.218,490.504 C90.7633411,490.504 91.9729956,489.959339 92.847,488.87 C93.7210044,487.780661 94.158,486.336676 94.158,484.538 C94.158,482.713991 93.7210044,481.251006 92.847,480.149 C91.9729956,479.046994 90.7633411,478.496 89.218,478.496 C87.6726589,478.496 86.4630044,479.046994 85.589,480.149 C84.7149956,481.251006 84.278,482.713991 84.278,484.538 C84.278,486.336676 84.7149956,487.780661 85.589,488.87 C86.4630044,489.959339 87.6726589,490.504 89.218,490.504 Z M100.82,475 L105.456,475 L110.13,488.148 L114.804,475 L119.44,475 L112.144,494 L108.116,494 L100.82,475 Z M131.574,494.38 C129.369989,494.38 127.489008,493.930338 125.931,493.031 C124.372992,492.131662 123.207671,490.928341 122.435,489.421 C121.662329,487.913659 121.276,486.235343 121.276,484.386 C121.276,482.612658 121.64333,480.991341 122.378,479.522 C123.11267,478.052659 124.17666,476.881004 125.57,476.007 C126.96334,475.132996 128.622657,474.696 130.548,474.696 C132.321342,474.696 133.822327,475.06333 135.051,475.798 C136.279673,476.53267 137.20433,477.52066 137.825,478.762 C138.44567,480.00334 138.756,481.396659 138.756,482.942 C138.756,483.702004 138.654668,484.563329 138.452,485.526 L126.178,485.526 C126.431335,487.198008 127.089995,488.445663 128.154,489.269 C129.218005,490.092337 130.497326,490.504 131.992,490.504 C134.04401,490.504 135.943991,489.984672 137.692,488.946 L137.92,492.936 C137.109329,493.366669 136.165672,493.714999 135.089,493.981 C134.012328,494.247001 132.840673,494.38 131.574,494.38 Z M133.968,482.334 C133.968,481.345995 133.689336,480.472004 133.132,479.712 C132.574664,478.951996 131.713339,478.572 130.548,478.572 C129.382661,478.572 128.445337,478.913997 127.736,479.598 C127.026663,480.282003 126.545335,481.193994 126.292,482.334 L133.968,482.334 Z M142.986,475 L147.394,475 L147.508,477.014 C148.065336,476.380664 148.780996,475.823336 149.655,475.342 C150.529004,474.860664 151.447329,474.62 152.41,474.62 C152.714002,474.62 152.992665,474.645333 153.246,474.696 L152.904,479.332 C152.422664,479.205333 151.878003,479.142 151.27,479.142 C150.484663,479.142 149.76267,479.325665 149.104,479.693 C148.44533,480.060335 147.976668,480.509997 147.698,481.042 L147.698,494 L142.986,494 L142.986,475 Z M160.402,494.38 C158.831325,494.38 157.520339,493.867005 156.469,492.841 C155.417661,491.814995 154.892,490.428009 154.892,488.68 C154.892,487.033325 155.487327,485.709672 156.678,484.709 C157.868673,483.708328 159.274659,482.999002 160.896,482.581 C162.517341,482.162998 164.075326,481.928667 165.57,481.878 C165.519333,480.763328 165.234336,479.965336 164.715,479.484 C164.195664,479.002664 163.340673,478.762 162.15,478.762 C161.313996,478.762 160.497004,478.875999 159.699,479.104 C158.900996,479.332001 157.982672,479.699331 156.944,480.206 L156.526,476.368 C158.831345,475.253328 161.136655,474.696 163.442,474.696 C165.671344,474.696 167.374994,475.303994 168.553,476.52 C169.731006,477.736006 170.32,479.673987 170.32,482.334 L170.32,487.464 C170.32,488.426671 170.364333,489.116998 170.453,489.535 C170.541667,489.953002 170.693666,490.218999 170.909,490.333 C171.124334,490.447001 171.485331,490.504 171.992,490.504 L172.6,490.504 L172.182,494.38 L170.472,494.38 C169.433328,494.38 168.559337,494.183669 167.85,493.791 C167.140663,493.398331 166.596002,492.860003 166.216,492.176 C165.607997,492.860003 164.778339,493.398331 163.727,493.791 C162.675661,494.183669 161.567339,494.38 160.402,494.38 Z M162.378,490.77 C162.859336,490.77 163.403997,490.649668 164.012,490.409 C164.620003,490.168332 165.151998,489.832669 165.608,489.402 L165.608,485.07 C164.087992,485.146 162.745339,485.47533 161.58,486.058 C160.414661,486.64067 159.832,487.451328 159.832,488.49 C159.832,489.275337 160.034665,489.851665 160.44,490.219 C160.845335,490.586335 161.491329,490.77 162.378,490.77 Z M186.102,474.696 C187.900676,474.696 189.445994,475.139329 190.738,476.026 C192.030006,476.912671 193.00533,478.103326 193.664,479.598 C194.32267,481.092674 194.652,482.739324 194.652,484.538 C194.652,486.336676 194.32267,487.983326 193.664,489.478 C193.00533,490.972674 192.030006,492.163329 190.738,493.05 C189.445994,493.936671 187.900676,494.38 186.102,494.38 C184.100657,494.38 182.289341,493.835339 180.668,492.746 L180.592,494 L176.184,494 L176.184,465.5 L180.896,465.5 L180.896,476.406 C182.441341,475.265994 184.176657,474.696 186.102,474.696 Z M185.418,490.504 C186.81134,490.504 187.894329,489.959339 188.667,488.87 C189.439671,487.780661 189.826,486.336676 189.826,484.538 C189.826,482.739324 189.439671,481.295339 188.667,480.206 C187.894329,479.116661 186.81134,478.572 185.418,478.572 C183.821992,478.572 182.631337,479.103995 181.846,480.168 C181.060663,481.232005 180.668,482.688657 180.668,484.538 C180.668,486.387343 181.060663,487.843995 181.846,488.908 C182.631337,489.972005 183.821992,490.504 185.418,490.504 Z M198.92,467.4 L203.632,467.4 L203.632,472.112 L198.92,472.112 L198.92,467.4 Z M198.92,475 L203.632,475 L203.632,494 L198.92,494 L198.92,475 Z M213.904,494.38 C212.282659,494.38 211.066671,493.917671 210.256,492.993 C209.445329,492.068329 209.04,490.871341 209.04,489.402 L209.04,465.5 L213.752,465.5 L213.752,487.464 C213.752,488.477338 213.808999,489.192998 213.923,489.611 C214.037001,490.029002 214.239665,490.282333 214.531,490.371 C214.822335,490.459667 215.322663,490.504 216.032,490.504 L215.614,494.38 L213.904,494.38 Z M220.034,467.4 L224.746,467.4 L224.746,472.112 L220.034,472.112 L220.034,467.4 Z M220.034,475 L224.746,475 L224.746,494 L220.034,494 L220.034,475 Z M236.348,494.38 C234.675992,494.38 233.409338,493.892338 232.548,492.917 C231.686662,491.941662 231.256,490.770007 231.256,489.402 L231.256,478.876 L228.558,478.876 L228.976,475 L231.256,475 L231.256,470.82 L235.968,470.326 L235.968,475 L240.148,475 L240.148,478.876 L235.968,478.876 L235.968,487.464 C235.968,488.477338 236.024999,489.180331 236.139,489.573 C236.253001,489.965669 236.493665,490.218999 236.861,490.333 C237.228335,490.447001 237.893329,490.504 238.856,490.504 L240.148,490.504 L239.73,494.38 L236.348,494.38 Z M249.964,492.746 L242.06,475 L247.304,475 L252.168,487.236 L257.108,475 L262.352,475 L250.458,503.196 L245.746,503.196 L249.964,492.746 Z" id="Discoverability" fill="#191414"></path>
        <path d="M18.642,324.532 C14.9939818,324.532 12.2453426,323.474344 10.396,321.359 C8.54665742,319.243656 7.622,316.324019 7.622,312.6 L7.622,297.4 L12.486,297.4 L12.486,311.346 C12.486,313.195343 12.650665,314.734327 12.98,315.963 C13.309335,317.191673 13.9236622,318.147997 14.823,318.832 C15.7223378,319.516003 16.9953251,319.858 18.642,319.858 C20.2886749,319.858 21.5616622,319.516003 22.461,318.832 C23.3603378,318.147997 23.974665,317.191673 24.304,315.963 C24.633335,314.734327 24.798,313.195343 24.798,311.346 L24.798,297.4 L29.662,297.4 L29.662,312.6 C29.662,316.324019 28.7373426,319.243656 26.888,321.359 C25.0386574,323.474344 22.2900182,324.532 18.642,324.532 Z M40.352,324.38 C39.1359939,324.38 38.0276717,324.266001 37.027,324.038 C36.0263283,323.809999 34.9940053,323.455336 33.93,322.974 L34.348,318.946 C35.4120053,319.579336 36.4063287,320.054332 37.331,320.371 C38.2556713,320.687668 39.2119951,320.846 40.2,320.846 C42.125343,320.846 43.088,320.212673 43.088,318.946 C43.088,318.261997 42.8346692,317.736335 42.328,317.369 C41.8213308,317.001665 40.9093399,316.564669 39.592,316.058 C37.717324,315.373997 36.3366711,314.595004 35.45,313.721 C34.5633289,312.846996 34.12,311.662674 34.12,310.168 C34.12,308.521325 34.753327,307.185005 36.02,306.159 C37.286673,305.132995 38.9966559,304.62 41.15,304.62 C43.3033441,304.62 45.2666578,305.113995 47.04,306.102 L46.622,310.13 C45.6593285,309.47133 44.7536709,308.964668 43.905,308.61 C43.0563291,308.255332 42.163338,308.078 41.226,308.078 C40.4153293,308.078 39.7883355,308.242665 39.345,308.572 C38.9016644,308.901335 38.68,309.369997 38.68,309.978 C38.68,310.459336 38.8129987,310.851998 39.079,311.156 C39.3450013,311.460002 39.7186643,311.732332 40.2,311.973 C40.6813357,312.213668 41.4793278,312.549331 42.594,312.98 C44.4433426,313.689337 45.7733293,314.468329 46.584,315.317 C47.3946707,316.165671 47.8,317.299326 47.8,318.718 C47.8,320.516676 47.1540065,321.909995 45.862,322.898 C44.5699935,323.886005 42.7333452,324.38 40.352,324.38 Z M56.134,324.38 C54.5633255,324.38 53.2523386,323.867005 52.201,322.841 C51.1496614,321.814995 50.624,320.428009 50.624,318.68 C50.624,317.033325 51.2193274,315.709672 52.41,314.709 C53.6006726,313.708328 55.0066586,312.999002 56.628,312.581 C58.2493414,312.162998 59.8073259,311.928667 61.302,311.878 C61.2513331,310.763328 60.9663359,309.965336 60.447,309.484 C59.9276641,309.002664 59.0726726,308.762 57.882,308.762 C57.0459958,308.762 56.229004,308.875999 55.431,309.104 C54.632996,309.332001 53.7146719,309.699331 52.676,310.206 L52.258,306.368 C54.5633449,305.253328 56.8686551,304.696 59.174,304.696 C61.4033445,304.696 63.1069941,305.303994 64.285,306.52 C65.4630059,307.736006 66.052,309.673987 66.052,312.334 L66.052,317.464 C66.052,318.426671 66.0963329,319.116998 66.185,319.535 C66.2736671,319.953002 66.4256656,320.218999 66.641,320.333 C66.8563344,320.447001 67.2173308,320.504 67.724,320.504 L68.332,320.504 L67.914,324.38 L66.204,324.38 C65.1653281,324.38 64.2913369,324.183669 63.582,323.791 C62.8726631,323.398331 62.3280019,322.860003 61.948,322.176 C61.339997,322.860003 60.5103386,323.398331 59.459,323.791 C58.4076614,324.183669 57.2993392,324.38 56.134,324.38 Z M58.11,320.77 C58.5913357,320.77 59.135997,320.649668 59.744,320.409 C60.352003,320.168332 60.8839977,319.832669 61.34,319.402 L61.34,315.07 C59.8199924,315.146 58.4773392,315.47533 57.312,316.058 C56.1466608,316.64067 55.564,317.451328 55.564,318.49 C55.564,319.275337 55.7666646,319.851665 56.172,320.219 C56.5773354,320.586335 57.2233289,320.77 58.11,320.77 Z M81.834,304.696 C83.6326757,304.696 85.1779935,305.139329 86.47,306.026 C87.7620065,306.912671 88.73733,308.103326 89.396,309.598 C90.05467,311.092674 90.384,312.739324 90.384,314.538 C90.384,316.336676 90.05467,317.983326 89.396,319.478 C88.73733,320.972674 87.7620065,322.163329 86.47,323.05 C85.1779935,323.936671 83.6326757,324.38 81.834,324.38 C79.8326567,324.38 78.0213414,323.835339 76.4,322.746 L76.324,324 L71.916,324 L71.916,295.5 L76.628,295.5 L76.628,306.406 C78.1733411,305.265994 79.908657,304.696 81.834,304.696 Z M81.15,320.504 C82.5433403,320.504 83.6263295,319.959339 84.399,318.87 C85.1716705,317.780661 85.558,316.336676 85.558,314.538 C85.558,312.739324 85.1716705,311.295339 84.399,310.206 C83.6263295,309.116661 82.5433403,308.572 81.15,308.572 C79.553992,308.572 78.3633373,309.103995 77.578,310.168 C76.7926627,311.232005 76.4,312.688657 76.4,314.538 C76.4,316.387343 76.7926627,317.843995 77.578,318.908 C78.3633373,319.972005 79.553992,320.504 81.15,320.504 Z M94.652,297.4 L99.364,297.4 L99.364,302.112 L94.652,302.112 L94.652,297.4 Z M94.652,305 L99.364,305 L99.364,324 L94.652,324 L94.652,305 Z M109.636,324.38 C108.014659,324.38 106.798671,323.917671 105.988,322.993 C105.177329,322.068329 104.772,320.871341 104.772,319.402 L104.772,295.5 L109.484,295.5 L109.484,317.464 C109.484,318.477338 109.540999,319.192998 109.655,319.611 C109.769001,320.029002 109.971665,320.282333 110.263,320.371 C110.554335,320.459667 111.054663,320.504 111.764,320.504 L111.346,324.38 L109.636,324.38 Z M115.766,297.4 L120.478,297.4 L120.478,302.112 L115.766,302.112 L115.766,297.4 Z M115.766,305 L120.478,305 L120.478,324 L115.766,324 L115.766,305 Z M132.08,324.38 C130.407992,324.38 129.141338,323.892338 128.28,322.917 C127.418662,321.941662 126.988,320.770007 126.988,319.402 L126.988,308.876 L124.29,308.876 L124.708,305 L126.988,305 L126.988,300.82 L131.7,300.326 L131.7,305 L135.88,305 L135.88,308.876 L131.7,308.876 L131.7,317.464 C131.7,318.477338 131.756999,319.180331 131.871,319.573 C131.985001,319.965669 132.225665,320.218999 132.593,320.333 C132.960335,320.447001 133.625329,320.504 134.588,320.504 L135.88,320.504 L135.462,324.38 L132.08,324.38 Z M145.696,322.746 L137.792,305 L143.036,305 L147.9,317.236 L152.84,305 L158.084,305 L146.19,333.196 L141.478,333.196 L145.696,322.746 Z" id="Usability" fill="#191414"></path>
        <path d="M7.926,127.4 L24.95,127.4 L24.95,132.112 L12.904,132.112 L12.904,137.774 L22.252,137.774 L22.252,142.486 L12.904,142.486 L12.904,149.288 L25.33,149.288 L25.33,154 L7.926,154 L7.926,127.4 Z M50.916,134.696 C53.449346,134.696 55.3303272,135.462326 56.559,136.995 C57.7876728,138.527674 58.402,140.674653 58.402,143.436 L58.402,154 L53.69,154 L53.69,143.778 C53.69,141.979324 53.4113361,140.662004 52.854,139.826 C52.2966639,138.989996 51.384673,138.572 50.118,138.572 C48.8766605,138.572 47.9393365,138.996329 47.306,139.845 C46.6726635,140.693671 46.356,141.890659 46.356,143.436 L46.356,154 L41.644,154 L41.644,143.778 C41.644,141.979324 41.3526696,140.662004 40.77,139.826 C40.1873304,138.989996 39.262673,138.572 37.996,138.572 C36.5013259,138.572 35.2726715,139.116661 34.31,140.206 L34.31,154 L29.598,154 L29.598,135 L33.626,135 L33.778,136.52 C35.5006753,135.303994 37.3626567,134.696 39.364,134.696 C41.7960122,134.696 43.6073274,135.569991 44.798,137.318 C45.45667,136.481996 46.3179947,135.836002 47.382,135.38 C48.4460053,134.923998 49.6239935,134.696 50.916,134.696 Z M72.246,154.38 C70.2446567,154.38 68.5093407,153.936671 67.04,153.05 C65.5706593,152.163329 64.4433373,150.972674 63.658,149.478 C62.8726627,147.983326 62.48,146.336676 62.48,144.538 C62.48,142.739324 62.8726627,141.080008 63.658,139.56 C64.4433373,138.039992 65.5706593,136.836671 67.04,135.95 C68.5093407,135.063329 70.2446567,134.62 72.246,134.62 C74.2473433,134.62 75.9826593,135.063329 77.452,135.95 C78.9213407,136.836671 80.0486627,138.039992 80.834,139.56 C81.6193373,141.080008 82.012,142.739324 82.012,144.538 C82.012,146.336676 81.6193373,147.983326 80.834,149.478 C80.0486627,150.972674 78.9213407,152.163329 77.452,153.05 C75.9826593,153.936671 74.2473433,154.38 72.246,154.38 Z M72.246,150.504 C73.7913411,150.504 75.0009956,149.959339 75.875,148.87 C76.7490044,147.780661 77.186,146.336676 77.186,144.538 C77.186,142.713991 76.7490044,141.251006 75.875,140.149 C75.0009956,139.046994 73.7913411,138.496 72.246,138.496 C70.7006589,138.496 69.4910044,139.046994 68.617,140.149 C67.7429956,141.251006 67.306,142.713991 67.306,144.538 C67.306,146.336676 67.7429956,147.780661 68.617,148.87 C69.4910044,149.959339 70.7006589,150.504 72.246,150.504 Z M92.246,154.38 C90.5739916,154.38 89.3073376,153.892338 88.446,152.917 C87.5846624,151.941662 87.154,150.770007 87.154,149.402 L87.154,138.876 L84.456,138.876 L84.874,135 L87.154,135 L87.154,130.82 L91.866,130.326 L91.866,135 L96.046,135 L96.046,138.876 L91.866,138.876 L91.866,147.464 C91.866,148.477338 91.9229994,149.180331 92.037,149.573 C92.1510006,149.965669 92.3916648,150.218999 92.759,150.333 C93.1263352,150.447001 93.7913285,150.504 94.754,150.504 L96.046,150.504 L95.628,154.38 L92.246,154.38 Z M100.124,127.4 L104.836,127.4 L104.836,132.112 L100.124,132.112 L100.124,127.4 Z M100.124,135 L104.836,135 L104.836,154 L100.124,154 L100.124,135 Z M118.87,154.38 C116.868657,154.38 115.133341,153.936671 113.664,153.05 C112.194659,152.163329 111.067337,150.972674 110.282,149.478 C109.496663,147.983326 109.104,146.336676 109.104,144.538 C109.104,142.739324 109.496663,141.080008 110.282,139.56 C111.067337,138.039992 112.194659,136.836671 113.664,135.95 C115.133341,135.063329 116.868657,134.62 118.87,134.62 C120.871343,134.62 122.606659,135.063329 124.076,135.95 C125.545341,136.836671 126.672663,138.039992 127.458,139.56 C128.243337,141.080008 128.636,142.739324 128.636,144.538 C128.636,146.336676 128.243337,147.983326 127.458,149.478 C126.672663,150.972674 125.545341,152.163329 124.076,153.05 C122.606659,153.936671 120.871343,154.38 118.87,154.38 Z M118.87,150.504 C120.415341,150.504 121.624996,149.959339 122.499,148.87 C123.373004,147.780661 123.81,146.336676 123.81,144.538 C123.81,142.713991 123.373004,141.251006 122.499,140.149 C121.624996,139.046994 120.415341,138.496 118.87,138.496 C117.324659,138.496 116.115004,139.046994 115.241,140.149 C114.366996,141.251006 113.93,142.713991 113.93,144.538 C113.93,146.336676 114.366996,147.780661 115.241,148.87 C116.115004,149.959339 117.324659,150.504 118.87,150.504 Z M142.48,134.696 C144.836012,134.696 146.621994,135.481325 147.838,137.052 C149.054006,138.622675 149.662,140.737987 149.662,143.398 L149.662,154 L144.95,154 L144.95,143.778 C144.95,142.004658 144.652336,140.693671 144.057,139.845 C143.461664,138.996329 142.50534,138.572 141.188,138.572 C139.743993,138.572 138.553338,139.116661 137.616,140.206 L137.616,154 L132.904,154 L132.904,135 L137.312,135 L137.388,136.33 C138.984008,135.240661 140.681324,134.696 142.48,134.696 Z" id="Emotion" fill="#191414"></path>
    </g>
</svg>