<?xml version="1.0" encoding="UTF-8"?>
<svg width="831px" height="1921px" viewBox="0 0 831 1921" version="1.1" xmlns="http://www.w3.org/2000/svg" xmlns:xlink="http://www.w3.org/1999/xlink">
    <!-- Generator: Sketch 49.3 (51167) - http://www.bohemiancoding.com/sketch -->
    <title>left_column</title>
    <desc>Created with Sketch.</desc>
    <defs>
        <rect id="path-1" x="0" y="0" width="831" height="1921"></rect>
        <filter x="-0.6%" y="-0.4%" width="101.7%" height="100.7%" filterUnits="objectBoundingBox" id="filter-3">
            <feOffset dx="2" dy="0" in="SourceAlpha" result="shadowOffsetOuter1"></feOffset>
            <feGaussianBlur stdDeviation="2" in="shadowOffsetOuter1" result="shadowBlurOuter1"></feGaussianBlur>
            <feColorMatrix values="0 0 0 0 0   0 0 0 0 0   0 0 0 0 0  0 0 0 0.5 0" type="matrix" in="shadowBlurOuter1"></feColorMatrix>
        </filter>
    </defs>
    <g id="left_column" stroke="none" stroke-width="1" fill="none" fill-rule="evenodd">
        <g id="Left-Edge">
            <mask id="mask-2" fill="white">
                <use xlink:href="#path-1"></use>
            </mask>
            <g id="Mask">
                <use fill="black" fill-opacity="1" filter="url(#filter-3)" xlink:href="#path-1"></use>
                <use fill="#121212" fill-rule="evenodd" xlink:href="#path-1"></use>
            </g>
            <g id="Spotify-Logo" mask="url(#mask-2)" fill="#1DB954" fill-rule="nonzero" opacity="0.15">
                <g transform="translate(-490.000000, 81.000000)" id="Shape">
                    <path d="M763,0 C341.613661,0 0,341.608454 0,762.989587 C0,1184.37072 341.613661,1526 763,1526 C1184.38634,1526 1526,1184.42278 1526,762.989587 C1526,341.55639 1184.42278,0.0364448994 762.989587,0.0364448994 L763,0 Z M1112.90748,1100.45374 C1106.33893,1111.22495 1095.75749,1118.94274 1083.49454,1121.90667 C1071.2316,1124.8706 1058.29338,1122.83746 1047.53054,1116.2552 C868.356998,1006.74869 642.83596,982.013019 377.24636,1042.68336 C360.545794,1046.85439 342.895101,1041.67178 331.100587,1029.13401 C319.306072,1016.59623 315.210446,998.662126 320.393027,982.247277 C325.575608,965.832429 339.226699,953.501407 356.082286,950.009191 C646.714739,883.559727 896.023883,912.163767 1097.13725,1035.03514 C1107.90757,1041.61553 1115.62021,1052.20754 1118.57625,1064.47796 C1121.53228,1076.74837 1119.4892,1089.6906 1112.89707,1100.45374 L1112.90748,1100.45374 Z M1206.29493,892.71781 C1189.04087,920.712699 1152.42937,929.495919 1124.47092,912.30434 C919.421508,786.262259 606.750304,749.749676 364.167847,823.389198 C343.768452,829.78539 321.505647,824.742586 305.853612,810.180293 C290.201577,795.617999 283.568053,773.776325 288.478046,752.969149 C293.388039,732.161973 309.086247,715.59005 329.597257,709.561365 C606.69824,625.482982 951.175428,666.21276 1186.69799,810.940662 C1214.67205,828.16348 1223.50734,864.790604 1206.28972,892.723016 L1206.29493,892.71781 Z M1214.31281,676.380887 C968.39304,530.32535 562.678008,516.898008 327.894759,588.158199 C303.430104,595.781983 276.756035,589.703868 258.009438,572.233705 C239.262842,554.763541 231.321924,528.583563 237.204454,503.642887 C243.086985,478.702211 261.889805,458.830034 286.467322,451.578335 C555.982559,369.759536 1004.02574,385.566209 1287.14013,553.624053 C1321.02794,573.74232 1332.19094,617.522537 1312.07365,651.410925 C1292.02895,685.325507 1248.11285,696.503678 1214.31281,676.370474 L1214.31281,676.380887 Z"></path>
                </g>
            </g>
        </g>
        <g id="FREE-VS-PREMIUM" transform="translate(110.000000, 366.000000)">
            <g id="Group-3" fill="#F0A977" letter-spacing="1">
                <text id="FREE-ACCOUNT" font-family="Cabin-Medium, Cabin" font-size="28" font-weight="400">
                    <tspan x="0" y="27">FREE ACCOUN</tspan>
                    <tspan x="192.58" y="27">T</tspan>
                </text>
                <text id="86-million-listeners" font-family="Cabin-Regular, Cabin" font-size="24" font-weight="normal">
                    <tspan x="0" y="63">86 million listener</tspan>
                    <tspan x="201.4" y="63">s</tspan>
                </text>
            </g>
            <g id="Group-2" transform="translate(327.000000, 0.000000)" fill="#6C96CE" letter-spacing="1">
                <text id="PREMIUM-ACCOUNT" font-family="Cabin-Medium, Cabin" font-size="28" font-weight="400">
                    <tspan x="0" y="27">PREMIUM ACCOUN</tspan>
                    <tspan x="254.772" y="27">T</tspan>
                </text>
                <text id="71-million-listeners" font-family="Cabin-Regular, Cabin" font-size="24" font-weight="normal">
                    <tspan x="0" y="63">71 million listener</tspan>
                    <tspan x="193.12" y="63">s</tspan>
                </text>
            </g>
            <path d="M277,1 L277,68" id="Line" stroke="#FFFFFF" stroke-width="2" stroke-linecap="square"></path>
        </g>
        <path d="M109.608,318.076 C112.482681,318.076 114.524327,317.45534 115.733,316.214 C116.941673,314.97266 117.546,312.784016 117.546,309.648 L117.546,243.4 L130.09,243.4 L130.09,312.392 C130.09,318.141362 128.718014,322.322654 125.974,324.936 C123.229986,327.549346 119.310025,328.856 114.214,328.856 L110.686,328.856 L109.608,318.076 Z M167.194,312.98 C162.032641,312.98 157.557352,311.836678 153.768,309.55 C149.978648,307.263322 147.071343,304.192686 145.046,300.338 C143.020657,296.483314 142.008,292.23669 142.008,287.598 C142.008,282.95931 143.020657,278.68002 145.046,274.76 C147.071343,270.83998 149.978648,267.736678 153.768,265.45 C157.557352,263.163322 162.032641,262.02 167.194,262.02 C172.355359,262.02 176.830648,263.163322 180.62,265.45 C184.409352,267.736678 187.316657,270.83998 189.342,274.76 C191.367343,278.68002 192.38,282.95931 192.38,287.598 C192.38,292.23669 191.367343,296.483314 189.342,300.338 C187.316657,304.192686 184.409352,307.263322 180.62,309.55 C176.830648,311.836678 172.355359,312.98 167.194,312.98 Z M167.194,302.984 C171.179353,302.984 174.298989,301.579347 176.553,298.77 C178.807011,295.960653 179.934,292.23669 179.934,287.598 C179.934,282.893976 178.807011,279.121014 176.553,276.279 C174.298989,273.436986 171.179353,272.016 167.194,272.016 C163.208647,272.016 160.089011,273.436986 157.835,276.279 C155.580989,279.121014 154.454,282.893976 154.454,287.598 C154.454,292.23669 155.580989,295.960653 157.835,298.77 C160.089011,301.579347 163.208647,302.984 167.194,302.984 Z M246.536,263 L246.536,312 L235.168,312 L234.972,309.06 C233.469326,310.170672 231.73801,311.101663 229.778,311.853 C227.81799,312.604337 225.923342,312.98 224.094,312.98 C216.841964,312.98 211.56635,310.889354 208.267,306.708 C204.96765,302.526646 203.318,296.744704 203.318,289.362 L203.318,263 L215.47,263 L215.47,289.362 C215.47,293.935356 216.237659,297.316322 217.773,299.505 C219.308341,301.693678 221.77465,302.788 225.172,302.788 C228.961352,302.788 232.031988,301.416014 234.384,298.672 L234.384,263 L246.536,263 Z M260.904,263 L272.272,263 L272.566,268.194 C274.003341,266.560658 275.848989,265.12334 278.103,263.882 C280.357011,262.64066 282.725321,262.02 285.208,262.02 C285.992004,262.02 286.710663,262.085333 287.364,262.216 L286.482,274.172 C285.24066,273.845332 283.836008,273.682 282.268,273.682 C280.242657,273.682 278.380675,274.155662 276.682,275.103 C274.983325,276.050338 273.77467,277.209993 273.056,278.582 L273.056,312 L260.904,312 L260.904,263 Z M320.94,262.216 C327.01603,262.216 331.621984,264.241313 334.758,268.292 C337.894016,272.342687 339.462,277.797966 339.462,284.658 L339.462,312 L327.31,312 L327.31,285.638 C327.31,281.064644 326.542341,277.683678 325.007,275.495 C323.471659,273.306322 321.00535,272.212 317.608,272.212 C313.883981,272.212 310.813345,273.616653 308.396,276.426 L308.396,312 L296.244,312 L296.244,263 L307.612,263 L307.808,266.43 C311.924021,263.620653 316.30131,262.216 320.94,262.216 Z M376.958,312.98 C371.273972,312.98 366.42302,311.820345 362.405,309.501 C358.38698,307.181655 355.381677,304.078353 353.389,300.191 C351.396323,296.303647 350.4,291.975357 350.4,287.206 C350.4,282.632644 351.347324,278.451352 353.242,274.662 C355.136676,270.872648 357.880649,267.851011 361.474,265.597 C365.067351,263.342989 369.346642,262.216 374.312,262.216 C378.885356,262.216 382.756317,263.163324 385.925,265.058 C389.093683,266.952676 391.478325,269.500651 393.079,272.702 C394.679675,275.903349 395.48,279.496647 395.48,283.482 C395.48,285.44201 395.218669,287.663321 394.696,290.146 L363.042,290.146 C363.695337,294.458022 365.393986,297.675656 368.138,299.799 C370.882014,301.922344 374.181314,302.984 378.036,302.984 C383.328026,302.984 388.227977,301.64468 392.736,298.966 L393.324,309.256 C391.233323,310.366672 388.799681,311.264997 386.023,311.951 C383.246319,312.637003 380.224683,312.98 376.958,312.98 Z M383.132,281.914 C383.132,279.365987 382.413341,277.11201 380.976,275.152 C379.538659,273.19199 377.317348,272.212 374.312,272.212 C371.306652,272.212 368.889342,273.093991 367.06,274.858 C365.230658,276.622009 363.989337,278.973985 363.336,281.914 L383.132,281.914 Z M420.922,308.766 L400.538,263 L414.062,263 L426.606,294.556 L439.346,263 L452.87,263 L422.196,335.716 L410.044,335.716 L420.922,308.766 Z M545.404,312 L539.524,266.038 L521.982,297.594 L504.342,266.136 L498.462,312 L485.428,312 L494.934,243.4 L505.224,243.4 L521.982,274.662 L538.642,243.4 L548.932,243.4 L558.438,312 L545.404,312 Z M581.43,312.98 C577.379313,312.98 573.998347,311.657013 571.287,309.011 C568.575653,306.364987 567.22,302.788023 567.22,298.28 C567.22,294.033312 568.755318,290.61968 571.826,288.039 C574.896682,285.45832 578.522646,283.629005 582.704,282.551 C586.885354,281.472995 590.903314,280.868667 594.758,280.738 C594.627333,277.863319 593.89234,275.80534 592.553,274.564 C591.21366,273.32266 589.008682,272.702 585.938,272.702 C583.781989,272.702 581.67501,272.995997 579.617,273.584 C577.55899,274.172003 575.19068,275.119327 572.512,276.426 L571.434,266.528 C577.379363,263.653319 583.324637,262.216 589.27,262.216 C595.019362,262.216 599.412985,263.783984 602.451,266.92 C605.489015,270.056016 607.008,275.053966 607.008,281.914 L607.008,295.144 C607.008,297.626679 607.122332,299.406995 607.351,300.485 C607.579668,301.563005 607.971664,302.248999 608.527,302.543 C609.082336,302.837001 610.013327,302.984 611.32,302.984 L612.888,302.984 L611.81,312.98 L607.4,312.98 C604.72132,312.98 602.467342,312.473672 600.638,311.461 C598.808658,310.448328 597.404005,309.060009 596.424,307.296 C594.855992,309.060009 592.716347,310.448328 590.005,311.461 C587.293653,312.473672 584.435348,312.98 581.43,312.98 Z M586.526,303.67 C587.76734,303.67 589.171992,303.35967 590.74,302.739 C592.308008,302.11833 593.679994,301.252672 594.856,300.142 L594.856,288.97 C590.93598,289.166001 587.473348,290.015326 584.468,291.518 C581.462652,293.020674 579.96,295.11132 579.96,297.79 C579.96,299.815343 580.482661,301.301662 581.528,302.249 C582.573339,303.196338 584.239322,303.67 586.526,303.67 Z M648.228,262.216 C652.86669,262.216 656.851983,263.359322 660.184,265.646 C663.516017,267.932678 666.031325,271.003314 667.73,274.858 C669.428675,278.712686 670.278,282.95931 670.278,287.598 C670.278,292.23669 669.428675,296.483314 667.73,300.338 C666.031325,304.192686 663.516017,307.263322 660.184,309.55 C656.851983,311.836678 652.86669,312.98 648.228,312.98 C645.287985,312.98 642.78901,312.66967 640.731,312.049 C638.67299,311.42833 636.696676,310.432007 634.802,309.06 L634.802,335.716 L622.65,335.716 L622.65,263 L632.45,263 L633.724,267.508 C635.814677,265.743991 638.003322,264.421004 640.29,263.539 C642.576678,262.656996 645.222652,262.216 648.228,262.216 Z M646.366,302.984 C649.959351,302.984 652.768657,301.579347 654.794,298.77 C656.819343,295.960653 657.832,292.23669 657.832,287.598 C657.832,282.95931 656.819343,279.235347 654.794,276.426 C652.768657,273.616653 649.959351,272.212 646.366,272.212 C642.315313,272.212 639.277343,273.583986 637.252,276.328 C635.226657,279.072014 634.214,282.828643 634.214,287.598 C634.214,292.367357 635.226657,296.123986 637.252,298.868 C639.277343,301.612014 642.315313,302.984 646.366,302.984 Z" id="Journey-Map" fill="#FFFFFF"></path>
        <g id="spotify-1" transform="translate(33.000000, 131.000000)" fill="#2EBD59" fill-rule="nonzero">
            <path d="M29.3586417,32.5699011 C17.2591128,29.6751655 15.1051515,27.6435255 15.1051515,23.3743902 C15.1051515,19.3412857 18.8900409,16.6270753 24.5184572,16.6270753 C29.9744896,16.6270753 35.3844733,18.6881232 41.056404,22.9311608 C41.2279749,23.0596345 41.4430602,23.1107745 41.6547504,23.0772408 C41.8664885,23.0453383 42.053935,22.9286182 42.1777836,22.7531782 L48.085696,14.3980713 C48.3283723,14.0538597 48.26224,13.5795433 47.9350693,13.3167432 C41.1845083,7.88242161 33.5828828,5.24036372 24.6976312,5.24036372 C11.6332787,5.24036372 2.50783728,13.1059945 2.50783728,24.3600587 C2.50783728,36.4284292 10.3797301,40.7016902 23.9829913,44.0002208 C35.5611608,46.6758123 37.5151472,48.9174334 37.5151472,52.9245361 C37.5151472,57.3648418 33.56366,60.1252509 27.2047283,60.1252509 C20.1420593,60.1252509 14.3814262,57.7384613 7.93709164,52.1395418 C7.77728392,52.0009936 7.55799063,51.9381 7.35552927,51.9498536 C7.14211759,51.96746 6.94711583,52.0665258 6.81159965,52.2302601 L0.187373772,60.139547 C-0.0904487384,60.4677834 -0.0553025172,60.958075 0.26608218,61.2418877 C7.76389488,67.957348 16.9855461,71.5044306 26.9369954,71.5044306 C41.0146589,71.5044306 50.1116963,63.7873744 50.1116963,51.843256 C50.1368008,41.7603748 44.1201503,36.1774305 29.3838418,32.5808391 L29.3586417,32.5699011 Z M81.9607238,20.5980538 C75.8587182,20.5980538 70.853705,23.0092141 66.7265345,27.9498858 L66.7265345,22.3887697 C66.7265345,21.949714 66.371725,21.5920697 65.9349077,21.5920697 L55.1006905,21.5920697 C54.6630603,21.5920697 54.3090637,21.949714 54.3090637,22.3887697 L54.3090637,84.1805324 C54.3090637,84.6195881 54.6630124,84.9772323 55.1006905,84.9772323 L65.9349077,84.9772323 C66.371725,84.9772323 66.7265345,84.619636 66.7265345,84.1805324 L66.7265345,64.6755123 C70.8545657,69.3232084 75.8603918,71.5941894 81.9607238,71.5941894 C93.2987035,71.5941894 104.776503,62.8378302 104.776503,46.099072 C104.793239,29.3561401 93.3121404,20.5972382 81.9732999,20.5972382 L81.9607238,20.5980538 Z M92.1782324,46.099072 C92.1782324,54.6229505 86.9447927,60.5710709 79.4510923,60.5710709 C72.0428427,60.5710709 66.4545936,54.3525705 66.4545936,46.099072 C66.4545936,37.846437 72.0428427,31.6271211 79.4510923,31.6271211 C86.8234785,31.6262576 92.1790931,37.711247 92.1790931,46.0982085 L92.1782324,46.099072 Z M134.194655,20.5980538 C119.593098,20.5980538 108.15384,31.8781197 108.15384,46.2812283 C108.15384,60.5273668 119.514437,71.6890335 134.015577,71.6890335 C148.669017,71.6890335 160.143373,60.4467709 160.143373,46.099024 C160.143373,31.800834 148.745956,20.5997329 134.193794,20.5997329 L134.194655,20.5980538 Z M134.194655,60.6558405 C126.428153,60.6558405 120.572984,54.3953631 120.572984,46.0948503 C120.572984,37.7590289 126.225692,31.7101637 134.015529,31.7101637 C141.83224,31.7101637 147.726715,37.9705931 147.726715,46.2770066 C147.726715,54.611149 142.036423,60.6558405 134.19542,60.6558405 L134.194655,60.6558405 Z M191.323857,21.5921177 L179.401781,21.5921177 L179.401781,9.36337102 C179.401781,8.92513089 179.048645,8.56748665 178.611015,8.56748665 L167.778471,8.56748665 C167.339981,8.56748665 166.984358,8.92513089 166.984358,9.36337102 L166.984358,21.5921177 L161.775162,21.5921177 C161.339206,21.5921177 160.986022,21.949714 160.986022,22.3888176 L160.986022,31.7303606 C160.986022,32.1686007 161.339206,32.5270605 161.775162,32.5270605 L166.984358,32.5270605 L166.984358,56.6982466 C166.984358,66.4662762 171.830329,71.4187495 181.387566,71.4187495 C185.273782,71.4187495 188.497958,70.6136061 191.536456,68.8850163 C191.783293,68.7464681 191.936406,68.4795422 191.936406,68.1957775 L191.936406,59.3000066 C191.936406,59.0254528 191.7941,58.7660588 191.559839,58.6225214 C191.323857,58.4738987 191.030159,58.4663668 190.788296,58.5863971 C188.701232,59.6400444 186.683743,60.1261144 184.428504,60.1261144 C180.952423,60.1261144 179.401781,58.542741 179.401781,54.9940274 L179.401781,32.5313302 L191.323857,32.5313302 C191.761488,32.5313302 192.113811,32.173686 192.113811,31.7346303 L192.113811,22.3939029 C192.130547,21.9548472 191.779085,21.5972029 191.335621,21.5972029 L191.323857,21.5921177 Z M232.863344,21.6399475 L232.863344,20.1379856 C232.863344,15.7194601 234.551988,13.7490825 238.33946,13.7490825 C240.597999,13.7490825 242.412261,14.1990762 244.444,14.879104 C244.694231,14.9580688 244.95527,14.9185864 245.158639,14.7682847 C245.367843,14.617983 245.485858,14.3770588 245.485858,14.1218385 L245.485858,4.96245184 C245.485858,4.61233947 245.261592,4.30257302 244.925144,4.19928555 C242.77869,3.55869217 240.032312,2.90135596 235.920252,2.90135596 C225.913573,2.90135596 220.624091,8.55482158 220.624091,19.2446666 L220.624091,21.5450075 L215.419103,21.5450075 C214.982285,21.5450075 214.624129,21.9026517 214.624129,22.3408919 L214.624129,31.7303126 C214.624129,32.1685528 214.982285,32.5270126 215.419103,32.5270126 L220.624091,32.5270126 L220.624091,69.8100939 C220.624091,70.2491496 220.977226,70.6067939 221.414092,70.6067939 L232.248309,70.6067939 C232.685939,70.6067939 233.042422,70.2491496 233.042422,69.8100939 L233.042422,32.5296032 L243.157839,32.5296032 L258.653115,69.8034736 C256.89413,73.7199059 255.164362,74.4989995 252.802967,74.4989995 C250.894168,74.4989995 248.884139,73.9272484 246.828874,72.798906 C246.635594,72.6922604 246.406306,72.674654 246.197963,72.7393226 C245.991246,72.8123387 245.817237,72.9668141 245.729347,73.1683038 L242.057404,81.2505361 C241.882486,81.632551 242.032299,82.0809136 242.398824,82.2789972 C246.232249,84.3618731 249.69255,85.2509225 253.969486,85.2509225 C261.969388,85.2509225 266.391165,81.5124727 270.289048,71.4547777 L289.084674,22.727944 C289.17921,22.4827982 289.150806,22.2057498 289.000992,21.9883328 C288.852135,21.772547 288.611897,21.6424422 288.34909,21.6424422 L277.0705,21.6424422 C276.732522,21.6424422 276.430265,21.8581801 276.319901,22.1763899 L264.766071,55.2861395 L252.110945,22.1545619 C251.995512,21.8464265 251.69928,21.6423942 251.371248,21.6423942 L232.860857,21.6423942 L232.863344,21.6399475 Z M208.779814,21.5921177 L197.945597,21.5921177 C197.507919,21.5921177 197.151484,21.949714 197.151484,22.3888176 L197.151484,69.8101419 C197.151484,70.2491976 197.507919,70.6068418 197.945597,70.6068418 L208.779814,70.6068418 C209.216631,70.6068418 209.573927,70.2491976 209.573927,69.8101419 L209.573927,22.3921278 C209.5744,22.1805269 209.490761,21.9774694 209.341537,21.8279302 C209.192312,21.6783909 208.989819,21.5947122 208.778905,21.5954279 L208.779814,21.5921177 Z M203.424199,4.26325641e-14 C199.1322,4.26325641e-14 195.649377,3.48572411 195.649377,7.79175124 C195.649377,12.100273 199.133061,15.5902668 203.424247,15.5902668 C207.714621,15.5902668 211.194001,12.100273 211.194001,7.79175124 C211.194001,3.48658764 207.712899,5.35405302e-14 203.428455,5.35405302e-14 L203.424199,5.35405302e-14 Z M298.335589,36.8389405 C294.04775,36.8389405 290.711442,33.3842074 290.711442,29.1890476 C290.711442,24.9938878 294.091313,21.4997203 298.375757,21.4997203 C302.663691,21.4997203 306,24.9535898 306,29.1453915 C306,33.3405993 302.61922,36.8389405 298.334824,36.8389405 L298.335589,36.8389405 Z M298.37743,22.260344 C294.472039,22.260344 291.517223,25.3750392 291.517223,29.1890476 C291.517223,33.0014249 294.451095,36.0741431 298.338124,36.0741431 C302.242654,36.0741431 305.200866,32.9619905 305.200866,29.1453915 C305.200866,25.3330621 302.263598,22.260344 298.380825,22.260344 L298.37743,22.260344 Z M300.067892,29.9320169 L302.224387,32.961127 L300.406013,32.961127 L298.464507,30.182248 L296.795181,30.182248 L296.795181,32.961127 L295.273039,32.961127 L295.273039,24.9317618 L298.84203,24.9317618 C300.701432,24.9317618 301.924043,25.8862953 301.924043,27.4932238 C301.932363,28.8096233 301.170909,29.613903 300.074634,29.9320649 L300.067892,29.9320649 L300.067892,29.9320169 Z M298.779197,26.3094717 L296.794177,26.3094717 L296.794177,28.8491056 L298.779197,28.8491056 C299.769938,28.8491056 300.361494,28.3629877 300.361494,27.5780414 C300.361494,26.7519335 299.767403,26.3095197 298.779962,26.3095197 L298.779197,26.3095197 L298.779197,26.3094717 Z" id="Shape"></path>
        </g>
    </g>
</svg>