<?xml version="1.0" encoding="UTF-8"?>
<svg width="831px" height="1921px" viewBox="0 0 831 1921" version="1.1" xmlns="http://www.w3.org/2000/svg" xmlns:xlink="http://www.w3.org/1999/xlink">
    <!-- Generator: Sketch 49.3 (51167) - http://www.bohemiancoding.com/sketch -->
    <title>left_column</title>
    <desc>Created with Sketch.</desc>
    <defs>
        <rect id="path-1" x="0" y="0" width="831" height="1921"></rect>
        <filter x="-0.6%" y="-0.4%" width="101.7%" height="100.7%" filterUnits="objectBoundingBox" id="filter-3">
            <feOffset dx="2" dy="0" in="SourceAlpha" result="shadowOffsetOuter1"></feOffset>
            <feGaussianBlur stdDeviation="2" in="shadowOffsetOuter1" result="shadowBlurOuter1"></feGaussianBlur>
            <feColorMatrix values="0 0 0 0 0   0 0 0 0 0   0 0 0 0 0  0 0 0 0.5 0" type="matrix" in="shadowBlurOuter1"></feColorMatrix>
        </filter>
    </defs>
    <g id="left_column" stroke="none" stroke-width="1" fill="none" fill-rule="evenodd">
        <g id="Left-Edge">
            <mask id="mask-2" fill="white">
                <use xlink:href="#path-1"></use>
            </mask>
            <g id="Mask">
                <use fill="black" fill-opacity="1" filter="url(#filter-3)" xlink:href="#path-1"></use>
                <use fill="#121212" fill-rule="evenodd" xlink:href="#path-1"></use>
            </g>
            <g id="Spotify-Logo" mask="url(#mask-2)" fill="#1DB954" fill-rule="nonzero" opacity="0.15">
                <g transform="translate(-490.000000, 81.000000)" id="Shape">
                    <path d="M763,0 C341.613661,0 0,341.608454 0,762.989587 C0,1184.37072 341.613661,1526 763,1526 C1184.38634,1526 1526,1184.42278 1526,762.989587 C1526,341.55639 1184.42278,0.0364448994 762.989587,0.0364448994 L763,0 Z M1112.90748,1100.45374 C1106.33893,1111.22495 1095.75749,1118.94274 1083.49454,1121.90667 C1071.2316,1124.8706 1058.29338,1122.83746 1047.53054,1116.2552 C868.356998,1006.74869 642.83596,982.013019 377.24636,1042.68336 C360.545794,1046.85439 342.895101,1041.67178 331.100587,1029.13401 C319.306072,1016.59623 315.210446,998.662126 320.393027,982.247277 C325.575608,965.832429 339.226699,953.501407 356.082286,950.009191 C646.714739,883.559727 896.023883,912.163767 1097.13725,1035.03514 C1107.90757,1041.61553 1115.62021,1052.20754 1118.57625,1064.47796 C1121.53228,1076.74837 1119.4892,1089.6906 1112.89707,1100.45374 L1112.90748,1100.45374 Z M1206.29493,892.71781 C1189.04087,920.712699 1152.42937,929.495919 1124.47092,912.30434 C919.421508,786.262259 606.750304,749.749676 364.167847,823.389198 C343.768452,829.78539 321.505647,824.742586 305.853612,810.180293 C290.201577,795.617999 283.568053,773.776325 288.478046,752.969149 C293.388039,732.161973 309.086247,715.59005 329.597257,709.561365 C606.69824,625.482982 951.175428,666.21276 1186.69799,810.940662 C1214.67205,828.16348 1223.50734,864.790604 1206.28972,892.723016 L1206.29493,892.71781 Z M1214.31281,676.380887 C968.39304,530.32535 562.678008,516.898008 327.894759,588.158199 C303.430104,595.781983 276.756035,589.703868 258.009438,572.233705 C239.262842,554.763541 231.321924,528.583563 237.204454,503.642887 C243.086985,478.702211 261.889805,458.830034 286.467322,451.578335 C555.982559,369.759536 1004.02574,385.566209 1287.14013,553.624053 C1321.02794,573.74232 1332.19094,617.522537 1312.07365,651.410925 C1292.02895,685.325507 1248.11285,696.503678 1214.31281,676.370474 L1214.31281,676.380887 Z"></path>
                </g>
            </g>
        </g>
        <g id="FREE-VS-PREMIUM" transform="translate(110.000000, 366.000000)">
            <g id="Group-3" fill="#F0A977">
                <path d="M2.212,7.4 L14.196,7.4 L14.196,10.256 L5.264,10.256 L5.264,15.324 L12.152,15.324 L12.152,18.18 L5.264,18.18 L5.264,27 L2.212,27 L2.212,7.4 Z M17.884,7.4 L24.576,7.4 C26.7040106,7.4 28.3653274,7.89466172 29.56,8.884 C30.7546726,9.87333828 31.352,11.3666567 31.352,13.364 C31.352,15.9213461 30.222678,17.7413279 27.964,18.824 L32.36,27 L28.804,27 L24.912,19.524 L21.02,19.524 L21.02,27 L17.884,27 L17.884,7.4 Z M24.156,16.864 C25.5000067,16.864 26.50333,16.5606697 27.166,15.954 C27.82867,15.3473303 28.16,14.5120053 28.16,13.448 C28.16,12.3466612 27.8333366,11.5020029 27.18,10.914 C26.5266634,10.3259971 25.53734,10.032 24.212,10.032 L21.02,10.032 L21.02,16.864 L24.156,16.864 Z M36.048,7.4 L48.256,7.4 L48.256,10.256 L39.128,10.256 L39.128,15.324 L46.296,15.324 L46.296,18.18 L39.128,18.18 L39.128,24.144 L48.508,24.144 L48.508,27 L36.048,27 L36.048,7.4 Z M52.728,7.4 L64.936,7.4 L64.936,10.256 L55.808,10.256 L55.808,15.324 L62.976,15.324 L62.976,18.18 L55.808,18.18 L55.808,24.144 L65.188,24.144 L65.188,27 L52.728,27 L52.728,7.4 Z M86.844,21.988 L79.48,21.988 L77.716,27 L74.636,27 L81.636,7.4 L84.688,7.4 L91.716,27 L88.608,27 L86.844,21.988 Z M85.892,19.272 L83.176,11.572 L80.46,19.272 L85.892,19.272 Z M103.552,27.392 C101.629324,27.392 99.9120076,26.9720042 98.4,26.132 C96.8879924,25.2919958 95.7073376,24.1020077 94.858,22.562 C94.0086624,21.0219923 93.584,19.2346768 93.584,17.2 C93.584,15.1653232 94.0179957,13.3780077 94.886,11.838 C95.7540043,10.2979923 96.9486591,9.1080042 98.47,8.268 C99.9913409,7.4279958 101.722657,7.008 103.664,7.008 C104.634672,7.008 105.563329,7.11066564 106.45,7.316 C107.336671,7.52133436 108.12533,7.80133156 108.816,8.156 L108.508,11.012 C106.809325,10.2466628 105.185341,9.864 103.636,9.864 C102.198659,9.864 100.980672,10.1813302 99.982,10.816 C98.9833283,11.4506698 98.2273359,12.3186612 97.714,13.42 C97.2006641,14.5213388 96.944,15.7813262 96.944,17.2 C96.944,18.6186738 97.1959975,19.8786612 97.7,20.98 C98.2040025,22.0813388 98.9506617,22.9493302 99.94,23.584 C100.929338,24.2186698 102.133326,24.536 103.552,24.536 C104.466671,24.536 105.315996,24.438001 106.1,24.242 C106.884004,24.045999 107.686663,23.7613352 108.508,23.388 L108.816,26.272 C107.154658,27.0186704 105.400009,27.392 103.552,27.392 Z M121.38,27.392 C119.457324,27.392 117.740008,26.9720042 116.228,26.132 C114.715992,25.2919958 113.535338,24.1020077 112.686,22.562 C111.836662,21.0219923 111.412,19.2346768 111.412,17.2 C111.412,15.1653232 111.845996,13.3780077 112.714,11.838 C113.582004,10.2979923 114.776659,9.1080042 116.298,8.268 C117.819341,7.4279958 119.550657,7.008 121.492,7.008 C122.462672,7.008 123.391329,7.11066564 124.278,7.316 C125.164671,7.52133436 125.95333,7.80133156 126.644,8.156 L126.336,11.012 C124.637325,10.2466628 123.013341,9.864 121.464,9.864 C120.026659,9.864 118.808672,10.1813302 117.81,10.816 C116.811328,11.4506698 116.055336,12.3186612 115.542,13.42 C115.028664,14.5213388 114.772,15.7813262 114.772,17.2 C114.772,18.6186738 115.023997,19.8786612 115.528,20.98 C116.032003,22.0813388 116.778662,22.9493302 117.768,23.584 C118.757338,24.2186698 119.961326,24.536 121.38,24.536 C122.294671,24.536 123.143996,24.438001 123.928,24.242 C124.712004,24.045999 125.514663,23.7613352 126.336,23.388 L126.644,26.272 C124.982658,27.0186704 123.228009,27.392 121.38,27.392 Z M138.928,27.392 C137.061324,27.392 135.400007,26.9720042 133.944,26.132 C132.487993,25.2919958 131.344671,24.1020077 130.514,22.562 C129.683329,21.0219923 129.268,19.2346768 129.268,17.2 C129.268,15.1653232 129.683329,13.3780077 130.514,11.838 C131.344671,10.2979923 132.487993,9.1080042 133.944,8.268 C135.400007,7.4279958 137.061324,7.008 138.928,7.008 C140.794676,7.008 142.455993,7.4279958 143.912,8.268 C145.368007,9.1080042 146.511329,10.2979923 147.342,11.838 C148.172671,13.3780077 148.588,15.1653232 148.588,17.2 C148.588,19.2346768 148.172671,21.0219923 147.342,22.562 C146.511329,24.1020077 145.368007,25.2919958 143.912,26.132 C142.455993,26.9720042 140.794676,27.392 138.928,27.392 Z M138.928,24.424 C140.30934,24.424 141.480662,24.1113365 142.442,23.486 C143.403338,22.8606635 144.126664,22.0020055 144.612,20.91 C145.097336,19.8179945 145.34,18.5813402 145.34,17.2 C145.34,15.8186598 145.097336,14.5820055 144.612,13.49 C144.126664,12.3979945 143.403338,11.5393365 142.442,10.914 C141.480662,10.2886635 140.30934,9.976 138.928,9.976 C137.54666,9.976 136.375338,10.2886635 135.414,10.914 C134.452662,11.5393365 133.724669,12.3979945 133.23,13.49 C132.735331,14.5820055 132.488,15.8186598 132.488,17.2 C132.488,18.5813402 132.735331,19.8179945 133.23,20.91 C133.724669,22.0020055 134.452662,22.8606635 135.414,23.486 C136.375338,24.1113365 137.54666,24.424 138.928,24.424 Z M160.76,27.392 C158.071987,27.392 156.046673,26.6220077 154.684,25.082 C153.321327,23.5419923 152.64,21.4000137 152.64,18.656 L152.64,7.4 L155.692,7.4 L155.692,17.844 C155.692,19.9533439 156.046663,21.5959941 156.756,22.772 C157.465337,23.9480059 158.79999,24.536 160.76,24.536 C162.72001,24.536 164.054663,23.9480059 164.764,22.772 C165.473337,21.5959941 165.828,19.9533439 165.828,17.844 L165.828,7.4 L168.88,7.4 L168.88,18.656 C168.88,21.4000137 168.198673,23.5419923 166.836,25.082 C165.473327,26.6220077 163.448013,27.392 160.76,27.392 Z M174.052,7.4 L177.188,7.4 L186.316,21.204 L186.316,7.4 L189.396,7.4 L189.396,27 L186.82,27 L177.104,12.384 L177.104,27 L174.052,27 L174.052,7.4 Z M198.628,10.256 L193,10.256 L193,7.4 L207.336,7.4 L207.336,10.256 L201.68,10.256 L201.68,27 L198.628,27 L198.628,10.256 Z" id="FREE-ACCOUNT"></path>
                <path d="M10.584,53.808 C11.384004,54.2400022 12.0039978,54.8359962 12.444,55.596 C12.8840022,56.3560038 13.104,57.2239951 13.104,58.2 C13.104,59.208005 12.8640024,60.0999961 12.384,60.876 C11.9039976,61.6520039 11.2240044,62.2559978 10.344,62.688 C9.4639956,63.1200022 8.44000584,63.336 7.272,63.336 C6.08799408,63.336 5.0560044,63.1200022 4.176,62.688 C3.2959956,62.2559978 2.62000236,61.6520039 2.148,60.876 C1.67599764,60.0999961 1.44,59.208005 1.44,58.2 C1.44,57.2239951 1.66399776,56.3520038 2.112,55.584 C2.56000224,54.8159962 3.183996,54.2160022 3.984,53.784 C3.4239972,53.383998 2.98800156,52.8920029 2.676,52.308 C2.36399844,51.7239971 2.208,51.0880034 2.208,50.4 C2.208,49.6159961 2.3879982,48.8800034 2.748,48.192 C3.1080018,47.5039966 3.6679962,46.9440022 4.428,46.512 C5.1880038,46.0799978 6.13599432,45.864 7.272,45.864 C8.40800568,45.864 9.34799628,46.0799978 10.092,46.512 C10.8360037,46.9440022 11.3799983,47.5039966 11.724,48.192 C12.0680017,48.8800034 12.24,49.6159961 12.24,50.4 C12.24,51.1200036 12.0960014,51.7679971 11.808,52.344 C11.5199986,52.9200029 11.1120026,53.407998 10.584,53.808 Z M7.272,47.928 C6.3919956,47.928 5.70800244,48.1519978 5.22,48.6 C4.73199756,49.0480022 4.488,49.6479962 4.488,50.4 C4.488,51.1040035 4.73599752,51.6959976 5.232,52.176 C5.72800248,52.6560024 6.40799568,52.896 7.272,52.896 C8.12000424,52.896 8.77999764,52.6600024 9.252,52.188 C9.72400236,51.7159976 9.96,51.1200036 9.96,50.4 C9.96,49.6479962 9.72800232,49.0480022 9.264,48.6 C8.79999768,48.1519978 8.13600432,47.928 7.272,47.928 Z M7.272,61.272 C8.36000544,61.272 9.21199692,60.9960028 9.828,60.444 C10.4440031,59.8919972 10.752,59.1440047 10.752,58.2 C10.752,57.2239951 10.4440031,56.4280031 9.828,55.812 C9.21199692,55.1959969 8.36000544,54.888 7.272,54.888 C6.18399456,54.888 5.33200308,55.1959969 4.716,55.812 C4.09999692,56.4280031 3.792,57.2239951 3.792,58.2 C3.792,59.1440047 4.09999692,59.8919972 4.716,60.444 C5.33200308,60.9960028 6.18399456,61.272 7.272,61.272 Z M23.152,52.92 C24.1120048,52.92 24.9719962,53.1399978 25.732,53.58 C26.4920038,54.0200022 27.0839979,54.6279961 27.508,55.404 C27.9320021,56.1800039 28.144,57.0479952 28.144,58.008 C28.144,59.0320051 27.9120023,59.947996 27.448,60.756 C26.9839977,61.564004 26.3360042,62.1959977 25.504,62.652 C24.6719958,63.1080023 23.7120054,63.336 22.624,63.336 C20.8799913,63.336 19.512005,62.7680057 18.52,61.632 C17.527995,60.4959943 17.032,58.9840094 17.032,57.096 C17.032,55.4319917 17.3919964,53.8600074 18.112,52.38 C18.8320036,50.8999926 19.7559944,49.6080055 20.884,48.504 C22.0120056,47.3999945 23.2079937,46.5200033 24.472,45.864 L26.032,47.328 C24.5919928,48.0480036 23.3160056,48.9799943 22.204,50.124 C21.0919944,51.2680057 20.2960024,52.535993 19.816,53.928 C20.7120045,53.2559966 21.8239934,52.92 23.152,52.92 Z M22.624,61.368 C23.5680047,61.368 24.3319971,61.0560031 24.916,60.432 C25.5000029,59.8079969 25.792,59.0240047 25.792,58.08 C25.792,57.1679954 25.5000029,56.408003 24.916,55.8 C24.3319971,55.191997 23.5680047,54.888 22.624,54.888 C21.6799953,54.888 20.912003,55.191997 20.32,55.8 C19.727997,56.408003 19.432,57.1759954 19.432,58.104 C19.432,59.0640048 19.7239971,59.847997 20.308,60.456 C20.8920029,61.064003 21.6639952,61.368 22.624,61.368 Z M51.768,51 C54.776015,51 56.28,52.6879831 56.28,56.064 L56.28,63 L54.12,63 L54.12,56.088 C54.12,54.9839945 53.9040022,54.1800025 53.472,53.676 C53.0399978,53.1719975 52.3360049,52.92 51.36,52.92 C49.2799896,52.92 48.24,54.0079891 48.24,56.184 L48.24,63 L46.08,63 L46.08,56.52 C46.08,55.1759933 45.8440024,54.2400026 45.372,53.712 C44.8999976,53.1839974 44.2160045,52.92 43.32,52.92 C42.6159965,52.92 41.9920027,53.0479987 41.448,53.304 C40.9039973,53.5600013 40.4880014,53.9439974 40.2,54.456 L40.2,63 L38.04,63 L38.04,51.24 L39.72,51.24 L39.96,52.488 C40.552003,51.9599974 41.147997,51.5800012 41.748,51.348 C42.348003,51.1159988 42.9919966,51 43.68,51 C45.472009,51 46.7359963,51.7839922 47.472,53.352 C48.2880041,51.7839922 49.7199898,51 51.768,51 Z M60.088,46.2 L62.248,46.2 L62.248,48.6 L60.088,48.6 L60.088,46.2 Z M60.088,51.24 L62.248,51.24 L62.248,63 L60.088,63 L60.088,51.24 Z M69.2,63.24 C68.1439947,63.24 67.3720024,62.9680027 66.884,62.424 C66.3959976,61.8799973 66.152,61.208004 66.152,60.408 L66.152,45 L68.312,45 L68.312,59.16 C68.312,59.8640035 68.3559996,60.3759984 68.444,60.696 C68.5320004,61.0160016 68.7039987,61.2319994 68.96,61.344 C69.2160013,61.4560006 69.6319971,61.512 70.208,61.512 L69.896,63.24 L69.2,63.24 Z M75.864,63.24 C74.8079947,63.24 74.0360024,62.9680027 73.548,62.424 C73.0599976,61.8799973 72.816,61.208004 72.816,60.408 L72.816,45 L74.976,45 L74.976,59.16 C74.976,59.8640035 75.0199996,60.3759984 75.108,60.696 C75.1960004,61.0160016 75.3679987,61.2319994 75.624,61.344 C75.8800013,61.4560006 76.2959971,61.512 76.872,61.512 L76.56,63.24 L75.864,63.24 Z M79.504,46.2 L81.664,46.2 L81.664,48.6 L79.504,48.6 L79.504,46.2 Z M79.504,51.24 L81.664,51.24 L81.664,63 L79.504,63 L79.504,51.24 Z M90.728,63.24 C89.527994,63.24 88.4880044,62.9720027 87.608,62.436 C86.7279956,61.8999973 86.0560023,61.1680046 85.592,60.24 C85.1279977,59.3119954 84.896,58.2720058 84.896,57.12 C84.896,55.9679942 85.1279977,54.9280046 85.592,54 C86.0560023,53.0719954 86.7279956,52.3400027 87.608,51.804 C88.4880044,51.2679973 89.527994,51 90.728,51 C91.9120059,51 92.9479956,51.2679973 93.836,51.804 C94.7240044,52.3400027 95.3999977,53.0719954 95.864,54 C96.3280023,54.9280046 96.56,55.9679942 96.56,57.12 C96.56,58.2720058 96.3280023,59.3119954 95.864,60.24 C95.3999977,61.1680046 94.7240044,61.8999973 93.836,62.436 C92.9479956,62.9720027 91.9120059,63.24 90.728,63.24 Z M90.728,61.32 C91.8800058,61.32 92.7719968,60.9520037 93.404,60.216 C94.0360032,59.4799963 94.352,58.4480066 94.352,57.12 C94.352,55.7919934 94.0360032,54.7600037 93.404,54.024 C92.7719968,53.2879963 91.8800058,52.92 90.728,52.92 C89.5759942,52.92 88.6840032,53.2879963 88.052,54.024 C87.4199968,54.7600037 87.104,55.7919934 87.104,57.12 C87.104,58.4480066 87.4199968,59.4799963 88.052,60.216 C88.6840032,60.9520037 89.5759942,61.32 90.728,61.32 Z M105.6,51 C108.800016,51 110.4,52.8399816 110.4,56.52 L110.4,63 L108.24,63 L108.24,56.52 C108.24,55.2559937 108.004002,54.3400028 107.532,53.772 C107.059998,53.2039972 106.272006,52.92 105.168,52.92 C104.463996,52.92 103.824003,53.0479987 103.248,53.304 C102.671997,53.5600013 102.240001,53.9439974 101.952,54.456 L101.952,63 L99.792,63 L99.792,51.24 L101.472,51.24 L101.712,52.488 C102.336003,51.9279972 102.963997,51.5400011 103.596,51.324 C104.228003,51.1079989 104.895996,51 105.6,51 Z M123.632,63.24 C122.575995,63.24 121.804002,62.9680027 121.316,62.424 C120.827998,61.8799973 120.584,61.208004 120.584,60.408 L120.584,45 L122.744,45 L122.744,59.16 C122.744,59.8640035 122.788,60.3759984 122.876,60.696 C122.964,61.0160016 123.135999,61.2319994 123.392,61.344 C123.648001,61.4560006 124.063997,61.512 124.64,61.512 L124.328,63.24 L123.632,63.24 Z M127.272,46.2 L129.432,46.2 L129.432,48.6 L127.272,48.6 L127.272,46.2 Z M127.272,51.24 L129.432,51.24 L129.432,63 L127.272,63 L127.272,51.24 Z M136.696,63.24 C135.767995,63.24 134.956003,63.1320011 134.26,62.916 C133.563997,62.6999989 133.032002,62.4640013 132.664,62.208 L132.928,60.12 C133.248002,60.4080014 133.739997,60.6799987 134.404,60.936 C135.068003,61.1920013 135.799996,61.32 136.6,61.32 C137.352004,61.32 137.931998,61.1920013 138.34,60.936 C138.748002,60.6799987 138.952,60.3200023 138.952,59.856 C138.952,59.3119973 138.728002,58.9000014 138.28,58.62 C137.831998,58.3399986 137.272003,58.104001 136.6,57.912 C135.863996,57.719999 135.244003,57.5160011 134.74,57.3 C134.235997,57.0839989 133.804002,56.7520022 133.444,56.304 C133.083998,55.8559978 132.904,55.2640037 132.904,54.528 C132.904,53.519995 133.263996,52.6800034 133.984,52.008 C134.704004,51.3359966 135.815992,51 137.32,51 C138.008003,51 138.591998,51.0679993 139.072,51.204 C139.552002,51.3400007 140.031998,51.5279988 140.512,51.768 L140.248,53.736 C139.863998,53.4159984 139.440002,53.1640009 138.976,52.98 C138.511998,52.7959991 137.976003,52.704 137.368,52.704 C136.663996,52.704 136.108002,52.8359987 135.7,53.1 C135.291998,53.3640013 135.088,53.7599974 135.088,54.288 C135.088,54.6400018 135.183999,54.9239989 135.376,55.14 C135.568001,55.3560011 135.839998,55.5359993 136.192,55.68 C136.544002,55.8240007 137.087996,56.0079989 137.824,56.232 C138.736005,56.5040014 139.523997,56.8879975 140.188,57.384 C140.852003,57.8800025 141.184,58.6639946 141.184,59.736 C141.184,60.6960048 140.844003,61.5199966 140.164,62.208 C139.483997,62.8960034 138.328008,63.24 136.696,63.24 Z M148.352,63.24 C147.311995,63.24 146.540003,62.9680027 146.036,62.424 C145.531997,61.8799973 145.28,61.2160039 145.28,60.432 L145.28,52.92 L143.264,52.92 L143.456,51.24 L145.28,51.24 L145.28,48.336 L147.44,48.12 L147.44,51.24 L150.536,51.24 L150.536,52.92 L147.44,52.92 L147.44,59.112 C147.44,59.9280041 147.488,60.4879985 147.584,60.792 C147.68,61.0960015 147.883998,61.2919996 148.196,61.38 C148.508002,61.4680004 149.079996,61.512 149.912,61.512 L150.464,61.512 L150.296,63.24 L148.352,63.24 Z M158.928,63.24 C157.583993,63.24 156.436005,62.9640028 155.484,62.412 C154.531995,61.8599972 153.808002,61.1120047 153.312,60.168 C152.815998,59.2239953 152.568,58.1760058 152.568,57.024 C152.568,55.9199945 152.795998,54.9080046 153.252,53.988 C153.708002,53.0679954 154.371996,52.3400027 155.244,51.804 C156.116004,51.2679973 157.143994,51 158.328,51 C159.832008,51 161.051995,51.4399956 161.988,52.32 C162.924005,53.2000044 163.392,54.4159922 163.392,55.968 C163.392,56.368002 163.36,56.7519982 163.296,57.12 L154.776,57.12 C154.920001,58.6400076 155.383996,59.7199968 156.168,60.36 C156.952004,61.0000032 157.959994,61.32 159.192,61.32 C160.424006,61.32 161.551995,61.0880023 162.576,60.624 L162.864,62.328 C161.503993,62.936003 160.192006,63.24 158.928,63.24 Z M161.16,55.632 C161.16,54.7839958 160.920002,54.1200024 160.44,53.64 C159.959998,53.1599976 159.240005,52.92 158.28,52.92 C157.351995,52.92 156.624003,53.1479977 156.096,53.604 C155.567997,54.0600023 155.192001,54.7359955 154.968,55.632 L161.16,55.632 Z M172.384,51 C175.584016,51 177.184,52.8399816 177.184,56.52 L177.184,63 L175.024,63 L175.024,56.52 C175.024,55.2559937 174.788002,54.3400028 174.316,53.772 C173.843998,53.2039972 173.056006,52.92 171.952,52.92 C171.247996,52.92 170.608003,53.0479987 170.032,53.304 C169.455997,53.5600013 169.024001,53.9439974 168.736,54.456 L168.736,63 L166.576,63 L166.576,51.24 L168.256,51.24 L168.496,52.488 C169.120003,51.9279972 169.747997,51.5400011 170.38,51.324 C171.012003,51.1079989 171.679996,51 172.384,51 Z M186.632,63.24 C185.287993,63.24 184.140005,62.9640028 183.188,62.412 C182.235995,61.8599972 181.512002,61.1120047 181.016,60.168 C180.519998,59.2239953 180.272,58.1760058 180.272,57.024 C180.272,55.9199945 180.499998,54.9080046 180.956,53.988 C181.412002,53.0679954 182.075996,52.3400027 182.948,51.804 C183.820004,51.2679973 184.847994,51 186.032,51 C187.536008,51 188.755995,51.4399956 189.692,52.32 C190.628005,53.2000044 191.096,54.4159922 191.096,55.968 C191.096,56.368002 191.064,56.7519982 191,57.12 L182.48,57.12 C182.624001,58.6400076 183.087996,59.7199968 183.872,60.36 C184.656004,61.0000032 185.663994,61.32 186.896,61.32 C188.128006,61.32 189.255995,61.0880023 190.28,60.624 L190.568,62.328 C189.207993,62.936003 187.896006,63.24 186.632,63.24 Z M188.864,55.632 C188.864,54.7839958 188.624002,54.1200024 188.144,53.64 C187.663998,53.1599976 186.944005,52.92 185.984,52.92 C185.055995,52.92 184.328003,53.1479977 183.8,53.604 C183.271997,54.0600023 182.896001,54.7359955 182.672,55.632 L188.864,55.632 Z M194.28,51.24 L196.056,51.24 L196.32,53.184 C196.928003,52.4319962 197.507997,51.8800018 198.06,51.528 C198.612003,51.1759982 199.191997,51 199.8,51 C199.992001,51 200.175999,51.0239998 200.352,51.072 L200.136,53.448 C199.927999,53.3999998 199.688001,53.376 199.416,53.376 C198.823997,53.376 198.264003,53.5079987 197.736,53.772 C197.207997,54.0360013 196.824001,54.3439982 196.584,54.696 L196.584,63 L194.28,63 L194.28,51.24 Z M206.2,63.24 C205.271995,63.24 204.460003,63.1320011 203.764,62.916 C203.067997,62.6999989 202.536002,62.4640013 202.168,62.208 L202.432,60.12 C202.752002,60.4080014 203.243997,60.6799987 203.908,60.936 C204.572003,61.1920013 205.303996,61.32 206.104,61.32 C206.856004,61.32 207.435998,61.1920013 207.844,60.936 C208.252002,60.6799987 208.456,60.3200023 208.456,59.856 C208.456,59.3119973 208.232002,58.9000014 207.784,58.62 C207.335998,58.3399986 206.776003,58.104001 206.104,57.912 C205.367996,57.719999 204.748003,57.5160011 204.244,57.3 C203.739997,57.0839989 203.308002,56.7520022 202.948,56.304 C202.587998,55.8559978 202.408,55.2640037 202.408,54.528 C202.408,53.519995 202.767996,52.6800034 203.488,52.008 C204.208004,51.3359966 205.319992,51 206.824,51 C207.512003,51 208.095998,51.0679993 208.576,51.204 C209.056002,51.3400007 209.535998,51.5279988 210.016,51.768 L209.752,53.736 C209.367998,53.4159984 208.944002,53.1640009 208.48,52.98 C208.015998,52.7959991 207.480003,52.704 206.872,52.704 C206.167996,52.704 205.612002,52.8359987 205.204,53.1 C204.795998,53.3640013 204.592,53.7599974 204.592,54.288 C204.592,54.6400018 204.687999,54.9239989 204.88,55.14 C205.072001,55.3560011 205.343998,55.5359993 205.696,55.68 C206.048002,55.8240007 206.591996,56.0079989 207.328,56.232 C208.240005,56.5040014 209.027997,56.8879975 209.692,57.384 C210.356003,57.8800025 210.688,58.6639946 210.688,59.736 C210.688,60.6960048 210.348003,61.5199966 209.668,62.208 C208.987997,62.8960034 207.832008,63.24 206.2,63.24 Z" id="86-million-listeners"></path>
            </g>
            <g id="Group-2" transform="translate(327.000000, 0.000000)" fill="#6C96CE">
                <path d="M2.212,7.4 L8.876,7.4 C13.3933559,7.4 15.652,9.51864548 15.652,13.756 C15.652,15.9213442 15.0686725,17.5313281 13.902,18.586 C12.7353275,19.6406719 11.0786774,20.168 8.932,20.168 L5.348,20.168 L5.348,27 L2.212,27 L2.212,7.4 Z M8.512,17.536 C9.85600672,17.536 10.8639966,17.2280031 11.536,16.612 C12.2080034,15.9959969 12.544,15.0533397 12.544,13.784 C12.544,12.4959936 12.2173366,11.5486697 11.564,10.942 C10.9106634,10.3353303 9.884007,10.032 8.484,10.032 L5.348,10.032 L5.348,17.536 L8.512,17.536 Z M19.508,7.4 L26.2,7.4 C28.3280106,7.4 29.9893274,7.89466172 31.184,8.884 C32.3786726,9.87333828 32.976,11.3666567 32.976,13.364 C32.976,15.9213461 31.846678,17.7413279 29.588,18.824 L33.984,27 L30.428,27 L26.536,19.524 L22.644,19.524 L22.644,27 L19.508,27 L19.508,7.4 Z M25.78,16.864 C27.1240067,16.864 28.12733,16.5606697 28.79,15.954 C29.45267,15.3473303 29.784,14.5120053 29.784,13.448 C29.784,12.3466612 29.4573366,11.5020029 28.804,10.914 C28.1506634,10.3259971 27.16134,10.032 25.836,10.032 L22.644,10.032 L22.644,16.864 L25.78,16.864 Z M37.672,7.4 L49.88,7.4 L49.88,10.256 L40.752,10.256 L40.752,15.324 L47.92,15.324 L47.92,18.18 L40.752,18.18 L40.752,24.144 L50.132,24.144 L50.132,27 L37.672,27 L37.672,7.4 Z M70.648,27 L68.856,12.916 L63.676,22.576 L58.412,12.944 L56.62,27 L53.428,27 L56.116,7.4 L58.664,7.4 L63.648,16.78 L68.604,7.4 L71.18,7.4 L73.84,27 L70.648,27 Z M78.2,7.4 L81.252,7.4 L81.252,27 L78.2,27 L78.2,7.4 Z M94.544,27.392 C91.8559866,27.392 89.8306735,26.6220077 88.468,25.082 C87.1053265,23.5419923 86.424,21.4000137 86.424,18.656 L86.424,7.4 L89.476,7.4 L89.476,17.844 C89.476,19.9533439 89.8306631,21.5959941 90.54,22.772 C91.2493369,23.9480059 92.5839902,24.536 94.544,24.536 C96.5040098,24.536 97.8386631,23.9480059 98.548,22.772 C99.2573369,21.5959941 99.612,19.9533439 99.612,17.844 L99.612,7.4 L102.664,7.4 L102.664,18.656 C102.664,21.4000137 101.982673,23.5419923 100.62,25.082 C99.2573265,26.6220077 97.2320134,27.392 94.544,27.392 Z M123.908,27 L122.116,12.916 L116.936,22.576 L111.672,12.944 L109.88,27 L106.688,27 L109.376,7.4 L111.924,7.4 L116.908,16.78 L121.864,7.4 L124.44,7.4 L127.1,27 L123.908,27 Z M149.036,21.988 L141.672,21.988 L139.908,27 L136.828,27 L143.828,7.4 L146.88,7.4 L153.908,27 L150.8,27 L149.036,21.988 Z M148.084,19.272 L145.368,11.572 L142.652,19.272 L148.084,19.272 Z M165.744,27.392 C163.821324,27.392 162.104008,26.9720042 160.592,26.132 C159.079992,25.2919958 157.899338,24.1020077 157.05,22.562 C156.200662,21.0219923 155.776,19.2346768 155.776,17.2 C155.776,15.1653232 156.209996,13.3780077 157.078,11.838 C157.946004,10.2979923 159.140659,9.1080042 160.662,8.268 C162.183341,7.4279958 163.914657,7.008 165.856,7.008 C166.826672,7.008 167.755329,7.11066564 168.642,7.316 C169.528671,7.52133436 170.31733,7.80133156 171.008,8.156 L170.7,11.012 C169.001325,10.2466628 167.377341,9.864 165.828,9.864 C164.390659,9.864 163.172672,10.1813302 162.174,10.816 C161.175328,11.4506698 160.419336,12.3186612 159.906,13.42 C159.392664,14.5213388 159.136,15.7813262 159.136,17.2 C159.136,18.6186738 159.387997,19.8786612 159.892,20.98 C160.396003,22.0813388 161.142662,22.9493302 162.132,23.584 C163.121338,24.2186698 164.325326,24.536 165.744,24.536 C166.658671,24.536 167.507996,24.438001 168.292,24.242 C169.076004,24.045999 169.878663,23.7613352 170.7,23.388 L171.008,26.272 C169.346658,27.0186704 167.592009,27.392 165.744,27.392 Z M183.572,27.392 C181.649324,27.392 179.932008,26.9720042 178.42,26.132 C176.907992,25.2919958 175.727338,24.1020077 174.878,22.562 C174.028662,21.0219923 173.604,19.2346768 173.604,17.2 C173.604,15.1653232 174.037996,13.3780077 174.906,11.838 C175.774004,10.2979923 176.968659,9.1080042 178.49,8.268 C180.011341,7.4279958 181.742657,7.008 183.684,7.008 C184.654672,7.008 185.583329,7.11066564 186.47,7.316 C187.356671,7.52133436 188.14533,7.80133156 188.836,8.156 L188.528,11.012 C186.829325,10.2466628 185.205341,9.864 183.656,9.864 C182.218659,9.864 181.000672,10.1813302 180.002,10.816 C179.003328,11.4506698 178.247336,12.3186612 177.734,13.42 C177.220664,14.5213388 176.964,15.7813262 176.964,17.2 C176.964,18.6186738 177.215997,19.8786612 177.72,20.98 C178.224003,22.0813388 178.970662,22.9493302 179.96,23.584 C180.949338,24.2186698 182.153326,24.536 183.572,24.536 C184.486671,24.536 185.335996,24.438001 186.12,24.242 C186.904004,24.045999 187.706663,23.7613352 188.528,23.388 L188.836,26.272 C187.174658,27.0186704 185.420009,27.392 183.572,27.392 Z M201.12,27.392 C199.253324,27.392 197.592007,26.9720042 196.136,26.132 C194.679993,25.2919958 193.536671,24.1020077 192.706,22.562 C191.875329,21.0219923 191.46,19.2346768 191.46,17.2 C191.46,15.1653232 191.875329,13.3780077 192.706,11.838 C193.536671,10.2979923 194.679993,9.1080042 196.136,8.268 C197.592007,7.4279958 199.253324,7.008 201.12,7.008 C202.986676,7.008 204.647993,7.4279958 206.104,8.268 C207.560007,9.1080042 208.703329,10.2979923 209.534,11.838 C210.364671,13.3780077 210.78,15.1653232 210.78,17.2 C210.78,19.2346768 210.364671,21.0219923 209.534,22.562 C208.703329,24.1020077 207.560007,25.2919958 206.104,26.132 C204.647993,26.9720042 202.986676,27.392 201.12,27.392 Z M201.12,24.424 C202.50134,24.424 203.672662,24.1113365 204.634,23.486 C205.595338,22.8606635 206.318664,22.0020055 206.804,20.91 C207.289336,19.8179945 207.532,18.5813402 207.532,17.2 C207.532,15.8186598 207.289336,14.5820055 206.804,13.49 C206.318664,12.3979945 205.595338,11.5393365 204.634,10.914 C203.672662,10.2886635 202.50134,9.976 201.12,9.976 C199.73866,9.976 198.567338,10.2886635 197.606,10.914 C196.644662,11.5393365 195.916669,12.3979945 195.422,13.49 C194.927331,14.5820055 194.68,15.8186598 194.68,17.2 C194.68,18.5813402 194.927331,19.8179945 195.422,20.91 C195.916669,22.0020055 196.644662,22.8606635 197.606,23.486 C198.567338,24.1113365 199.73866,24.424 201.12,24.424 Z M222.952,27.392 C220.263987,27.392 218.238673,26.6220077 216.876,25.082 C215.513327,23.5419923 214.832,21.4000137 214.832,18.656 L214.832,7.4 L217.884,7.4 L217.884,17.844 C217.884,19.9533439 218.238663,21.5959941 218.948,22.772 C219.657337,23.9480059 220.99199,24.536 222.952,24.536 C224.91201,24.536 226.246663,23.9480059 226.956,22.772 C227.665337,21.5959941 228.02,19.9533439 228.02,17.844 L228.02,7.4 L231.072,7.4 L231.072,18.656 C231.072,21.4000137 230.390673,23.5419923 229.028,25.082 C227.665327,26.6220077 225.640013,27.392 222.952,27.392 Z M236.244,7.4 L239.38,7.4 L248.508,21.204 L248.508,7.4 L251.588,7.4 L251.588,27 L249.012,27 L239.296,12.384 L239.296,27 L236.244,27 L236.244,7.4 Z M260.82,10.256 L255.192,10.256 L255.192,7.4 L269.528,7.4 L269.528,10.256 L263.872,10.256 L263.872,27 L260.82,27 L260.82,10.256 Z" id="PREMIUM-ACCOUNT"></path>
                <text id="71-million-listeners" font-family="Cabin-Regular, Cabin" font-size="24" font-weight="normal" letter-spacing="1">
                    <tspan x="0" y="63">71 million listener</tspan>
                    <tspan x="193.12" y="63">s</tspan>
                </text>
            </g>
            <path d="M277,1 L277,68" id="Line" stroke="#FFFFFF" stroke-width="2" stroke-linecap="square"></path>
        </g>
        <path d="M109.608,318.076 C112.482681,318.076 114.524327,317.45534 115.733,316.214 C116.941673,314.97266 117.546,312.784016 117.546,309.648 L117.546,243.4 L130.09,243.4 L130.09,312.392 C130.09,318.141362 128.718014,322.322654 125.974,324.936 C123.229986,327.549346 119.310025,328.856 114.214,328.856 L110.686,328.856 L109.608,318.076 Z M167.194,312.98 C162.032641,312.98 157.557352,311.836678 153.768,309.55 C149.978648,307.263322 147.071343,304.192686 145.046,300.338 C143.020657,296.483314 142.008,292.23669 142.008,287.598 C142.008,282.95931 143.020657,278.68002 145.046,274.76 C147.071343,270.83998 149.978648,267.736678 153.768,265.45 C157.557352,263.163322 162.032641,262.02 167.194,262.02 C172.355359,262.02 176.830648,263.163322 180.62,265.45 C184.409352,267.736678 187.316657,270.83998 189.342,274.76 C191.367343,278.68002 192.38,282.95931 192.38,287.598 C192.38,292.23669 191.367343,296.483314 189.342,300.338 C187.316657,304.192686 184.409352,307.263322 180.62,309.55 C176.830648,311.836678 172.355359,312.98 167.194,312.98 Z M167.194,302.984 C171.179353,302.984 174.298989,301.579347 176.553,298.77 C178.807011,295.960653 179.934,292.23669 179.934,287.598 C179.934,282.893976 178.807011,279.121014 176.553,276.279 C174.298989,273.436986 171.179353,272.016 167.194,272.016 C163.208647,272.016 160.089011,273.436986 157.835,276.279 C155.580989,279.121014 154.454,282.893976 154.454,287.598 C154.454,292.23669 155.580989,295.960653 157.835,298.77 C160.089011,301.579347 163.208647,302.984 167.194,302.984 Z M246.536,263 L246.536,312 L235.168,312 L234.972,309.06 C233.469326,310.170672 231.73801,311.101663 229.778,311.853 C227.81799,312.604337 225.923342,312.98 224.094,312.98 C216.841964,312.98 211.56635,310.889354 208.267,306.708 C204.96765,302.526646 203.318,296.744704 203.318,289.362 L203.318,263 L215.47,263 L215.47,289.362 C215.47,293.935356 216.237659,297.316322 217.773,299.505 C219.308341,301.693678 221.77465,302.788 225.172,302.788 C228.961352,302.788 232.031988,301.416014 234.384,298.672 L234.384,263 L246.536,263 Z M260.904,263 L272.272,263 L272.566,268.194 C274.003341,266.560658 275.848989,265.12334 278.103,263.882 C280.357011,262.64066 282.725321,262.02 285.208,262.02 C285.992004,262.02 286.710663,262.085333 287.364,262.216 L286.482,274.172 C285.24066,273.845332 283.836008,273.682 282.268,273.682 C280.242657,273.682 278.380675,274.155662 276.682,275.103 C274.983325,276.050338 273.77467,277.209993 273.056,278.582 L273.056,312 L260.904,312 L260.904,263 Z M320.94,262.216 C327.01603,262.216 331.621984,264.241313 334.758,268.292 C337.894016,272.342687 339.462,277.797966 339.462,284.658 L339.462,312 L327.31,312 L327.31,285.638 C327.31,281.064644 326.542341,277.683678 325.007,275.495 C323.471659,273.306322 321.00535,272.212 317.608,272.212 C313.883981,272.212 310.813345,273.616653 308.396,276.426 L308.396,312 L296.244,312 L296.244,263 L307.612,263 L307.808,266.43 C311.924021,263.620653 316.30131,262.216 320.94,262.216 Z M376.958,312.98 C371.273972,312.98 366.42302,311.820345 362.405,309.501 C358.38698,307.181655 355.381677,304.078353 353.389,300.191 C351.396323,296.303647 350.4,291.975357 350.4,287.206 C350.4,282.632644 351.347324,278.451352 353.242,274.662 C355.136676,270.872648 357.880649,267.851011 361.474,265.597 C365.067351,263.342989 369.346642,262.216 374.312,262.216 C378.885356,262.216 382.756317,263.163324 385.925,265.058 C389.093683,266.952676 391.478325,269.500651 393.079,272.702 C394.679675,275.903349 395.48,279.496647 395.48,283.482 C395.48,285.44201 395.218669,287.663321 394.696,290.146 L363.042,290.146 C363.695337,294.458022 365.393986,297.675656 368.138,299.799 C370.882014,301.922344 374.181314,302.984 378.036,302.984 C383.328026,302.984 388.227977,301.64468 392.736,298.966 L393.324,309.256 C391.233323,310.366672 388.799681,311.264997 386.023,311.951 C383.246319,312.637003 380.224683,312.98 376.958,312.98 Z M383.132,281.914 C383.132,279.365987 382.413341,277.11201 380.976,275.152 C379.538659,273.19199 377.317348,272.212 374.312,272.212 C371.306652,272.212 368.889342,273.093991 367.06,274.858 C365.230658,276.622009 363.989337,278.973985 363.336,281.914 L383.132,281.914 Z M420.922,308.766 L400.538,263 L414.062,263 L426.606,294.556 L439.346,263 L452.87,263 L422.196,335.716 L410.044,335.716 L420.922,308.766 Z M545.404,312 L539.524,266.038 L521.982,297.594 L504.342,266.136 L498.462,312 L485.428,312 L494.934,243.4 L505.224,243.4 L521.982,274.662 L538.642,243.4 L548.932,243.4 L558.438,312 L545.404,312 Z M581.43,312.98 C577.379313,312.98 573.998347,311.657013 571.287,309.011 C568.575653,306.364987 567.22,302.788023 567.22,298.28 C567.22,294.033312 568.755318,290.61968 571.826,288.039 C574.896682,285.45832 578.522646,283.629005 582.704,282.551 C586.885354,281.472995 590.903314,280.868667 594.758,280.738 C594.627333,277.863319 593.89234,275.80534 592.553,274.564 C591.21366,273.32266 589.008682,272.702 585.938,272.702 C583.781989,272.702 581.67501,272.995997 579.617,273.584 C577.55899,274.172003 575.19068,275.119327 572.512,276.426 L571.434,266.528 C577.379363,263.653319 583.324637,262.216 589.27,262.216 C595.019362,262.216 599.412985,263.783984 602.451,266.92 C605.489015,270.056016 607.008,275.053966 607.008,281.914 L607.008,295.144 C607.008,297.626679 607.122332,299.406995 607.351,300.485 C607.579668,301.563005 607.971664,302.248999 608.527,302.543 C609.082336,302.837001 610.013327,302.984 611.32,302.984 L612.888,302.984 L611.81,312.98 L607.4,312.98 C604.72132,312.98 602.467342,312.473672 600.638,311.461 C598.808658,310.448328 597.404005,309.060009 596.424,307.296 C594.855992,309.060009 592.716347,310.448328 590.005,311.461 C587.293653,312.473672 584.435348,312.98 581.43,312.98 Z M586.526,303.67 C587.76734,303.67 589.171992,303.35967 590.74,302.739 C592.308008,302.11833 593.679994,301.252672 594.856,300.142 L594.856,288.97 C590.93598,289.166001 587.473348,290.015326 584.468,291.518 C581.462652,293.020674 579.96,295.11132 579.96,297.79 C579.96,299.815343 580.482661,301.301662 581.528,302.249 C582.573339,303.196338 584.239322,303.67 586.526,303.67 Z M648.228,262.216 C652.86669,262.216 656.851983,263.359322 660.184,265.646 C663.516017,267.932678 666.031325,271.003314 667.73,274.858 C669.428675,278.712686 670.278,282.95931 670.278,287.598 C670.278,292.23669 669.428675,296.483314 667.73,300.338 C666.031325,304.192686 663.516017,307.263322 660.184,309.55 C656.851983,311.836678 652.86669,312.98 648.228,312.98 C645.287985,312.98 642.78901,312.66967 640.731,312.049 C638.67299,311.42833 636.696676,310.432007 634.802,309.06 L634.802,335.716 L622.65,335.716 L622.65,263 L632.45,263 L633.724,267.508 C635.814677,265.743991 638.003322,264.421004 640.29,263.539 C642.576678,262.656996 645.222652,262.216 648.228,262.216 Z M646.366,302.984 C649.959351,302.984 652.768657,301.579347 654.794,298.77 C656.819343,295.960653 657.832,292.23669 657.832,287.598 C657.832,282.95931 656.819343,279.235347 654.794,276.426 C652.768657,273.616653 649.959351,272.212 646.366,272.212 C642.315313,272.212 639.277343,273.583986 637.252,276.328 C635.226657,279.072014 634.214,282.828643 634.214,287.598 C634.214,292.367357 635.226657,296.123986 637.252,298.868 C639.277343,301.612014 642.315313,302.984 646.366,302.984 Z" id="Journey-Map" fill="#FFFFFF"></path>
        <g id="spotify-1" transform="translate(33.000000, 131.000000)" fill="#2EBD59" fill-rule="nonzero">
            <path d="M29.3586417,32.5699011 C17.2591128,29.6751655 15.1051515,27.6435255 15.1051515,23.3743902 C15.1051515,19.3412857 18.8900409,16.6270753 24.5184572,16.6270753 C29.9744896,16.6270753 35.3844733,18.6881232 41.056404,22.9311608 C41.2279749,23.0596345 41.4430602,23.1107745 41.6547504,23.0772408 C41.8664885,23.0453383 42.053935,22.9286182 42.1777836,22.7531782 L48.085696,14.3980713 C48.3283723,14.0538597 48.26224,13.5795433 47.9350693,13.3167432 C41.1845083,7.88242161 33.5828828,5.24036372 24.6976312,5.24036372 C11.6332787,5.24036372 2.50783728,13.1059945 2.50783728,24.3600587 C2.50783728,36.4284292 10.3797301,40.7016902 23.9829913,44.0002208 C35.5611608,46.6758123 37.5151472,48.9174334 37.5151472,52.9245361 C37.5151472,57.3648418 33.56366,60.1252509 27.2047283,60.1252509 C20.1420593,60.1252509 14.3814262,57.7384613 7.93709164,52.1395418 C7.77728392,52.0009936 7.55799063,51.9381 7.35552927,51.9498536 C7.14211759,51.96746 6.94711583,52.0665258 6.81159965,52.2302601 L0.187373772,60.139547 C-0.0904487384,60.4677834 -0.0553025172,60.958075 0.26608218,61.2418877 C7.76389488,67.957348 16.9855461,71.5044306 26.9369954,71.5044306 C41.0146589,71.5044306 50.1116963,63.7873744 50.1116963,51.843256 C50.1368008,41.7603748 44.1201503,36.1774305 29.3838418,32.5808391 L29.3586417,32.5699011 Z M81.9607238,20.5980538 C75.8587182,20.5980538 70.853705,23.0092141 66.7265345,27.9498858 L66.7265345,22.3887697 C66.7265345,21.949714 66.371725,21.5920697 65.9349077,21.5920697 L55.1006905,21.5920697 C54.6630603,21.5920697 54.3090637,21.949714 54.3090637,22.3887697 L54.3090637,84.1805324 C54.3090637,84.6195881 54.6630124,84.9772323 55.1006905,84.9772323 L65.9349077,84.9772323 C66.371725,84.9772323 66.7265345,84.619636 66.7265345,84.1805324 L66.7265345,64.6755123 C70.8545657,69.3232084 75.8603918,71.5941894 81.9607238,71.5941894 C93.2987035,71.5941894 104.776503,62.8378302 104.776503,46.099072 C104.793239,29.3561401 93.3121404,20.5972382 81.9732999,20.5972382 L81.9607238,20.5980538 Z M92.1782324,46.099072 C92.1782324,54.6229505 86.9447927,60.5710709 79.4510923,60.5710709 C72.0428427,60.5710709 66.4545936,54.3525705 66.4545936,46.099072 C66.4545936,37.846437 72.0428427,31.6271211 79.4510923,31.6271211 C86.8234785,31.6262576 92.1790931,37.711247 92.1790931,46.0982085 L92.1782324,46.099072 Z M134.194655,20.5980538 C119.593098,20.5980538 108.15384,31.8781197 108.15384,46.2812283 C108.15384,60.5273668 119.514437,71.6890335 134.015577,71.6890335 C148.669017,71.6890335 160.143373,60.4467709 160.143373,46.099024 C160.143373,31.800834 148.745956,20.5997329 134.193794,20.5997329 L134.194655,20.5980538 Z M134.194655,60.6558405 C126.428153,60.6558405 120.572984,54.3953631 120.572984,46.0948503 C120.572984,37.7590289 126.225692,31.7101637 134.015529,31.7101637 C141.83224,31.7101637 147.726715,37.9705931 147.726715,46.2770066 C147.726715,54.611149 142.036423,60.6558405 134.19542,60.6558405 L134.194655,60.6558405 Z M191.323857,21.5921177 L179.401781,21.5921177 L179.401781,9.36337102 C179.401781,8.92513089 179.048645,8.56748665 178.611015,8.56748665 L167.778471,8.56748665 C167.339981,8.56748665 166.984358,8.92513089 166.984358,9.36337102 L166.984358,21.5921177 L161.775162,21.5921177 C161.339206,21.5921177 160.986022,21.949714 160.986022,22.3888176 L160.986022,31.7303606 C160.986022,32.1686007 161.339206,32.5270605 161.775162,32.5270605 L166.984358,32.5270605 L166.984358,56.6982466 C166.984358,66.4662762 171.830329,71.4187495 181.387566,71.4187495 C185.273782,71.4187495 188.497958,70.6136061 191.536456,68.8850163 C191.783293,68.7464681 191.936406,68.4795422 191.936406,68.1957775 L191.936406,59.3000066 C191.936406,59.0254528 191.7941,58.7660588 191.559839,58.6225214 C191.323857,58.4738987 191.030159,58.4663668 190.788296,58.5863971 C188.701232,59.6400444 186.683743,60.1261144 184.428504,60.1261144 C180.952423,60.1261144 179.401781,58.542741 179.401781,54.9940274 L179.401781,32.5313302 L191.323857,32.5313302 C191.761488,32.5313302 192.113811,32.173686 192.113811,31.7346303 L192.113811,22.3939029 C192.130547,21.9548472 191.779085,21.5972029 191.335621,21.5972029 L191.323857,21.5921177 Z M232.863344,21.6399475 L232.863344,20.1379856 C232.863344,15.7194601 234.551988,13.7490825 238.33946,13.7490825 C240.597999,13.7490825 242.412261,14.1990762 244.444,14.879104 C244.694231,14.9580688 244.95527,14.9185864 245.158639,14.7682847 C245.367843,14.617983 245.485858,14.3770588 245.485858,14.1218385 L245.485858,4.96245184 C245.485858,4.61233947 245.261592,4.30257302 244.925144,4.19928555 C242.77869,3.55869217 240.032312,2.90135596 235.920252,2.90135596 C225.913573,2.90135596 220.624091,8.55482158 220.624091,19.2446666 L220.624091,21.5450075 L215.419103,21.5450075 C214.982285,21.5450075 214.624129,21.9026517 214.624129,22.3408919 L214.624129,31.7303126 C214.624129,32.1685528 214.982285,32.5270126 215.419103,32.5270126 L220.624091,32.5270126 L220.624091,69.8100939 C220.624091,70.2491496 220.977226,70.6067939 221.414092,70.6067939 L232.248309,70.6067939 C232.685939,70.6067939 233.042422,70.2491496 233.042422,69.8100939 L233.042422,32.5296032 L243.157839,32.5296032 L258.653115,69.8034736 C256.89413,73.7199059 255.164362,74.4989995 252.802967,74.4989995 C250.894168,74.4989995 248.884139,73.9272484 246.828874,72.798906 C246.635594,72.6922604 246.406306,72.674654 246.197963,72.7393226 C245.991246,72.8123387 245.817237,72.9668141 245.729347,73.1683038 L242.057404,81.2505361 C241.882486,81.632551 242.032299,82.0809136 242.398824,82.2789972 C246.232249,84.3618731 249.69255,85.2509225 253.969486,85.2509225 C261.969388,85.2509225 266.391165,81.5124727 270.289048,71.4547777 L289.084674,22.727944 C289.17921,22.4827982 289.150806,22.2057498 289.000992,21.9883328 C288.852135,21.772547 288.611897,21.6424422 288.34909,21.6424422 L277.0705,21.6424422 C276.732522,21.6424422 276.430265,21.8581801 276.319901,22.1763899 L264.766071,55.2861395 L252.110945,22.1545619 C251.995512,21.8464265 251.69928,21.6423942 251.371248,21.6423942 L232.860857,21.6423942 L232.863344,21.6399475 Z M208.779814,21.5921177 L197.945597,21.5921177 C197.507919,21.5921177 197.151484,21.949714 197.151484,22.3888176 L197.151484,69.8101419 C197.151484,70.2491976 197.507919,70.6068418 197.945597,70.6068418 L208.779814,70.6068418 C209.216631,70.6068418 209.573927,70.2491976 209.573927,69.8101419 L209.573927,22.3921278 C209.5744,22.1805269 209.490761,21.9774694 209.341537,21.8279302 C209.192312,21.6783909 208.989819,21.5947122 208.778905,21.5954279 L208.779814,21.5921177 Z M203.424199,4.26325641e-14 C199.1322,4.26325641e-14 195.649377,3.48572411 195.649377,7.79175124 C195.649377,12.100273 199.133061,15.5902668 203.424247,15.5902668 C207.714621,15.5902668 211.194001,12.100273 211.194001,7.79175124 C211.194001,3.48658764 207.712899,5.35405302e-14 203.428455,5.35405302e-14 L203.424199,5.35405302e-14 Z M298.335589,36.8389405 C294.04775,36.8389405 290.711442,33.3842074 290.711442,29.1890476 C290.711442,24.9938878 294.091313,21.4997203 298.375757,21.4997203 C302.663691,21.4997203 306,24.9535898 306,29.1453915 C306,33.3405993 302.61922,36.8389405 298.334824,36.8389405 L298.335589,36.8389405 Z M298.37743,22.260344 C294.472039,22.260344 291.517223,25.3750392 291.517223,29.1890476 C291.517223,33.0014249 294.451095,36.0741431 298.338124,36.0741431 C302.242654,36.0741431 305.200866,32.9619905 305.200866,29.1453915 C305.200866,25.3330621 302.263598,22.260344 298.380825,22.260344 L298.37743,22.260344 Z M300.067892,29.9320169 L302.224387,32.961127 L300.406013,32.961127 L298.464507,30.182248 L296.795181,30.182248 L296.795181,32.961127 L295.273039,32.961127 L295.273039,24.9317618 L298.84203,24.9317618 C300.701432,24.9317618 301.924043,25.8862953 301.924043,27.4932238 C301.932363,28.8096233 301.170909,29.613903 300.074634,29.9320649 L300.067892,29.9320649 L300.067892,29.9320169 Z M298.779197,26.3094717 L296.794177,26.3094717 L296.794177,28.8491056 L298.779197,28.8491056 C299.769938,28.8491056 300.361494,28.3629877 300.361494,27.5780414 C300.361494,26.7519335 299.767403,26.3095197 298.779962,26.3095197 L298.779197,26.3095197 L298.779197,26.3094717 Z" id="Shape"></path>
        </g>
    </g>
</svg>