<?xml version="1.0" encoding="UTF-8"?>
<svg width="1526px" height="1526px" viewBox="0 0 1526 1526" version="1.1" xmlns="http://www.w3.org/2000/svg" xmlns:xlink="http://www.w3.org/1999/xlink">
    <!-- Generator: Sketch 49.3 (51167) - http://www.bohemiancoding.com/sketch -->
    <title>Shape</title>
    <desc>Created with Sketch.</desc>
    <defs></defs>
    <g id="Shape" stroke="none" stroke-width="1" fill="none" fill-rule="evenodd" opacity="0.15">
        <path d="M763,0 C341.613661,0 0,341.608454 0,762.989587 C0,1184.37072 341.613661,1526 763,1526 C1184.38634,1526 1526,1184.42278 1526,762.989587 C1526,341.55639 1184.42278,0.0364448994 762.989587,0.0364448994 L763,0 Z M1112.90748,1100.45374 C1106.33893,1111.22495 1095.75749,1118.94274 1083.49454,1121.90667 C1071.2316,1124.8706 1058.29338,1122.83746 1047.53054,1116.2552 C868.356998,1006.74869 642.83596,982.013019 377.24636,1042.68336 C360.545794,1046.85439 342.895101,1041.67178 331.100587,1029.13401 C319.306072,1016.59623 315.210446,998.662126 320.393027,982.247277 C325.575608,965.832429 339.226699,953.501407 356.082286,950.009191 C646.714739,883.559727 896.023883,912.163767 1097.13725,1035.03514 C1107.90757,1041.61553 1115.62021,1052.20754 1118.57625,1064.47796 C1121.53228,1076.74837 1119.4892,1089.6906 1112.89707,1100.45374 L1112.90748,1100.45374 Z M1206.29493,892.71781 C1189.04087,920.712699 1152.42937,929.495919 1124.47092,912.30434 C919.421508,786.262259 606.750304,749.749676 364.167847,823.389198 C343.768452,829.78539 321.505647,824.742586 305.853612,810.180293 C290.201577,795.617999 283.568053,773.776325 288.478046,752.969149 C293.388039,732.161973 309.086247,715.59005 329.597257,709.561365 C606.69824,625.482982 951.175428,666.21276 1186.69799,810.940662 C1214.67205,828.16348 1223.50734,864.790604 1206.28972,892.723016 L1206.29493,892.71781 Z M1214.31281,676.380887 C968.39304,530.32535 562.678008,516.898008 327.894759,588.158199 C303.430104,595.781983 276.756035,589.703868 258.009438,572.233705 C239.262842,554.763541 231.321924,528.583563 237.204454,503.642887 C243.086985,478.702211 261.889805,458.830034 286.467322,451.578335 C555.982559,369.759536 1004.02574,385.566209 1287.14013,553.624053 C1321.02794,573.74232 1332.19094,617.522537 1312.07365,651.410925 C1292.02895,685.325507 1248.11285,696.503678 1214.31281,676.370474 L1214.31281,676.380887 Z" fill="#1DB954" fill-rule="nonzero"></path>
    </g>
</svg>