<?xml version="1.0" encoding="UTF-8"?>
<svg width="282px" height="53px" viewBox="0 0 282 53" version="1.1" xmlns="http://www.w3.org/2000/svg" xmlns:xlink="http://www.w3.org/1999/xlink">
    <!-- Generator: Sketch 49.3 (51167) - http://www.bohemiancoding.com/sketch -->
    <title>Rearrange Song</title>
    <desc>Created with Sketch.</desc>
    <defs>
        <linearGradient x1="100%" y1="50%" x2="0%" y2="50%" id="linearGradient-1">
            <stop stop-color="#1DB954" offset="0%"></stop>
            <stop stop-color="#1DB954" stop-opacity="0.5" offset="100%"></stop>
        </linearGradient>
    </defs>
    <g id="Rearrange-Song" stroke="none" stroke-width="1" fill="none" fill-rule="evenodd">
        <polygon fill="url(#linearGradient-1)" points="243.161677 53 0 53 39.4023234 26.4990063 0 0 243.161677 0 282 26.4990063"></polygon>
        <path d="M54.58,20 L59.36,20 C60.8800076,20 62.0666624,20.3533298 62.92,21.06 C63.7733376,21.7666702 64.2,22.8333262 64.2,24.26 C64.2,26.0866758 63.3933414,27.3866628 61.78,28.16 L64.92,34 L62.38,34 L59.6,28.66 L56.82,28.66 L56.82,34 L54.58,34 L54.58,20 Z M59.06,26.76 C60.0200048,26.76 60.7366643,26.5433355 61.21,26.11 C61.6833357,25.6766645 61.92,25.0800038 61.92,24.32 C61.92,23.5333294 61.686669,22.9300021 61.22,22.51 C60.753331,22.0899979 60.0466714,21.88 59.1,21.88 L56.82,21.88 L56.82,26.76 L59.06,26.76 Z M73.82,34.2 C72.686661,34.2 71.7166707,33.966669 70.91,33.5 C70.1033293,33.033331 69.4966687,32.4066706 69.09,31.62 C68.6833313,30.8333294 68.48,29.9533382 68.48,28.98 C68.48,28.0599954 68.6699981,27.2166705 69.05,26.45 C69.4300019,25.6833295 69.9833297,25.0733356 70.71,24.62 C71.4366703,24.1666644 72.299995,23.94 73.3,23.94 C74.6066732,23.94 75.6466628,24.3233295 76.42,25.09 C77.1933372,25.8566705 77.58,26.8799936 77.58,28.16 C77.58,28.5066684 77.5400004,28.879998 77.46,29.28 L70.62,29.28 C70.753334,30.3866722 71.1233303,31.1866642 71.73,31.68 C72.3366697,32.1733358 73.106662,32.42 74.04,32.42 C75.0933386,32.42 76.0599956,32.1933356 76.94,31.74 L77.14,33.44 C76.073328,33.9466692 74.9666724,34.2 73.82,34.2 Z M75.44,27.86 C75.44,27.2333302 75.2600018,26.720002 74.9,26.32 C74.5399982,25.919998 74.0000036,25.72 73.28,25.72 C71.9333266,25.72 71.0866684,26.4333262 70.74,27.86 L75.44,27.86 Z M84.56,34.2 C83.693329,34.2 82.9833361,33.933336 82.43,33.4 C81.8766639,32.866664 81.6,32.166671 81.6,31.3 C81.6,30.433329 81.9033303,29.7400026 82.51,29.22 C83.1166697,28.6999974 83.853329,28.3300011 84.72,28.11 C85.586671,27.8899989 86.4666622,27.7733334 87.36,27.76 C87.3466666,26.9999962 87.1833349,26.4766681 86.87,26.19 C86.5566651,25.9033319 86.0533368,25.76 85.36,25.76 C84.9333312,25.76 84.5100021,25.8233327 84.09,25.95 C83.6699979,26.0766673 83.2066692,26.2933318 82.7,26.6 L82.46,24.9 C82.9533358,24.5933318 83.4966637,24.3566675 84.09,24.19 C84.6833363,24.0233325 85.2933302,23.94 85.92,23.94 C87.1466728,23.94 88.0399972,24.27333 88.6,24.94 C89.1600028,25.60667 89.44,26.739992 89.44,28.34 L89.44,30.64 C89.44,31.1600026 89.4633331,31.5466654 89.51,31.8 C89.5566669,32.0533346 89.6499993,32.2333328 89.79,32.34 C89.9300007,32.4466672 90.1533318,32.5 90.46,32.5 L90.7,32.5 L90.46,34.2 L90,34.2 C89.3066632,34.2 88.7833351,34.0933344 88.43,33.88 C88.0766649,33.6666656 87.7933344,33.3333356 87.58,32.88 C87.2199982,33.2933354 86.7800026,33.6166655 86.26,33.85 C85.7399974,34.0833345 85.1733364,34.2 84.56,34.2 Z M85.2,32.56 C85.5866686,32.56 85.9766647,32.4666676 86.37,32.28 C86.7633353,32.0933324 87.093332,31.833335 87.36,31.5 L87.36,29.18 C84.959988,29.2600004 83.76,29.933327 83.76,31.2 C83.76,32.1066712 84.2399952,32.56 85.2,32.56 Z M95.1,24.12 L96.94,24.12 L97.08,25.5 C97.9600044,24.4466614 98.8799952,23.92 99.84,23.92 C99.9866674,23.92 100.139999,23.9333332 100.3,23.96 L100.12,26.14 C99.9066656,26.0866664 99.666668,26.06 99.4,26.06 C98.9466644,26.06 98.520002,26.1666656 98.12,26.38 C97.719998,26.5933344 97.4333342,26.8399986 97.26,27.12 L97.26,34 L95.1,34 L95.1,24.12 Z M104.54,24.12 L106.38,24.12 L106.52,25.5 C107.400004,24.4466614 108.319995,23.92 109.28,23.92 C109.426667,23.92 109.579999,23.9333332 109.74,23.96 L109.56,26.14 C109.346666,26.0866664 109.106668,26.06 108.84,26.06 C108.386664,26.06 107.960002,26.1666656 107.56,26.38 C107.159998,26.5933344 106.873334,26.8399986 106.7,27.12 L106.7,34 L104.54,34 L104.54,24.12 Z M116.06,34.2 C115.193329,34.2 114.483336,33.933336 113.93,33.4 C113.376664,32.866664 113.1,32.166671 113.1,31.3 C113.1,30.433329 113.40333,29.7400026 114.01,29.22 C114.61667,28.6999974 115.353329,28.3300011 116.22,28.11 C117.086671,27.8899989 117.966662,27.7733334 118.86,27.76 C118.846667,26.9999962 118.683335,26.4766681 118.37,26.19 C118.056665,25.9033319 117.553337,25.76 116.86,25.76 C116.433331,25.76 116.010002,25.8233327 115.59,25.95 C115.169998,26.0766673 114.706669,26.2933318 114.2,26.6 L113.96,24.9 C114.453336,24.5933318 114.996664,24.3566675 115.59,24.19 C116.183336,24.0233325 116.79333,23.94 117.42,23.94 C118.646673,23.94 119.539997,24.27333 120.1,24.94 C120.660003,25.60667 120.94,26.739992 120.94,28.34 L120.94,30.64 C120.94,31.1600026 120.963333,31.5466654 121.01,31.8 C121.056667,32.0533346 121.149999,32.2333328 121.29,32.34 C121.430001,32.4466672 121.653332,32.5 121.96,32.5 L122.2,32.5 L121.96,34.2 L121.5,34.2 C120.806663,34.2 120.283335,34.0933344 119.93,33.88 C119.576665,33.6666656 119.293334,33.3333356 119.08,32.88 C118.719998,33.2933354 118.280003,33.6166655 117.76,33.85 C117.239997,34.0833345 116.673336,34.2 116.06,34.2 Z M116.7,32.56 C117.086669,32.56 117.476665,32.4666676 117.87,32.28 C118.263335,32.0933324 118.593332,31.833335 118.86,31.5 L118.86,29.18 C116.459988,29.2600004 115.26,29.933327 115.26,31.2 C115.26,32.1066712 115.739995,32.56 116.7,32.56 Z M131.52,23.94 C132.840007,23.94 133.819997,24.3433293 134.46,25.15 C135.100003,25.9566707 135.42,27.0799928 135.42,28.52 L135.42,34 L133.34,34 L133.34,28.6 C133.34,27.599995 133.160002,26.8700023 132.8,26.41 C132.439998,25.9499977 131.846671,25.72 131.02,25.72 C130.513331,25.72 130.060002,25.8133324 129.66,26 C129.259998,26.1866676 128.933335,26.4599982 128.68,26.82 L128.68,34 L126.6,34 L126.6,24.12 L128.38,24.12 L128.5,25.02 C129.393338,24.2999964 130.399994,23.94 131.52,23.94 Z M144.68,39.02 C143.279993,39.02 142.153338,38.7633359 141.3,38.25 C140.446662,37.7366641 140.02,37.0266712 140.02,36.12 C140.02,35.1333284 140.573328,34.3600028 141.68,33.8 C141.066664,33.466665 140.76,33.0266694 140.76,32.48 C140.76,31.8533302 141.126663,31.3800016 141.86,31.06 C141.326664,30.726665 140.920001,30.2766695 140.64,29.71 C140.359999,29.1433305 140.22,28.5066702 140.22,27.8 C140.22,27.0799964 140.379998,26.4266696 140.7,25.84 C141.020002,25.2533304 141.486664,24.7866684 142.1,24.44 C142.713336,24.0933316 143.439996,23.92 144.28,23.92 C145.160004,23.92 145.939997,24.153331 146.62,24.62 C147.260003,24.2733316 148.033329,24.1 148.94,24.1 L149.3,24.1 L149.1,25.44 L148.46,25.44 C148.139998,25.44 147.846668,25.473333 147.58,25.54 C148.073336,26.1800032 148.32,26.933329 148.32,27.8 C148.32,28.533337 148.160002,29.199997 147.84,29.8 C147.519998,30.400003 147.053336,30.8733316 146.44,31.22 C145.826664,31.5666684 145.106671,31.74 144.28,31.74 C143.866665,31.74 143.460002,31.6866672 143.06,31.58 C142.819999,31.6600004 142.7,31.8066656 142.7,32.02 C142.7,32.1800008 142.796666,32.3133328 142.99,32.42 C143.183334,32.5266672 143.493331,32.6066664 143.92,32.66 L146.16,33 C147.253339,33.1600008 148.086664,33.473331 148.66,33.94 C149.233336,34.406669 149.52,35.0466626 149.52,35.86 C149.52,36.860005 149.090004,37.6366639 148.23,38.19 C147.369996,38.7433361 146.186674,39.02 144.68,39.02 Z M144.28,30.14 C144.94667,30.14 145.463331,29.9300021 145.83,29.51 C146.196668,29.0899979 146.38,28.5266702 146.38,27.82 C146.38,27.1266632 146.196668,26.5700021 145.83,26.15 C145.463331,25.7299979 144.94667,25.52 144.28,25.52 C143.599997,25.52 143.076668,25.7299979 142.71,26.15 C142.343331,26.5700021 142.16,27.1266632 142.16,27.82 C142.16,28.5266702 142.343331,29.0899979 142.71,29.51 C143.076668,29.9300021 143.599997,30.14 144.28,30.14 Z M144.8,37.3 C146.626676,37.3 147.54,36.8533378 147.54,35.96 C147.54,35.5999982 147.393335,35.3233343 147.1,35.13 C146.806665,34.9366657 146.340003,34.7800006 145.7,34.66 L143.16,34.26 C142.306662,34.6200018 141.88,35.1199968 141.88,35.76 C141.88,36.2800026 142.136664,36.6666654 142.65,36.92 C143.163336,37.1733346 143.879995,37.3 144.8,37.3 Z M158.4,34.2 C157.266661,34.2 156.296671,33.966669 155.49,33.5 C154.683329,33.033331 154.076669,32.4066706 153.67,31.62 C153.263331,30.8333294 153.06,29.9533382 153.06,28.98 C153.06,28.0599954 153.249998,27.2166705 153.63,26.45 C154.010002,25.6833295 154.56333,25.0733356 155.29,24.62 C156.01667,24.1666644 156.879995,23.94 157.88,23.94 C159.186673,23.94 160.226663,24.3233295 161,25.09 C161.773337,25.8566705 162.16,26.8799936 162.16,28.16 C162.16,28.5066684 162.12,28.879998 162.04,29.28 L155.2,29.28 C155.333334,30.3866722 155.70333,31.1866642 156.31,31.68 C156.91667,32.1733358 157.686662,32.42 158.62,32.42 C159.673339,32.42 160.639996,32.1933356 161.52,31.74 L161.72,33.44 C160.653328,33.9466692 159.546672,34.2 158.4,34.2 Z M160.02,27.86 C160.02,27.2333302 159.840002,26.720002 159.48,26.32 C159.119998,25.919998 158.580004,25.72 157.86,25.72 C156.513327,25.72 155.666668,26.4333262 155.32,27.86 L160.02,27.86 Z M178.82,34.28 C178.006663,34.28 177.163338,34.1833343 176.29,33.99 C175.416662,33.7966657 174.726669,33.5733346 174.22,33.32 L174.5,31.02 C175.220004,31.3666684 175.986663,31.6566655 176.8,31.89 C177.613337,32.1233345 178.413329,32.24 179.2,32.24 C180.040004,32.24 180.693331,32.0866682 181.16,31.78 C181.626669,31.4733318 181.86,31.0066698 181.86,30.38 C181.86,29.913331 181.736668,29.5300015 181.49,29.23 C181.243332,28.9299985 180.886669,28.6733344 180.42,28.46 C179.953331,28.2466656 179.273338,27.9933348 178.38,27.7 C177.499996,27.4199986 176.770003,27.1233349 176.19,26.81 C175.609997,26.4966651 175.143335,26.0800026 174.79,25.56 C174.436665,25.0399974 174.26,24.3866706 174.26,23.6 C174.26,22.4399942 174.696662,21.5033369 175.57,20.79 C176.443338,20.0766631 177.686659,19.72 179.3,19.72 C180.113337,19.72 180.906663,19.8099991 181.68,19.99 C182.453337,20.1700009 183.139997,20.393332 183.74,20.66 L183.5,22.92 C182.713329,22.519998 181.97667,22.2233343 181.29,22.03 C180.60333,21.8366657 179.900004,21.74 179.18,21.74 C178.366663,21.74 177.726669,21.8866652 177.26,22.18 C176.793331,22.4733348 176.56,22.9133304 176.56,23.5 C176.56,23.9133354 176.673332,24.2566653 176.9,24.53 C177.126668,24.8033347 177.443331,25.0333324 177.85,25.22 C178.256669,25.4066676 178.839996,25.6199988 179.6,25.86 C181.186675,26.3400024 182.359996,26.91333 183.12,27.58 C183.880004,28.24667 184.26,29.1533276 184.26,30.3 C184.26,31.4600058 183.830004,32.4133296 182.97,33.16 C182.109996,33.9066704 180.726676,34.28 178.82,34.28 Z M193.44,34.2 C192.413328,34.2 191.523337,33.9700023 190.77,33.51 C190.016663,33.0499977 189.443335,32.4300039 189.05,31.65 C188.656665,30.8699961 188.46,30.0066714 188.46,29.06 C188.46,28.1133286 188.656665,27.2500039 189.05,26.47 C189.443335,25.6899961 190.016663,25.0700023 190.77,24.61 C191.523337,24.1499977 192.413328,23.92 193.44,23.92 C194.453338,23.92 195.336663,24.1499977 196.09,24.61 C196.843337,25.0700023 197.419998,25.6899961 197.82,26.47 C198.220002,27.2500039 198.42,28.1133286 198.42,29.06 C198.42,30.0066714 198.220002,30.8699961 197.82,31.65 C197.419998,32.4300039 196.843337,33.0499977 196.09,33.51 C195.336663,33.9700023 194.453338,34.2 193.44,34.2 Z M193.44,32.42 C194.346671,32.42 195.046664,32.120003 195.54,31.52 C196.033336,30.919997 196.28,30.1000052 196.28,29.06 C196.28,28.0199948 196.033336,27.200003 195.54,26.6 C195.046664,25.999997 194.346671,25.7 193.44,25.7 C192.533329,25.7 191.833336,25.999997 191.34,26.6 C190.846664,27.200003 190.6,28.0199948 190.6,29.06 C190.6,30.1000052 190.846664,30.919997 191.34,31.52 C191.833336,32.120003 192.533329,32.42 193.44,32.42 Z M208.14,23.94 C209.460007,23.94 210.439997,24.3433293 211.08,25.15 C211.720003,25.9566707 212.04,27.0799928 212.04,28.52 L212.04,34 L209.96,34 L209.96,28.6 C209.96,27.599995 209.780002,26.8700023 209.42,26.41 C209.059998,25.9499977 208.466671,25.72 207.64,25.72 C207.133331,25.72 206.680002,25.8133324 206.28,26 C205.879998,26.1866676 205.553335,26.4599982 205.3,26.82 L205.3,34 L203.22,34 L203.22,24.12 L205,24.12 L205.12,25.02 C206.013338,24.2999964 207.019994,23.94 208.14,23.94 Z M221.3,39.02 C219.899993,39.02 218.773338,38.7633359 217.92,38.25 C217.066662,37.7366641 216.64,37.0266712 216.64,36.12 C216.64,35.1333284 217.193328,34.3600028 218.3,33.8 C217.686664,33.466665 217.38,33.0266694 217.38,32.48 C217.38,31.8533302 217.746663,31.3800016 218.48,31.06 C217.946664,30.726665 217.540001,30.2766695 217.26,29.71 C216.979999,29.1433305 216.84,28.5066702 216.84,27.8 C216.84,27.0799964 216.999998,26.4266696 217.32,25.84 C217.640002,25.2533304 218.106664,24.7866684 218.72,24.44 C219.333336,24.0933316 220.059996,23.92 220.9,23.92 C221.780004,23.92 222.559997,24.153331 223.24,24.62 C223.880003,24.2733316 224.653329,24.1 225.56,24.1 L225.92,24.1 L225.72,25.44 L225.08,25.44 C224.759998,25.44 224.466668,25.473333 224.2,25.54 C224.693336,26.1800032 224.94,26.933329 224.94,27.8 C224.94,28.533337 224.780002,29.199997 224.46,29.8 C224.139998,30.400003 223.673336,30.8733316 223.06,31.22 C222.446664,31.5666684 221.726671,31.74 220.9,31.74 C220.486665,31.74 220.080002,31.6866672 219.68,31.58 C219.439999,31.6600004 219.32,31.8066656 219.32,32.02 C219.32,32.1800008 219.416666,32.3133328 219.61,32.42 C219.803334,32.5266672 220.113331,32.6066664 220.54,32.66 L222.78,33 C223.873339,33.1600008 224.706664,33.473331 225.28,33.94 C225.853336,34.406669 226.14,35.0466626 226.14,35.86 C226.14,36.860005 225.710004,37.6366639 224.85,38.19 C223.989996,38.7433361 222.806674,39.02 221.3,39.02 Z M220.9,30.14 C221.56667,30.14 222.083331,29.9300021 222.45,29.51 C222.816668,29.0899979 223,28.5266702 223,27.82 C223,27.1266632 222.816668,26.5700021 222.45,26.15 C222.083331,25.7299979 221.56667,25.52 220.9,25.52 C220.219997,25.52 219.696668,25.7299979 219.33,26.15 C218.963331,26.5700021 218.78,27.1266632 218.78,27.82 C218.78,28.5266702 218.963331,29.0899979 219.33,29.51 C219.696668,29.9300021 220.219997,30.14 220.9,30.14 Z M221.42,37.3 C223.246676,37.3 224.16,36.8533378 224.16,35.96 C224.16,35.5999982 224.013335,35.3233343 223.72,35.13 C223.426665,34.9366657 222.960003,34.7800006 222.32,34.66 L219.78,34.26 C218.926662,34.6200018 218.5,35.1199968 218.5,35.76 C218.5,36.2800026 218.756664,36.6666654 219.27,36.92 C219.783336,37.1733346 220.499995,37.3 221.42,37.3 Z" fill="#FFFFFF"></path>
    </g>
</svg>