<?xml version="1.0" encoding="UTF-8"?>
<svg width="282px" height="53px" viewBox="0 0 282 53" version="1.1" xmlns="http://www.w3.org/2000/svg" xmlns:xlink="http://www.w3.org/1999/xlink">
    <!-- Generator: Sketch 49.3 (51167) - http://www.bohemiancoding.com/sketch -->
    <title>Rename Playlist</title>
    <desc>Created with Sketch.</desc>
    <defs>
        <linearGradient x1="100%" y1="50%" x2="0%" y2="50%" id="linearGradient-1">
            <stop stop-color="#1DB954" offset="0%"></stop>
            <stop stop-color="#1DB954" stop-opacity="0.5" offset="100%"></stop>
        </linearGradient>
    </defs>
    <g id="Rename-Playlist" stroke="none" stroke-width="1" fill="none" fill-rule="evenodd">
        <polygon fill="url(#linearGradient-1)" points="243.161677 53 0 53 38.8383234 26.4990063 0 0 243.161677 0 282 26.4990063"></polygon>
        <path d="M51.58,20 L56.36,20 C57.8800076,20 59.0666624,20.3533298 59.92,21.06 C60.7733376,21.7666702 61.2,22.8333262 61.2,24.26 C61.2,26.0866758 60.3933414,27.3866628 58.78,28.16 L61.92,34 L59.38,34 L56.6,28.66 L53.82,28.66 L53.82,34 L51.58,34 L51.58,20 Z M56.06,26.76 C57.0200048,26.76 57.7366643,26.5433355 58.21,26.11 C58.6833357,25.6766645 58.92,25.0800038 58.92,24.32 C58.92,23.5333294 58.686669,22.9300021 58.22,22.51 C57.753331,22.0899979 57.0466714,21.88 56.1,21.88 L53.82,21.88 L53.82,26.76 L56.06,26.76 Z M70.82,34.2 C69.686661,34.2 68.7166707,33.966669 67.91,33.5 C67.1033293,33.033331 66.4966687,32.4066706 66.09,31.62 C65.6833313,30.8333294 65.48,29.9533382 65.48,28.98 C65.48,28.0599954 65.6699981,27.2166705 66.05,26.45 C66.4300019,25.6833295 66.9833297,25.0733356 67.71,24.62 C68.4366703,24.1666644 69.299995,23.94 70.3,23.94 C71.6066732,23.94 72.6466628,24.3233295 73.42,25.09 C74.1933372,25.8566705 74.58,26.8799936 74.58,28.16 C74.58,28.5066684 74.5400004,28.879998 74.46,29.28 L67.62,29.28 C67.753334,30.3866722 68.1233303,31.1866642 68.73,31.68 C69.3366697,32.1733358 70.106662,32.42 71.04,32.42 C72.0933386,32.42 73.0599956,32.1933356 73.94,31.74 L74.14,33.44 C73.073328,33.9466692 71.9666724,34.2 70.82,34.2 Z M72.44,27.86 C72.44,27.2333302 72.2600018,26.720002 71.9,26.32 C71.5399982,25.919998 71.0000036,25.72 70.28,25.72 C68.9333266,25.72 68.0866684,26.4333262 67.74,27.86 L72.44,27.86 Z M84.26,23.94 C85.5800066,23.94 86.5599968,24.3433293 87.2,25.15 C87.8400032,25.9566707 88.16,27.0799928 88.16,28.52 L88.16,34 L86.08,34 L86.08,28.6 C86.08,27.599995 85.9000018,26.8700023 85.54,26.41 C85.1799982,25.9499977 84.5866708,25.72 83.76,25.72 C83.2533308,25.72 82.800002,25.8133324 82.4,26 C81.999998,26.1866676 81.6733346,26.4599982 81.42,26.82 L81.42,34 L79.34,34 L79.34,24.12 L81.12,24.12 L81.24,25.02 C82.1333378,24.2999964 83.1399944,23.94 84.26,23.94 Z M95.68,34.2 C94.813329,34.2 94.1033361,33.933336 93.55,33.4 C92.9966639,32.866664 92.72,32.166671 92.72,31.3 C92.72,30.433329 93.0233303,29.7400026 93.63,29.22 C94.2366697,28.6999974 94.973329,28.3300011 95.84,28.11 C96.706671,27.8899989 97.5866622,27.7733334 98.48,27.76 C98.4666666,26.9999962 98.3033349,26.4766681 97.99,26.19 C97.6766651,25.9033319 97.1733368,25.76 96.48,25.76 C96.0533312,25.76 95.6300021,25.8233327 95.21,25.95 C94.7899979,26.0766673 94.3266692,26.2933318 93.82,26.6 L93.58,24.9 C94.0733358,24.5933318 94.6166637,24.3566675 95.21,24.19 C95.8033363,24.0233325 96.4133302,23.94 97.04,23.94 C98.2666728,23.94 99.1599972,24.27333 99.72,24.94 C100.280003,25.60667 100.56,26.739992 100.56,28.34 L100.56,30.64 C100.56,31.1600026 100.583333,31.5466654 100.63,31.8 C100.676667,32.0533346 100.769999,32.2333328 100.91,32.34 C101.050001,32.4466672 101.273332,32.5 101.58,32.5 L101.82,32.5 L101.58,34.2 L101.12,34.2 C100.426663,34.2 99.9033351,34.0933344 99.55,33.88 C99.1966649,33.6666656 98.9133344,33.3333356 98.7,32.88 C98.3399982,33.2933354 97.9000026,33.6166655 97.38,33.85 C96.8599974,34.0833345 96.2933364,34.2 95.68,34.2 Z M96.32,32.56 C96.7066686,32.56 97.0966647,32.4666676 97.49,32.28 C97.8833353,32.0933324 98.213332,31.833335 98.48,31.5 L98.48,29.18 C96.079988,29.2600004 94.88,29.933327 94.88,31.2 C94.88,32.1066712 95.3599952,32.56 96.32,32.56 Z M117.56,23.94 C118.840006,23.94 119.799997,24.3133296 120.44,25.06 C121.080003,25.8066704 121.4,26.8933262 121.4,28.32 L121.4,34 L119.3,34 L119.3,28.4 C119.3,27.466662 119.133335,26.7866688 118.8,26.36 C118.466665,25.9333312 117.92667,25.72 117.18,25.72 C115.633326,25.72 114.86,26.6066578 114.86,28.38 L114.86,34 L112.76,34 L112.76,28.6 C112.76,27.5599948 112.580002,26.8200022 112.22,26.38 C111.859998,25.9399978 111.32667,25.72 110.62,25.72 C109.593328,25.72 108.820003,26.0799964 108.3,26.8 L108.3,34 L106.22,34 L106.22,24.12 L107.92,24.12 L108.08,25.06 C108.986671,24.3133296 109.993328,23.94 111.1,23.94 C112.51334,23.94 113.526664,24.506661 114.14,25.64 C114.860004,24.506661 115.999992,23.94 117.56,23.94 Z M131.44,34.2 C130.306661,34.2 129.336671,33.966669 128.53,33.5 C127.723329,33.033331 127.116669,32.4066706 126.71,31.62 C126.303331,30.8333294 126.1,29.9533382 126.1,28.98 C126.1,28.0599954 126.289998,27.2166705 126.67,26.45 C127.050002,25.6833295 127.60333,25.0733356 128.33,24.62 C129.05667,24.1666644 129.919995,23.94 130.92,23.94 C132.226673,23.94 133.266663,24.3233295 134.04,25.09 C134.813337,25.8566705 135.2,26.8799936 135.2,28.16 C135.2,28.5066684 135.16,28.879998 135.08,29.28 L128.24,29.28 C128.373334,30.3866722 128.74333,31.1866642 129.35,31.68 C129.95667,32.1733358 130.726662,32.42 131.66,32.42 C132.713339,32.42 133.679996,32.1933356 134.56,31.74 L134.76,33.44 C133.693328,33.9466692 132.586672,34.2 131.44,34.2 Z M133.06,27.86 C133.06,27.2333302 132.880002,26.720002 132.52,26.32 C132.159998,25.919998 131.620004,25.72 130.9,25.72 C129.553327,25.72 128.706668,26.4333262 128.36,27.86 L133.06,27.86 Z M147.84,20 L152.6,20 C155.826683,20 157.44,21.5133182 157.44,24.54 C157.44,26.0866744 157.023337,27.2366629 156.19,27.99 C155.356662,28.7433371 154.173341,29.12 152.64,29.12 L150.08,29.12 L150.08,34 L147.84,34 L147.84,20 Z M152.34,27.24 C153.300005,27.24 154.019998,27.0200022 154.5,26.58 C154.980002,26.1399978 155.22,25.4666712 155.22,24.56 C155.22,23.6399954 154.986669,22.9633355 154.52,22.53 C154.053331,22.0966645 153.320005,21.88 152.32,21.88 L150.08,21.88 L150.08,27.24 L152.34,27.24 Z M164.54,34.2 C163.673329,34.2 163.030002,33.966669 162.61,33.5 C162.189998,33.033331 161.98,32.4400036 161.98,31.72 L161.98,19 L164.08,19 L164.08,30.7 C164.08,31.2600028 164.113333,31.6633321 164.18,31.91 C164.246667,32.1566679 164.373332,32.3166663 164.56,32.39 C164.746668,32.4633337 165.059998,32.5 165.5,32.5 L165.24,34.2 L164.54,34.2 Z M172.16,34.2 C171.293329,34.2 170.583336,33.933336 170.03,33.4 C169.476664,32.866664 169.2,32.166671 169.2,31.3 C169.2,30.433329 169.50333,29.7400026 170.11,29.22 C170.71667,28.6999974 171.453329,28.3300011 172.32,28.11 C173.186671,27.8899989 174.066662,27.7733334 174.96,27.76 C174.946667,26.9999962 174.783335,26.4766681 174.47,26.19 C174.156665,25.9033319 173.653337,25.76 172.96,25.76 C172.533331,25.76 172.110002,25.8233327 171.69,25.95 C171.269998,26.0766673 170.806669,26.2933318 170.3,26.6 L170.06,24.9 C170.553336,24.5933318 171.096664,24.3566675 171.69,24.19 C172.283336,24.0233325 172.89333,23.94 173.52,23.94 C174.746673,23.94 175.639997,24.27333 176.2,24.94 C176.760003,25.60667 177.04,26.739992 177.04,28.34 L177.04,30.64 C177.04,31.1600026 177.063333,31.5466654 177.11,31.8 C177.156667,32.0533346 177.249999,32.2333328 177.39,32.34 C177.530001,32.4466672 177.753332,32.5 178.06,32.5 L178.3,32.5 L178.06,34.2 L177.6,34.2 C176.906663,34.2 176.383335,34.0933344 176.03,33.88 C175.676665,33.6666656 175.393334,33.3333356 175.18,32.88 C174.819998,33.2933354 174.380003,33.6166655 173.86,33.85 C173.339997,34.0833345 172.773336,34.2 172.16,34.2 Z M172.8,32.56 C173.186669,32.56 173.576665,32.4666676 173.97,32.28 C174.363335,32.0933324 174.693332,31.833335 174.96,31.5 L174.96,29.18 C172.559988,29.2600004 171.36,29.933327 171.36,31.2 C171.36,32.1066712 171.839995,32.56 172.8,32.56 Z M185.3,33.46 L181.18,24.12 L183.52,24.12 L186.36,31.04 L189.06,24.12 L191.38,24.12 L185.26,38.84 L183.06,38.84 L185.3,33.46 Z M198.22,34.2 C197.353329,34.2 196.710002,33.966669 196.29,33.5 C195.869998,33.033331 195.66,32.4400036 195.66,31.72 L195.66,19 L197.76,19 L197.76,30.7 C197.76,31.2600028 197.793333,31.6633321 197.86,31.91 C197.926667,32.1566679 198.053332,32.3166663 198.24,32.39 C198.426668,32.4633337 198.739998,32.5 199.18,32.5 L198.92,34.2 L198.22,34.2 Z M203.62,20 L205.7,20 L205.7,22.2 L203.62,22.2 L203.62,20 Z M203.62,24.12 L205.7,24.12 L205.7,34 L203.62,34 L203.62,24.12 Z M213.9,34.2 C212.64666,34.2 211.526672,33.933336 210.54,33.4 L210.76,31.48 C211.146669,31.7600014 211.599997,31.9966657 212.12,32.19 C212.640003,32.3833343 213.206664,32.48 213.82,32.48 C214.393336,32.48 214.833332,32.3866676 215.14,32.2 C215.446668,32.0133324 215.6,31.7333352 215.6,31.36 C215.6,30.9466646 215.436668,30.6300011 215.11,30.41 C214.783332,30.1899989 214.30667,29.980001 213.68,29.78 C213.039997,29.5666656 212.513335,29.3566677 212.1,29.15 C211.686665,28.9433323 211.346668,28.6533352 211.08,28.28 C210.813332,27.9066648 210.68,27.4266696 210.68,26.84 C210.68,25.9999958 210.996664,25.3033361 211.63,24.75 C212.263336,24.1966639 213.179994,23.92 214.38,23.92 C215.420005,23.92 216.366662,24.153331 217.22,24.62 L217,26.46 C216.586665,26.1533318 216.176669,25.9166675 215.77,25.75 C215.363331,25.5833325 214.913336,25.5 214.42,25.5 C213.899997,25.5 213.493335,25.599999 213.2,25.8 C212.906665,26.000001 212.76,26.2933314 212.76,26.68 C212.76,26.9600014 212.833333,27.1866658 212.98,27.36 C213.126667,27.5333342 213.339999,27.6799994 213.62,27.8 C213.900001,27.9200006 214.339997,28.0866656 214.94,28.3 C215.793338,28.5933348 216.469997,28.9533312 216.97,29.38 C217.470002,29.8066688 217.72,30.4333292 217.72,31.26 C217.72,32.1133376 217.410003,32.8166639 216.79,33.37 C216.169997,33.9233361 215.206673,34.2 213.9,34.2 Z M225.78,34.2 C224.913329,34.2 224.263335,33.9633357 223.83,33.49 C223.396664,33.0166643 223.18,32.4333368 223.18,31.74 L223.18,25.78 L221.6,25.78 L221.78,24.12 L223.18,24.12 L223.18,21.78 L225.26,21.58 L225.26,24.12 L227.68,24.12 L227.68,25.78 L225.26,25.78 L225.26,30.68 C225.26,31.2933364 225.296666,31.7166655 225.37,31.95 C225.443334,32.1833345 225.593332,32.333333 225.82,32.4 C226.046668,32.466667 226.47333,32.5 227.1,32.5 L227.64,32.5 L227.48,34.2 L225.78,34.2 Z" fill="#FFFFFF"></path>
    </g>
</svg>