<?xml version="1.0" encoding="UTF-8"?>
<svg width="282px" height="53px" viewBox="0 0 282 53" version="1.1" xmlns="http://www.w3.org/2000/svg" xmlns:xlink="http://www.w3.org/1999/xlink">
    <!-- Generator: Sketch 49.3 (51167) - http://www.bohemiancoding.com/sketch -->
    <title>Share Playlist</title>
    <desc>Created with Sketch.</desc>
    <defs>
        <linearGradient x1="100%" y1="50%" x2="0%" y2="50%" id="linearGradient-1">
            <stop stop-color="#1DB954" offset="0%"></stop>
            <stop stop-color="#1DB954" stop-opacity="0.5" offset="100%"></stop>
        </linearGradient>
    </defs>
    <g id="Share-Playlist" stroke="none" stroke-width="1" fill="none" fill-rule="evenodd">
        <polygon fill="url(#linearGradient-1)" points="282 53 0 53 38.8383234 26.4990063 0 0 282 0 282 26.4990063"></polygon>
        <path d="M83.6,34.28 C82.7866626,34.28 81.9433377,34.1833343 81.07,33.99 C80.1966623,33.7966657 79.5066692,33.5733346 79,33.32 L79.28,31.02 C80.0000036,31.3666684 80.7666626,31.6566655 81.58,31.89 C82.3933374,32.1233345 83.1933294,32.24 83.98,32.24 C84.8200042,32.24 85.473331,32.0866682 85.94,31.78 C86.406669,31.4733318 86.64,31.0066698 86.64,30.38 C86.64,29.913331 86.5166679,29.5300015 86.27,29.23 C86.0233321,28.9299985 85.666669,28.6733344 85.2,28.46 C84.733331,28.2466656 84.0533378,27.9933348 83.16,27.7 C82.2799956,27.4199986 81.5500029,27.1233349 80.97,26.81 C80.3899971,26.4966651 79.9233351,26.0800026 79.57,25.56 C79.2166649,25.0399974 79.04,24.3866706 79.04,23.6 C79.04,22.4399942 79.4766623,21.5033369 80.35,20.79 C81.2233377,20.0766631 82.4666586,19.72 84.08,19.72 C84.8933374,19.72 85.6866628,19.8099991 86.46,19.99 C87.2333372,20.1700009 87.919997,20.393332 88.52,20.66 L88.28,22.92 C87.4933294,22.519998 86.7566701,22.2233343 86.07,22.03 C85.3833299,21.8366657 84.6800036,21.74 83.96,21.74 C83.1466626,21.74 82.506669,21.8866652 82.04,22.18 C81.573331,22.4733348 81.34,22.9133304 81.34,23.5 C81.34,23.9133354 81.4533322,24.2566653 81.68,24.53 C81.9066678,24.8033347 82.2233313,25.0333324 82.63,25.22 C83.0366687,25.4066676 83.6199962,25.6199988 84.38,25.86 C85.9666746,26.3400024 87.1399962,26.91333 87.9,27.58 C88.6600038,28.24667 89.04,29.1533276 89.04,30.3 C89.04,31.4600058 88.6100043,32.4133296 87.75,33.16 C86.8899957,33.9066704 85.5066762,34.28 83.6,34.28 Z M98.54,23.94 C99.7933396,23.94 100.739997,24.3466626 101.38,25.16 C102.020003,25.9733374 102.34,27.0866596 102.34,28.5 L102.34,34 L100.26,34 L100.26,28.7 C100.26,27.6733282 100.080002,26.9200024 99.72,26.44 C99.3599982,25.9599976 98.8000038,25.72 98.04,25.72 C97.1199954,25.72 96.3733362,26.0933296 95.8,26.84 L95.8,34 L93.7,34 L93.7,19 L95.8,19 L95.8,24.92 C96.1866686,24.5999984 96.5966645,24.3566675 97.03,24.19 C97.4633355,24.0233325 97.9666638,23.94 98.54,23.94 Z M109.86,34.2 C108.993329,34.2 108.283336,33.933336 107.73,33.4 C107.176664,32.866664 106.9,32.166671 106.9,31.3 C106.9,30.433329 107.20333,29.7400026 107.81,29.22 C108.41667,28.6999974 109.153329,28.3300011 110.02,28.11 C110.886671,27.8899989 111.766662,27.7733334 112.66,27.76 C112.646667,26.9999962 112.483335,26.4766681 112.17,26.19 C111.856665,25.9033319 111.353337,25.76 110.66,25.76 C110.233331,25.76 109.810002,25.8233327 109.39,25.95 C108.969998,26.0766673 108.506669,26.2933318 108,26.6 L107.76,24.9 C108.253336,24.5933318 108.796664,24.3566675 109.39,24.19 C109.983336,24.0233325 110.59333,23.94 111.22,23.94 C112.446673,23.94 113.339997,24.27333 113.9,24.94 C114.460003,25.60667 114.74,26.739992 114.74,28.34 L114.74,30.64 C114.74,31.1600026 114.763333,31.5466654 114.81,31.8 C114.856667,32.0533346 114.949999,32.2333328 115.09,32.34 C115.230001,32.4466672 115.453332,32.5 115.76,32.5 L116,32.5 L115.76,34.2 L115.3,34.2 C114.606663,34.2 114.083335,34.0933344 113.73,33.88 C113.376665,33.6666656 113.093334,33.3333356 112.88,32.88 C112.519998,33.2933354 112.080003,33.6166655 111.56,33.85 C111.039997,34.0833345 110.473336,34.2 109.86,34.2 Z M110.5,32.56 C110.886669,32.56 111.276665,32.4666676 111.67,32.28 C112.063335,32.0933324 112.393332,31.833335 112.66,31.5 L112.66,29.18 C110.259988,29.2600004 109.06,29.933327 109.06,31.2 C109.06,32.1066712 109.539995,32.56 110.5,32.56 Z M120.4,24.12 L122.24,24.12 L122.38,25.5 C123.260004,24.4466614 124.179995,23.92 125.14,23.92 C125.286667,23.92 125.439999,23.9333332 125.6,23.96 L125.42,26.14 C125.206666,26.0866664 124.966668,26.06 124.7,26.06 C124.246664,26.06 123.820002,26.1666656 123.42,26.38 C123.019998,26.5933344 122.733334,26.8399986 122.56,27.12 L122.56,34 L120.4,34 L120.4,24.12 Z M134.36,34.2 C133.226661,34.2 132.256671,33.966669 131.45,33.5 C130.643329,33.033331 130.036669,32.4066706 129.63,31.62 C129.223331,30.8333294 129.02,29.9533382 129.02,28.98 C129.02,28.0599954 129.209998,27.2166705 129.59,26.45 C129.970002,25.6833295 130.52333,25.0733356 131.25,24.62 C131.97667,24.1666644 132.839995,23.94 133.84,23.94 C135.146673,23.94 136.186663,24.3233295 136.96,25.09 C137.733337,25.8566705 138.12,26.8799936 138.12,28.16 C138.12,28.5066684 138.08,28.879998 138,29.28 L131.16,29.28 C131.293334,30.3866722 131.66333,31.1866642 132.27,31.68 C132.87667,32.1733358 133.646662,32.42 134.58,32.42 C135.633339,32.42 136.599996,32.1933356 137.48,31.74 L137.68,33.44 C136.613328,33.9466692 135.506672,34.2 134.36,34.2 Z M135.98,27.86 C135.98,27.2333302 135.800002,26.720002 135.44,26.32 C135.079998,25.919998 134.540004,25.72 133.82,25.72 C132.473327,25.72 131.626668,26.4333262 131.28,27.86 L135.98,27.86 Z M150.76,20 L155.52,20 C158.746683,20 160.36,21.5133182 160.36,24.54 C160.36,26.0866744 159.943338,27.2366629 159.11,27.99 C158.276663,28.7433371 157.093341,29.12 155.56,29.12 L153,29.12 L153,34 L150.76,34 L150.76,20 Z M155.26,27.24 C156.220005,27.24 156.939998,27.0200022 157.42,26.58 C157.900002,26.1399978 158.14,25.4666712 158.14,24.56 C158.14,23.6399954 157.906669,22.9633355 157.44,22.53 C156.973331,22.0966645 156.240005,21.88 155.24,21.88 L153,21.88 L153,27.24 L155.26,27.24 Z M167.46,34.2 C166.593329,34.2 165.950002,33.966669 165.53,33.5 C165.109998,33.033331 164.9,32.4400036 164.9,31.72 L164.9,19 L167,19 L167,30.7 C167,31.2600028 167.033333,31.6633321 167.1,31.91 C167.166667,32.1566679 167.293332,32.3166663 167.48,32.39 C167.666668,32.4633337 167.979998,32.5 168.42,32.5 L168.16,34.2 L167.46,34.2 Z M175.08,34.2 C174.213329,34.2 173.503336,33.933336 172.95,33.4 C172.396664,32.866664 172.12,32.166671 172.12,31.3 C172.12,30.433329 172.42333,29.7400026 173.03,29.22 C173.63667,28.6999974 174.373329,28.3300011 175.24,28.11 C176.106671,27.8899989 176.986662,27.7733334 177.88,27.76 C177.866667,26.9999962 177.703335,26.4766681 177.39,26.19 C177.076665,25.9033319 176.573337,25.76 175.88,25.76 C175.453331,25.76 175.030002,25.8233327 174.61,25.95 C174.189998,26.0766673 173.726669,26.2933318 173.22,26.6 L172.98,24.9 C173.473336,24.5933318 174.016664,24.3566675 174.61,24.19 C175.203336,24.0233325 175.81333,23.94 176.44,23.94 C177.666673,23.94 178.559997,24.27333 179.12,24.94 C179.680003,25.60667 179.96,26.739992 179.96,28.34 L179.96,30.64 C179.96,31.1600026 179.983333,31.5466654 180.03,31.8 C180.076667,32.0533346 180.169999,32.2333328 180.31,32.34 C180.450001,32.4466672 180.673332,32.5 180.98,32.5 L181.22,32.5 L180.98,34.2 L180.52,34.2 C179.826663,34.2 179.303335,34.0933344 178.95,33.88 C178.596665,33.6666656 178.313334,33.3333356 178.1,32.88 C177.739998,33.2933354 177.300003,33.6166655 176.78,33.85 C176.259997,34.0833345 175.693336,34.2 175.08,34.2 Z M175.72,32.56 C176.106669,32.56 176.496665,32.4666676 176.89,32.28 C177.283335,32.0933324 177.613332,31.833335 177.88,31.5 L177.88,29.18 C175.479988,29.2600004 174.28,29.933327 174.28,31.2 C174.28,32.1066712 174.759995,32.56 175.72,32.56 Z M188.22,33.46 L184.1,24.12 L186.44,24.12 L189.28,31.04 L191.98,24.12 L194.3,24.12 L188.18,38.84 L185.98,38.84 L188.22,33.46 Z M201.14,34.2 C200.273329,34.2 199.630002,33.966669 199.21,33.5 C198.789998,33.033331 198.58,32.4400036 198.58,31.72 L198.58,19 L200.68,19 L200.68,30.7 C200.68,31.2600028 200.713333,31.6633321 200.78,31.91 C200.846667,32.1566679 200.973332,32.3166663 201.16,32.39 C201.346668,32.4633337 201.659998,32.5 202.1,32.5 L201.84,34.2 L201.14,34.2 Z M206.54,20 L208.62,20 L208.62,22.2 L206.54,22.2 L206.54,20 Z M206.54,24.12 L208.62,24.12 L208.62,34 L206.54,34 L206.54,24.12 Z M216.82,34.2 C215.56666,34.2 214.446672,33.933336 213.46,33.4 L213.68,31.48 C214.066669,31.7600014 214.519997,31.9966657 215.04,32.19 C215.560003,32.3833343 216.126664,32.48 216.74,32.48 C217.313336,32.48 217.753332,32.3866676 218.06,32.2 C218.366668,32.0133324 218.52,31.7333352 218.52,31.36 C218.52,30.9466646 218.356668,30.6300011 218.03,30.41 C217.703332,30.1899989 217.22667,29.980001 216.6,29.78 C215.959997,29.5666656 215.433335,29.3566677 215.02,29.15 C214.606665,28.9433323 214.266668,28.6533352 214,28.28 C213.733332,27.9066648 213.6,27.4266696 213.6,26.84 C213.6,25.9999958 213.916663,25.3033361 214.55,24.75 C215.183336,24.1966639 216.099994,23.92 217.3,23.92 C218.340005,23.92 219.286662,24.153331 220.14,24.62 L219.92,26.46 C219.506665,26.1533318 219.096669,25.9166675 218.69,25.75 C218.283331,25.5833325 217.833336,25.5 217.34,25.5 C216.819997,25.5 216.413335,25.599999 216.12,25.8 C215.826665,26.000001 215.68,26.2933314 215.68,26.68 C215.68,26.9600014 215.753333,27.1866658 215.9,27.36 C216.046667,27.5333342 216.259999,27.6799994 216.54,27.8 C216.820001,27.9200006 217.259997,28.0866656 217.86,28.3 C218.713338,28.5933348 219.389997,28.9533312 219.89,29.38 C220.390002,29.8066688 220.64,30.4333292 220.64,31.26 C220.64,32.1133376 220.330003,32.8166639 219.71,33.37 C219.089997,33.9233361 218.126673,34.2 216.82,34.2 Z M228.7,34.2 C227.833329,34.2 227.183335,33.9633357 226.75,33.49 C226.316665,33.0166643 226.1,32.4333368 226.1,31.74 L226.1,25.78 L224.52,25.78 L224.7,24.12 L226.1,24.12 L226.1,21.78 L228.18,21.58 L228.18,24.12 L230.6,24.12 L230.6,25.78 L228.18,25.78 L228.18,30.68 C228.18,31.2933364 228.216666,31.7166655 228.29,31.95 C228.363334,32.1833345 228.513332,32.333333 228.74,32.4 C228.966668,32.466667 229.39333,32.5 230.02,32.5 L230.56,32.5 L230.4,34.2 L228.7,34.2 Z" fill="#FFFFFF"></path>
    </g>
</svg>