<?xml version="1.0" encoding="UTF-8"?>
<svg width="189px" height="95px" viewBox="0 0 189 95" version="1.1" xmlns="http://www.w3.org/2000/svg" xmlns:xlink="http://www.w3.org/1999/xlink">
    <!-- Generator: Sketch 49.3 (51167) - http://www.bohemiancoding.com/sketch -->
    <title>Thought Bubble (premium) 1</title>
    <desc>Created with Sketch.</desc>
    <defs></defs>
    <g id="Spotify" stroke="none" stroke-width="1" fill="none" fill-rule="evenodd">
        <g id="Journey-Map-@2" transform="translate(-980.000000, -481.000000)">
            <g id="Thought-Bubble-(premium)-1" transform="translate(980.000000, 481.000000)">
                <path d="M165.126316,61.7793594 L52.9697368,61.7793594 C52.9697368,61.7793594 48.2745789,61.7972954 46.5855158,64.2704626 C44.3473579,67.5507473 43.8499895,70 38.5460526,70 C33.8210526,70 32.1618316,65.350605 29.9236737,63.4812811 C27.6855158,61.6139502 23.8736842,61.7793594 23.8736842,61.7793594 C10.7411684,61.7793594 0,51.0177936 0,37.8647687 L0,23.9145907 C0,10.7615658 10.7411684,0 23.8736842,0 L165.126316,0 C178.256842,0 189,10.7615658 189,23.9145907 L189,37.8647687 C189,51.0177936 178.256842,61.7793594 165.126316,61.7793594" id="Fill-5" fill="#6C96CE"></path>
                <path d="M51,79 C51,82.3144016 48.3148555,85 45.001014,85 C41.6871726,85 39,82.3144016 39,79 C39,75.6855984 41.6871726,73 45.001014,73 C48.3148555,73 51,75.6855984 51,79" id="Fill-8" fill="#6C96CE"></path>
                <path d="M57,90.499035 C57,92.9849882 54.984556,95 52.5,95 C50.015444,95 48,92.9849882 48,90.499035 C48,88.0130817 50.015444,86 52.5,86 C54.984556,86 57,88.0130817 57,90.499035" id="Fill-10" fill="#6C96CE"></path>
                <text id="I'd-have-to-scroll-a" font-family="Cabin-Regular, Cabin" font-size="14" font-weight="normal" fill="#FFFFFF">
                    <tspan x="27.965" y="18">I'd have to scroll all the </tspan>
                    <tspan x="30.31" y="36">way to the bottom; I'll </tspan>
                    <tspan x="37.996" y="54">just do Edit, Create.</tspan>
                </text>
            </g>
        </g>
    </g>
</svg>