<?xml version="1.0" encoding="UTF-8"?>
<svg width="1496px" height="56px" viewBox="0 0 1496 56" version="1.1" xmlns="http://www.w3.org/2000/svg" xmlns:xlink="http://www.w3.org/1999/xlink">
    <!-- Generator: Sketch 49.3 (51167) - http://www.bohemiancoding.com/sketch -->
    <title>Thoughts Header</title>
    <desc>Created with Sketch.</desc>
    <defs></defs>
    <g id="Symbols" stroke="none" stroke-width="1" fill="none" fill-rule="evenodd">
        <g id="Thoughts-Header" transform="translate(1.000000, -8.000000)">
            <g>
                <path d="M8.094,15.112 L0.57,15.112 L0.57,10.4 L20.482,10.4 L20.482,15.112 L12.958,15.112 L12.958,37 L8.094,37 L8.094,15.112 Z M33.642,17.696 C36.0486787,17.696 37.8409941,18.4749922 39.019,20.033 C40.1970059,21.5910078 40.786,23.7253198 40.786,26.436 L40.786,37 L36.074,37 L36.074,26.778 C36.074,24.9793243 35.7826696,23.6620042 35.2,22.826 C34.6173304,21.9899958 33.692673,21.572 32.426,21.572 C30.9313259,21.572 29.7026715,22.1166612 28.74,23.206 L28.74,37 L24.028,37 L24.028,8.5 L28.74,8.5 L28.74,19.216 C29.5000038,18.7346643 30.2726627,18.3610013 31.058,18.095 C31.8433373,17.8289987 32.704662,17.696 33.642,17.696 Z M54.63,37.38 C52.6286567,37.38 50.8933407,36.9366711 49.424,36.05 C47.9546593,35.1633289 46.8273373,33.9726741 46.042,32.478 C45.2566627,30.9833259 44.864,29.3366757 44.864,27.538 C44.864,25.7393243 45.2566627,24.0800076 46.042,22.56 C46.8273373,21.0399924 47.9546593,19.8366711 49.424,18.95 C50.8933407,18.0633289 52.6286567,17.62 54.63,17.62 C56.6313433,17.62 58.3666593,18.0633289 59.836,18.95 C61.3053407,19.8366711 62.4326627,21.0399924 63.218,22.56 C64.0033373,24.0800076 64.396,25.7393243 64.396,27.538 C64.396,29.3366757 64.0033373,30.9833259 63.218,32.478 C62.4326627,33.9726741 61.3053407,35.1633289 59.836,36.05 C58.3666593,36.9366711 56.6313433,37.38 54.63,37.38 Z M54.63,33.504 C56.1753411,33.504 57.3849956,32.9593388 58.259,31.87 C59.1330044,30.7806612 59.57,29.3366757 59.57,27.538 C59.57,25.7139909 59.1330044,24.2510055 58.259,23.149 C57.3849956,22.0469945 56.1753411,21.496 54.63,21.496 C53.0846589,21.496 51.8750044,22.0469945 51.001,23.149 C50.1269956,24.2510055 49.69,25.7139909 49.69,27.538 C49.69,29.3366757 50.1269956,30.7806612 51.001,31.87 C51.8750044,32.9593388 53.0846589,33.504 54.63,33.504 Z M85.232,18 L85.232,37 L80.824,37 L80.748,35.86 C80.1653304,36.2906688 79.4940038,36.6516652 78.734,36.943 C77.9739962,37.2343348 77.2393369,37.38 76.53,37.38 C73.7179859,37.38 71.6723397,36.5693414 70.393,34.948 C69.1136603,33.3266586 68.474,31.084681 68.474,28.222 L68.474,18 L73.186,18 L73.186,28.222 C73.186,29.9953422 73.4836637,31.3063291 74.079,32.155 C74.6743363,33.0036709 75.6306601,33.428 76.948,33.428 C78.4173407,33.428 79.6079954,32.8960053 80.52,31.832 L80.52,18 L85.232,18 Z M98.164,46.576 C95.4786532,46.576 93.338008,46.0883382 91.742,45.113 C90.145992,44.1376618 89.348,42.8140084 89.348,41.142 C89.348,39.3179909 90.3739897,37.8233392 92.426,36.658 C91.3113278,35.9739966 90.754,35.0746722 90.754,33.96 C90.754,33.3773304 90.9249983,32.8580023 91.267,32.402 C91.6090017,31.9459977 92.0713304,31.5786681 92.654,31.3 C91.6913285,30.6159966 90.9630025,29.7420053 90.469,28.678 C89.9749975,27.6139947 89.728,26.448673 89.728,25.182 C89.728,23.7886597 90.031997,22.5156724 90.64,21.363 C91.248003,20.2103276 92.1346608,19.2983367 93.3,18.627 C94.4653392,17.9556633 95.845992,17.62 97.442,17.62 C99.1140084,17.62 100.557994,18.0253293 101.774,18.836 C102.204669,18.6079989 102.780996,18.4116675 103.503,18.247 C104.225004,18.0823325 105.003996,18 105.84,18 L107.056,18 L106.752,20.964 L105.042,20.964 C104.611331,20.964 104.256668,20.9766665 103.978,21.002 C104.738004,22.1673392 105.118,23.5606586 105.118,25.182 C105.118,26.5753403 104.820336,27.8483276 104.225,29.001 C103.629664,30.1536724 102.749339,31.0656633 101.584,31.737 C100.418661,32.4083367 99.038008,32.744 97.442,32.744 C96.8593304,32.744 96.1880038,32.6553342 95.428,32.478 C95.1493319,32.6046673 95.01,32.8073319 95.01,33.086 C95.01,33.415335 95.2063314,33.674999 95.599,33.865 C95.9916686,34.055001 96.656662,34.2133327 97.594,34.34 L100.862,34.758 C105.219355,35.3406696 107.398,37.1773179 107.398,40.268 C107.398,42.193343 106.581008,43.7259943 104.947,44.866 C103.312992,46.0060057 101.052014,46.576 98.164,46.576 Z M97.442,29.248 C98.5313388,29.248 99.3736637,28.8870036 99.969,28.165 C100.564336,27.4429964 100.862,26.448673 100.862,25.182 C100.862,23.915327 100.564336,22.9210036 99.969,22.199 C99.3736637,21.4769964 98.5313388,21.116 97.442,21.116 C96.3273278,21.116 95.4723363,21.4769964 94.877,22.199 C94.2816637,22.9210036 93.984,23.915327 93.984,25.182 C93.984,26.448673 94.2816637,27.4429964 94.877,28.165 C95.4723363,28.8870036 96.3273278,29.248 97.442,29.248 Z M98.354,43.004 C101.596683,43.004 103.218,42.206008 103.218,40.61 C103.218,39.9006631 102.939336,39.3750017 102.382,39.033 C101.824664,38.6909983 100.900006,38.4186677 99.608,38.216 L95.428,37.608 C93.9839928,38.1906696 93.262,39.0773274 93.262,40.268 C93.262,41.1800046 93.7053289,41.8639977 94.592,42.32 C95.4786711,42.7760023 96.7326586,43.004 98.354,43.004 Z M120.254,17.696 C122.660679,17.696 124.452994,18.4749922 125.631,20.033 C126.809006,21.5910078 127.398,23.7253198 127.398,26.436 L127.398,37 L122.686,37 L122.686,26.778 C122.686,24.9793243 122.39467,23.6620042 121.812,22.826 C121.22933,21.9899958 120.304673,21.572 119.038,21.572 C117.543326,21.572 116.314671,22.1166612 115.352,23.206 L115.352,37 L110.64,37 L110.64,8.5 L115.352,8.5 L115.352,19.216 C116.112004,18.7346643 116.884663,18.3610013 117.67,18.095 C118.455337,17.8289987 119.316662,17.696 120.254,17.696 Z M138.582,37.38 C136.909992,37.38 135.643338,36.8923382 134.782,35.917 C133.920662,34.9416618 133.49,33.7700068 133.49,32.402 L133.49,21.876 L130.792,21.876 L131.21,18 L133.49,18 L133.49,13.82 L138.202,13.326 L138.202,18 L142.382,18 L142.382,21.876 L138.202,21.876 L138.202,30.464 C138.202,31.4773384 138.258999,32.1803314 138.373,32.573 C138.487001,32.9656686 138.727665,33.2189994 139.095,33.333 C139.462335,33.4470006 140.127329,33.504 141.09,33.504 L142.382,33.504 L141.964,37.38 L138.582,37.38 Z M151.856,37.38 C150.639994,37.38 149.531672,37.2660011 148.531,37.038 C147.530328,36.8099989 146.498005,36.4553357 145.434,35.974 L145.852,31.946 C146.916005,32.5793365 147.910329,33.0543318 148.835,33.371 C149.759671,33.6876683 150.715995,33.846 151.704,33.846 C153.629343,33.846 154.592,33.212673 154.592,31.946 C154.592,31.2619966 154.338669,30.7363352 153.832,30.369 C153.325331,30.0016648 152.41334,29.5646692 151.096,29.058 C149.221324,28.3739966 147.840671,27.5950044 146.954,26.721 C146.067329,25.8469956 145.624,24.6626741 145.624,23.168 C145.624,21.5213251 146.257327,20.1850051 147.524,19.159 C148.790673,18.1329949 150.500656,17.62 152.654,17.62 C154.807344,17.62 156.770658,18.1139951 158.544,19.102 L158.126,23.13 C157.163329,22.47133 156.257671,21.9646684 155.409,21.61 C154.560329,21.2553316 153.667338,21.078 152.73,21.078 C151.919329,21.078 151.292336,21.242665 150.849,21.572 C150.405664,21.901335 150.184,22.369997 150.184,22.978 C150.184,23.4593357 150.316999,23.8519985 150.583,24.156 C150.849001,24.4600015 151.222664,24.7323321 151.704,24.973 C152.185336,25.2136679 152.983328,25.5493312 154.098,25.98 C155.947343,26.6893369 157.277329,27.4683291 158.088,28.317 C158.898671,29.1656709 159.304,30.2993262 159.304,31.718 C159.304,33.5166757 158.658006,34.9099951 157.366,35.898 C156.073994,36.8860049 154.237345,37.38 151.856,37.38 Z" id="Thoughts" fill="#FFFFFF"></path>
                <path d="M0,63 L1494,63" id="Thought-Line" stroke="#282828" stroke-width="2" stroke-linecap="square"></path>
            </g>
        </g>
    </g>
</svg>