<?xml version="1.0" encoding="UTF-8"?>
<svg width="190px" height="97px" viewBox="0 0 190 97" version="1.1" xmlns="http://www.w3.org/2000/svg" xmlns:xlink="http://www.w3.org/1999/xlink">
    <!-- Generator: Sketch 49.3 (51167) - http://www.bohemiancoding.com/sketch -->
    <title>Thought Bubble (free) 6</title>
    <desc>Created with Sketch.</desc>
    <defs></defs>
    <g id="Spotify" stroke="none" stroke-width="1" fill="none" fill-rule="evenodd">
        <g id="Journey-Map-@2" transform="translate(-2192.000000, -375.000000)">
            <g id="Thought-Bubble-(free)-6" transform="translate(2192.000000, 375.000000)">
                <path d="M165.13089,62 L52.9712042,62 C52.9712042,62 48.2759162,62.018 46.5868063,64.5 C44.3485864,67.792 43.8512042,70.25 38.5471204,70.25 C33.8219895,70.25 32.1627225,65.584 29.9245026,63.708 C27.6862827,61.834 23.8743455,62 23.8743455,62 C10.741466,62 0,51.2 0,38 L0,24 C0,10.8 10.741466,0 23.8743455,0 L165.13089,0 C178.26178,0 189.005236,10.8 189.005236,24 L189.005236,38 C189.005236,51.2 178.26178,62 165.13089,62" id="Fill-5" fill="#F0A977"></path>
                <path d="M50.7720419,79.916 C50.7720419,83.184 48.1379058,85.832 44.8870157,85.832 C41.6361257,85.832 39,83.184 39,79.916 C39,76.648 41.6361257,74 44.8870157,74 C48.1379058,74 50.7720419,76.648 50.7720419,79.916" id="Fill-8" fill="#F0A977"></path>
                <path d="M52.6375916,96.326 C50.0770681,96.326 48,94.238 48,91.662 C48,89.086 50.0770681,87 52.6375916,87 C55.1981152,87 57.2751832,89.086 57.2751832,91.662 C57.2751832,94.238 55.1981152,96.326 52.6375916,96.326 Z" id="Fill-10" fill="#F0A977"></path>
                <text id="Is-it-Make-Collabora" font-family="Cabin-Regular, Cabin" font-size="14" font-weight="normal" fill="#FFFFFF">
                    <tspan x="24.024" y="26">Is it Make Collaborative? </tspan>
                    <tspan x="29.155" y="44">Oh wait, there's Share.</tspan>
                </text>
            </g>
        </g>
    </g>
</svg>