<?xml version="1.0" encoding="UTF-8"?>
<svg width="190px" height="96px" viewBox="0 0 190 96" version="1.1" xmlns="http://www.w3.org/2000/svg" xmlns:xlink="http://www.w3.org/1999/xlink">
    <!-- Generator: Sketch 49.3 (51167) - http://www.bohemiancoding.com/sketch -->
    <title>Thought Bubble (free) 7</title>
    <desc>Created with Sketch.</desc>
    <defs></defs>
    <g id="Spotify" stroke="none" stroke-width="1" fill="none" fill-rule="evenodd">
        <g id="Journey-Map-@2" transform="translate(-1707.000000, -375.000000)">
            <g id="Thought-Bubble-(free)-7" transform="translate(1707.000000, 375.000000)">
                <path d="M165.13089,62 L52.9712042,62 C52.9712042,62 48.2759162,62.018 46.5868063,64.5 C44.3485864,67.792 43.8512042,70.25 38.5471204,70.25 C33.8219895,70.25 32.1627225,65.584 29.9245026,63.708 C27.6862827,61.834 23.8743455,62 23.8743455,62 C10.741466,62 0,51.2 0,38 L0,24 C0,10.8 10.741466,0 23.8743455,0 L165.13089,0 C178.26178,0 189.005236,10.8 189.005236,24 L189.005236,38 C189.005236,51.2 178.26178,62 165.13089,62" id="Fill-5-Copy" fill="#F0A977"></path>
                <path d="M50.7720419,78.916 C50.7720419,82.184 48.1379058,84.832 44.8870157,84.832 C41.6361257,84.832 39,82.184 39,78.916 C39,75.648 41.6361257,73 44.8870157,73 C48.1379058,73 50.7720419,75.648 50.7720419,78.916" id="Fill-8-Copy" fill="#F0A977"></path>
                <path d="M57.2751832,90.662 C57.2751832,93.238 55.1981152,95.326 52.6375916,95.326 C50.0770681,95.326 48,93.238 48,90.662 C48,88.086 50.0770681,86 52.6375916,86 C55.1981152,86 57.2751832,88.086 57.2751832,90.662" id="Fill-10-Copy" fill="#F0A977"></path>
                <text id="Wait,-that-just-adde" font-family="Cabin-Regular, Cabin" font-size="14" font-weight="normal" fill="#FFFFFF">
                    <tspan x="20.734" y="26">Wait, that just added it to </tspan>
                    <tspan x="62.181" y="44">my library? </tspan>
                </text>
            </g>
        </g>
    </g>
</svg>